<?xml version="1.0" encoding="utf-8"?>
<!-- Generator: Adobe Illustrator 16.0.0, SVG Export Plug-In . SVG Version: 6.00 Build 0)  -->
<!DOCTYPE svg PUBLIC "-//W3C//DTD SVG 1.1//EN" "http://www.w3.org/Graphics/SVG/1.1/DTD/svg11.dtd">
<svg version="1.1" id="Layer_1" xmlns="http://www.w3.org/2000/svg" xmlns:xlink="http://www.w3.org/1999/xlink" x="0px" y="0px"
	 width="24px" height="24px" viewBox="0 0 24 24" enable-background="new 0 0 24 24" xml:space="preserve">
<g>
	<path d="M23.916,14.531l-0.004-0.005l-0.002-0.005c-0.049-0.119-0.116-0.229-0.198-0.326L22.8,13.132V6.68
		c0-1.662-0.937-3.181-2.421-3.928L20.4,1.069c0.003-0.397-0.285-0.738-0.678-0.8l-0.895-0.14c-0.393-0.059-0.771,0.177-0.889,0.557
		l-0.486,1.593H9.2C6.771,2.282,4.803,4.25,4.8,6.68v4.8H3.168c-0.351,0-0.684,0.154-0.912,0.42l-1.967,2.296
		C0.102,14.412,0,14.689,0,14.977v8.504c0,0.221,0.179,0.399,0.4,0.399h23.2c0.221,0,0.4-0.179,0.4-0.399v-8.504
		C24,14.824,23.971,14.673,23.916,14.531z M19.582,12.279h1.25c0.117,0.002,0.228,0.053,0.305,0.141l1.594,1.86h-3.252
		C19.639,13.626,19.674,12.947,19.582,12.279z M20.334,3.717c0.006-0.02,0.006-0.042,0.01-0.063c1.031,0.661,1.655,1.8,1.656,3.025
		v5.519l-0.257-0.3c-0.146-0.165-0.333-0.287-0.544-0.351V6.68c0.004-0.869-0.401-1.689-1.094-2.215L20.334,3.717z M19.85,5.304
		c0.355,0.37,0.553,0.863,0.551,1.376v4.8h-0.9c-0.121-0.703-0.048-1.425,0.213-2.088c0.106-0.223,0.1-0.482-0.018-0.699
		c-0.1-0.184-0.266-0.323-0.465-0.388l0.307-1.977L19.85,5.304z M17.983,4.284l0.001-0.004l-0.001-0.004l0.013-1.038l0.709-2.318
		L19.6,1.06l-0.03,2.423v0.001l-0.708,2.318L18.523,5.75l-0.558-0.087L17.983,4.284z M17.894,6.461l0.623,0.097l0.171,0.027
		l-0.245,1.581l-0.794-0.123L17.894,6.461z M18.715,9.019L18.715,9.019l0.276,0.028c-0.458,0.958-0.347,1.977-0.249,2.874
		l0.006,0.058c0.086,0.821,0.164,1.602-0.113,2.3h-2.021l-0.576-2.33c0.055-0.13,0.111-0.26,0.168-0.39
		c0.389-0.886,0.793-1.803,0.66-2.829L18.715,9.019z M10.023,7.636l0.951,3.844H7.2v-4.8c0.001-1.104,0.896-1.999,2-2h7.978
		L17.162,5.96l-0.307,1.976c-0.211,0-0.412,0.083-0.564,0.229c-0.176,0.171-0.262,0.417-0.227,0.661
		c0.049,0.633-0.07,1.267-0.346,1.839l-1.035-4.185c-0.054-0.208-0.188-0.387-0.375-0.496c-0.178-0.106-0.392-0.137-0.593-0.084
		L10.61,6.667C10.181,6.772,9.918,7.206,10.023,7.636z M5.6,6.68c0.002-1.987,1.613-3.598,3.6-3.6h8.02
		c-0.013,0.049-0.021,0.099-0.023,0.149l-0.008,0.651H9.2c-1.545,0.002-2.798,1.254-2.8,2.8v7.2H5.6V6.68z M7.6,14.68v1.601
		c-0.001,0.662-0.538,1.198-1.2,1.2H5.6c-0.663-0.002-1.199-0.538-1.2-1.2V14.68H7.6z M11.2,23.08H0.8v-8.104
		c0-0.096,0.034-0.188,0.096-0.26l1.967-2.295c0.077-0.09,0.188-0.141,0.305-0.143H4.8v1.601H4.4c-0.441,0.001-0.799,0.358-0.8,0.8
		v1.601c0.001,1.104,0.896,1.999,2,1.999h0.8c1.104,0,1.999-0.896,2-1.999V14.68c0-0.441-0.358-0.799-0.8-0.8H7.2v-1.601h1.632
		c0.117,0.002,0.228,0.053,0.304,0.141l1.963,2.292c0.03,0.034,0.054,0.073,0.072,0.115c0.019,0.048,0.029,0.099,0.029,0.15V23.08z
		 M10.07,12.279h1.102l0.447,1.809L10.07,12.279z M12.922,11.039c-0.053-0.212-0.267-0.343-0.48-0.293l-0.777,0.193l-0.192-0.777
		l0.777-0.192c0.141-0.033,0.252-0.139,0.292-0.277c0.041-0.138,0.004-0.288-0.096-0.391c-0.101-0.104-0.249-0.145-0.388-0.109
		L11.28,9.384l-0.48-1.94l3.108-0.768l1.881,7.604h-2.088c0.006-0.045,0.004-0.091-0.006-0.135
		c-0.025-0.104-0.092-0.191-0.182-0.247c-0.092-0.055-0.2-0.071-0.303-0.046l-0.779,0.193l-0.192-0.777l0.778-0.191
		c0.14-0.035,0.249-0.141,0.29-0.278c0.039-0.139,0.003-0.287-0.097-0.391c-0.1-0.103-0.247-0.145-0.386-0.109l-0.778,0.193
		l-0.192-0.777l0.778-0.192C12.846,11.467,12.974,11.251,12.922,11.039z M23.2,23.08H12v-8h11.2V23.08z"/>
	<path d="M13.029,8.127c-0.053-0.214-0.27-0.345-0.484-0.292c-0.157,0.039-0.275,0.168-0.299,0.329
		c-0.024,0.16,0.05,0.318,0.189,0.402c0.139,0.083,0.314,0.075,0.444-0.021C13.01,8.449,13.068,8.284,13.029,8.127z"/>
	<path d="M13.2,16.68H14c0.221,0,0.4-0.179,0.4-0.399c0-0.222-0.18-0.4-0.4-0.4h-0.8c-0.221,0-0.4,0.179-0.4,0.4
		C12.8,16.501,12.979,16.68,13.2,16.68z"/>
	<path d="M15.6,16.68H22c0.221,0,0.4-0.179,0.4-0.399c0-0.222-0.18-0.4-0.4-0.4h-6.4c-0.221,0-0.4,0.179-0.4,0.4
		C15.199,16.501,15.379,16.68,15.6,16.68z"/>
</g>
</svg>
