<?xml version="1.0" encoding="utf-8"?>
<!-- Generator: Adobe Illustrator 16.0.0, SVG Export Plug-In . SVG Version: 6.00 Build 0)  -->
<!DOCTYPE svg PUBLIC "-//W3C//DTD SVG 1.1//EN" "http://www.w3.org/Graphics/SVG/1.1/DTD/svg11.dtd">
<svg version="1.1" xmlns="http://www.w3.org/2000/svg" xmlns:xlink="http://www.w3.org/1999/xlink" x="0px" y="0px" width="612px"
	 height="792px" viewBox="0 0 612 792" enable-background="new 0 0 612 792" xml:space="preserve">
<g id="OUTLINE">
	
		<path fill="none" stroke="#000000" stroke-width="6.1425" stroke-linecap="round" stroke-linejoin="round" stroke-miterlimit="10" d="
		M402.886,127.885c-1.125-1.907-2.198-3.73-3.217-5.49c0.465,0.112,0.813-0.023,0.92-0.565c0.059-0.292,0.117-0.621,0.174-0.968
		c0.989-1.54,1.021-3.444,0.949-4.43c1.796-2.656,5.673-6.526,10.103-10.554c2.583-2.159,5.063-4.302,6.637-5.83
		c7.437-6.343,14.41-11.777,14.546-11.883l0.803-0.625l-1.769-6.636l-3.951-3.007l-0.216-0.08
		c-15.486-5.709-30.085-35.42-30.23-35.719l-0.441-0.908l-1.008,0.045c-21.149,0.969-63.484-14.219-63.909-14.373l-0.51-0.185
		l-0.513,0.177c-10.678,3.681-30.377,9.997-36.993,11.527l-13.325,3.564c-6.416,1.956-26.65,6.32-37.762,8.465l-0.532,0.102
		l-0.35,0.414c-0.292,0.345-29.389,34.616-48.209,44.35l-0.896,0.464l0.07,1.007c0.023,0.332,2.206,33.362-8.365,46.037
		l-0.147,0.178l-1.919,4.579l1.813,6.798l1.183-0.003c0.307,0.005,28.336-0.027,36.465,4.344l0.178,0.096l8.059,1.903l3.491,2.093
		h0.401 M228.605,392.101c2.305,2.985,4.428,5.683,6.029,7.615c0.524,1.393,3.008,7.151,8.033,7.438
		c-8.002,15.216-14.622,54.175,21.076,149.372c-0.533,2.46-2.883,14.212-3.008,30.788l-6.535,0.727l0.18,1.534
		c0.481,4.099,11.854,100.472,16.957,109.144c2.108,3.577,4.294,5.295,5.807,6.227c-0.082,0.048-0.165,0.096-0.249,0.145
		c-2.086,1.2-3.06,2.561-2.895,4.046c0.222,1.979,2.438,3.057,3.521,3.469c1.588,2.094,3.521,5.517,3.072,6.967l-1.058,3.416
		l0.097,0.407c0.048,0.204,4.798,20.51,3.912,27.466c-0.956,7.468-0.483,10.445-0.463,10.569l0.099,0.597l12.51,9.611l18.207-3.021
		l4.684-10.4l-0.503-7.787l-0.147-0.286c-0.104-0.2-10.423-20.326-11.203-33.334l-2.104-12.721
		c-0.066-0.398-0.027-1.027,0.015-1.692c0.129-2.065,0.312-5.149-2.437-7.326c0.094-0.796,0.243-1.638,0.467-2.502
		c0.229-0.192,0.464-0.381,0.682-0.586c1.679-1.572,3.49-2.543,3.507-2.552l0.903-0.479l-0.091-1.018
		c-0.07-0.776-6.927-77.95-0.72-98.636l0.709-2.359l-5.027,0.834c-0.697-9.128-1.914-29.814-2.053-32.182
		c0.37-1.604,1.774-7.76,2.911-13.438c1.415,7.367,2.878,14.156,4.269,19.199l0.056,0.166c0.626,1.553,6.154,15.228,7.613,17.411
		c0.762,1.142,1.29,5.576,1.459,8.708l-4.09,4.715l0.255,0.816c0.242,0.779,24.376,78.16,34.624,106.684l0.175,0.344
		c0.704,1.04,2.443,4.209,2.039,6.355l-0.693,7.032l2.741,0.833c1.48,7.304,3.771,22.224,2.76,31.698
		c-0.218,0.406-0.314,0.79-0.18,1.21c-0.645,0.774-1.076,1.677-1.159,2.748c-0.022,0.281,0.372,0.413,0.549,0.223
		c-0.426,1.405-0.992,2.54-1.741,3.292c-0.456,0.46-0.86,0.811-1.204,1.111c-2.436,2.122-2.543,3.314-0.762,8.507
		c1.214,3.547,5.552,5.2,5.736,5.27l0.486,0.182l0.496-0.151c0.533-0.161,13.109-4.046,18.785-11.47
		c5.463-7.145,6.853-15.637,7.773-21.257c0.016-0.097,0.031-0.193,0.047-0.291c1.19,5.395,2.899,12.562,3.967,14.494l0.663,1.199
		l6.128-2.532l-0.325-1.289c-0.041-0.162-4.066-16.4-1.037-33.971c1.085-6.29-7.144-15.642-8.085-16.688l-0.097-0.099
		c-1.645-1.521-3.926-7.71-5.006-11.334c-1.465-10.329-14.213-110.046-14.342-111.056l-0.026-0.206l-0.08-0.19
		c-0.799-1.915-3.292-1.9-6.165-1.9c-1.333,0.01-4.071,0.01-4.49-0.491c-3.096-6.961-6.951-13.45-7.548-14.441l-0.91-2.395
		c0.35-2.227,2.069-13.271,3.997-27.651l0.258-1.241l0.14-1.755c2.755-20.911,5.766-47.727,5.766-65.022
		c0-3.499-0.36-7.378-1.073-11.59c2.722,5.576,8.434,9.437,15.044,9.437c9.234,0,16.748-7.514,16.748-16.75
		c0-4.177-1.547-7.991-4.084-10.928c-0.391-0.622-0.738-1.125-1.02-1.513c0.184-0.161,0.357-0.346,0.51-0.573
		c0.947-1.42,0.783-3.688-0.486-6.739c-0.796-1.916-1.68-2.985-2.781-3.364c-1.352-0.466-2.602,0.238-3.804,0.919
		c-1.222,0.691-2.377,1.344-3.594,0.825c-2.781-1.197-6.423-0.201-8.753,0.707c-0.712-0.026-1.362-0.051-1.884-0.07
		c-0.58-0.295-1.2-0.408-1.763-0.332l-1.546-1.029c2.247-0.859,3.535-1.951,3.881-2.273c2.151-1.708,1.229-4.794,0.361-6.311
		l-5.501-10.634h0.588c1.692,0,2.704-1.653,2.704-3.253c0-1.516-0.909-2.66-2.222-2.885c-0.294-0.612-0.613-2.136-0.832-3.185
		c-0.493-2.349-0.957-4.567-2.117-5.725c-1.24-1.238-4.699-1.154-8.6-0.547c8.25-6.391,10.858-10.382,11.638-11.936
		c0.401-0.183,0.898-0.435,1.479-0.773c5.352-1.579,10.063-4.696,13.618-8.954l0.097-0.005c0.521,4.577,2.282,14.962,7.999,24.321
		c0.149,0.246,0.366,0.445,0.623,0.573c0.142,0.071,1.509,0.721,3.848,0.721c3.795,0,10.148-1.713,17.958-10.391
		c0.045-0.05,0.063-0.113,0.1-0.168c0.815,0.116,1.635,0.188,2.454,0.188c5.525,0,10.9-2.519,13.355-5.897l9.775,17.995
		c0.127,1.408,0.531,2.703,1.202,3.854c0.321,0.547,0.765,1.004,1.294,1.361l0.456,1.14c0.171,1.156,0.542,2.248,1.128,3.252
		c0.392,0.669,0.955,1.21,1.646,1.589c0.078,1.481,0.5,2.911,1.235,4.167c0.54,0.924,1.416,1.616,2.442,1.945l8.048,14.809
		c1.337,2.462,3.913,3.974,6.68,3.974c0.209,0,0.418-0.01,0.629-0.026c1.052-0.087,2.058-0.388,2.989-0.896
		c1.786-0.97,3.085-2.578,3.659-4.528c0.574-1.943,0.354-3.993-0.614-5.769l-7.819-14.396c0.856-1.37,0.91-3.11,0.093-4.513
		c-0.617-1.054-1.425-1.959-2.405-2.7c0.223-1.062,0.062-2.144-0.471-3.058c-0.062-0.104-0.132-0.199-0.197-0.301
		c-0.128-1.175-0.604-2.304-1.877-2.729c-0.101-0.033-0.19-0.063-0.285-0.095c0.105-0.922-0.059-1.84-0.521-2.631
		c-0.111-0.192-0.236-0.374-0.36-0.556c0.124-0.363,0.062-0.67-0.368-0.813c-0.111-0.037-0.243-0.087-0.383-0.145
		c-1.121-1.244-2.56-2.169-4.204-2.674l-7.329-13.489 M370.302,449.965c-5.488,0-9.953-4.463-9.953-9.95
		c0-2.967,1.313-5.627,3.38-7.452c1.102-0.407,2.258-0.626,3.454-0.626c5.48,0,9.939,4.463,9.939,9.95
		c0,2.873-1.273,5.583-3.389,7.454C372.662,449.736,371.51,449.965,370.302,449.965z M251.581,376.635
		c5.42-6.32,15.243-10.863,20.511-12.976c-5.297,10.322-8.531,12.839-8.551,12.854l-9.293,6.611l10.711-3.918
		c12.36-4.522,17.929-7.823,20.394-10.012c0.516,2.676,1.18,5.609,2.018,8.641c-2.007,0.57-6.215,1.81-11.142,3.509l-0.024,0.003
		l-0.293,0.088c-0.152-0.059-0.286-0.109-0.38-0.144c-1.203-1.076-3.551-1.857-5.553,0.146l0.416,0.415
		c-0.019,0.02-0.037,0.038-0.056,0.057c-1.293-0.707-2.459-1.3-3.368-1.63c-2.088-0.758-8.136,2.372-13.481,5.565
		c-0.81-2.434-1.578-5.833-2.271-9.522L251.581,376.635z M243.774,405.73L243.774,405.73l-0.017-0.131L243.774,405.73z
		 M358.021,422.558l-0.328,0.258l-0.446-0.67c-0.217,0.145-4.047,2.749-6.511,7.218c-0.8-2.495-1.688-5.07-2.651-7.699
		c1.889-0.136,3.762-0.876,4.899-1.411c0.322,0.327,0.714,0.608,1.162,0.812c0.505,0.228,1.045,0.348,1.563,0.348
		c0.435,0,0.819-0.101,1.165-0.251c0.271,0.108,0.534,0.217,0.783,0.32C357.711,421.841,357.833,422.203,358.021,422.558z
		 M445.056,385.25c-0.08-0.026-0.154-0.052-0.223-0.074c-0.229-0.098-0.454-0.205-0.688-0.284c0.099-0.085,0.357-0.312,0.656-0.607
		C444.973,384.617,445.045,384.946,445.056,385.25z"/>
</g>
<g id="COLOR">
	<g>
		<path fill="#FFE800" d="M428.625,358.323c16.714,20.917,39.519,8.66,39.519,8.66c-17.978,4.657-29.295-17.808-29.295-17.808
			s-22.641-41.453-11.497-116.083c9.312-62.37-25.636-99.155-35.228-121.867c0,0-5.867,1.901-8.938,2.414
			c-3.071,0.512-134.11,32.76-140.765,35.831c-6.654,3.071-7.166,16.38-7.166,16.38s-3.071,6.142-4.095,12.285
			c-1.024,6.143-12.038,20.161-12.038,20.161c-2.67,4.005-5.02,8.52-7.091,11.805l0.852-0.573
			c-41.805,29.95-50.179,68.992-50.179,68.992c0.002,0.128,5.244-23.024,41.447-53.488l7.558-3.899l8.701-5.118l6.143-5.631
			l8.575-5.849c-3.443,17.027-11.921,42.489-31.433,67.665c-30.512,39.378-48.208,53.507-48.208,53.507s38.053-21.963,63.937-58.237
			c0,0-11.934,95.149-107.541,129.809c0,0,34.266-3.99,61.626-26.075c0,0-19.9,51.089,9.386,89.065c0,0-19.463-36.375,13.871-56.55
			c0,0-7.593,17.95-3.785,36.799c0,0,1.184-34.449,36.749-50.669l20.687-14.213c7.99-9.319,24.765-14.762,24.765-14.762
			c-6.66,13.982-10.749,16.892-10.749,16.892c20.986-7.678,21.271-11.449,21.271-11.449L428.625,358.323z"/>
	</g>
	<path fill="#71727C" d="M321.761,585.072l-7.166,8.19l17.915,56.817l15.356,46.068l3.583,7.166l-1.023,7.166
		c0,0-0.512,0,1.023,1.536c1.536,1.535,1.536,1.535,1.536,1.535s4.606,24.059,4.095,27.642s-3.071,4.606-2.56,6.143
		c0.512,1.535,1.023,4.606-1.535,7.678c-2.56,3.071-1.536,3.071-1.536,5.631s2.56,4.606,2.56,4.606s0.512,1.536,2.048,1.536
		c1.535,0,10.237,1.535,17.403-10.75c7.166-12.284,8.189-19.963,8.189-19.963l2.56-5.63l2.56,17.403l1.535,1.535l2.56-2.559
		c0,0-0.512-16.893,0.512-25.594c1.024-8.702,1.024-12.285-2.047-16.38s-9.726-13.82-10.75-16.892c-1.023-3.071,0-5.119,0-5.119
		l-8.189-63.983c0,0-4.606-45.045-6.143-45.045c-1.535,0-23.546-4.095-27.641-1.536C332.51,574.835,321.761,585.072,321.761,585.072
		z"/>
	<g>
		<path fill="#71727C" d="M264.432,587.12c0,0-9.214,1.023-9.214,3.583s13.309,92.137,13.82,95.72s4.095,13.309,6.143,14.333
			c2.048,1.023,4.095,3.07,4.095,3.07l-4.606,5.631c0,0,1.535,1.023,3.583,3.071s3.071,2.048,3.583,5.119s0.512,1.535,0.512,3.071
			c0,1.535,0-2.048,0,1.535s3.583,23.546,3.583,26.617s-2.047,12.285-2.047,12.285s2.559,3.583,4.095,3.583
			c1.535,0,5.118,5.119,10.237,5.119s13.309-0.513,14.332-2.56c1.024-2.048,4.607-11.773,4.607-13.309
			c0-1.536-0.512-6.143-0.512-6.143s-10.75-15.868-10.75-21.499c0-5.63-3.583-23.034-3.583-23.034v-2.559
			c0,0-1.023-5.119,1.024-10.238c2.047-5.118,2.047-5.118,2.047-5.118s-3.071-67.056-2.56-73.71
			c0.513-6.654,2.048-22.01,2.048-22.01l-18.428-5.631L264.432,587.12z"/>
	</g>
	<path fill="#3D74BB" d="M255.218,290.234l-6.143,2.048l-9.214,3.583c0,0,2.048,9.726,4.095,14.845
		c2.048,5.118,6.143,16.892,6.143,16.892l4.096,1.023c0,0-0.513,2.048,4.095,0.512c4.606-1.535,10.749-5.631,10.749-5.631
		l1.023-3.071l13.821-6.142c0,0-8.19,11.772-7.167,23.034c1.024,11.261,6.143,16.38,6.143,16.38l3.071,9.726l3.071,16.38
		l-12.797,1.535l-5.118,1.536c0,0-2.048-2.048-6.654-1.024c-4.607,1.024-12.285,5.119-12.285,5.119l-3.583-19.451l-2.048-14.333
		c0,0-16.892,1.536-25.594,8.702c-8.701,7.166-8.701,7.166-8.701,7.166l22.01,25.594l3.071,8.702c0,0,2.048,3.071,5.119,2.047
		c3.071-1.023,3.071-1.023,3.071-1.023s-8.702,15.356-8.702,27.642c0,12.284,5.119,47.092,5.119,47.092l22.522,15.356l52.723,10.749
		l31.735-2.048c0,0,5.119-4.606,5.631-32.76c0.251-13.827-3.071-29.688-3.071-29.688l-3.071-14.332l-1.535-11.773l-13.82-25.081
		c0,0,16.38-10.75,19.963-14.333s3.583-3.583,3.583-3.583s4.095-1.023,9.726-7.166c5.63-6.143,17.915-10.749,17.915-10.749
		s5.631,16.38,9.214,18.427c3.583,2.048,10.237,5.119,12.285,3.583c2.047-1.535,7.678-0.512,11.772-5.63
		c4.096-5.119,9.726-26.105,9.726-26.105s0-7.167-2.047-9.726c-2.048-2.56-2.048-2.56-2.048-2.56l-0.512-4.606l-2.56-2.048
		c0,0,2.048-4.607-2.56-5.119c-4.606-0.512-12.284-0.512-12.284-0.512l-11.773-11.261l-16.892-12.797c0,0-3.583-2.56-6.654-2.56
		s-8.702,0.512-10.749-2.56c-2.048-3.071-8.19-8.701-8.19-8.701s-8.189-11.262-15.868-10.75c-7.678,0.512-10.749,3.071-15.355,4.096
		c-4.607,1.023-12.285,4.095-16.893,1.535c-4.606-2.56-12.797-4.095-17.915-0.512c-5.119,3.583-17.916,12.285-17.916,12.285
		l-9.726,5.118l-1.535,0.512L255.218,290.234z"/>
	<path fill="#FFAD6B" d="M248.223,206.92c0,0,2.048,12.968,6.825,19.792c4.777,6.825,8.189,9.556,8.189,9.556
		s4.095,12.967,12.968,17.744c8.872,4.777,36.172,14.983,36.172,14.983l15.526,2.3c0,0-11.261,23.495-13.82,33.221
		s-2.46,26.105-1.436,32.76c1.023,6.654,8.602,25.082,8.602,25.082s3.583-1.023,11.773-5.631
		c8.189-4.606,21.498-11.772,22.01-17.915s-1.276-17.403-2.812-20.987c-1.536-3.583-6.914-23.034-6.914-23.034v-11.772
		c0,0,2.56-8.19,4.607-10.237c2.047-2.048,5.63-9.214,5.63-9.214s35.319-25.082,39.927-46.58c0,0,2.047-17.916,2.047-22.522
		s0-4.607,0-4.607s-4.095-19.451-5.63-27.641c-1.536-8.19-17.916-29.688-19.964-30.2c-2.047-0.512-18.938,9.726-18.938,9.726
		l-7.679,3.071l-20.475,20.475l-31.736,22.01l13.309-15.356l4.096-9.726l-19.621,15.066l-26.447,11.04l-19.451,9.726L248.223,206.92
		z"/>
	<path fill="#FFAD6B" d="M219.387,362.92c0,0-12.285-25.593-11.262-43.509c0,0,23.035-9.726,26.105-11.261
		c3.071-1.536,6.143-4.096,6.143-4.096l5.119,9.214l4.095,10.237l3.583,6.654c0,0-5.63,1.536-7.678,2.048s-8.702,2.56-8.702,2.56
		l1.024,13.82l2.047,5.119C239.861,353.707,219.898,360.361,219.387,362.92z"/>
	<path fill="#FFAD6B" d="M391.433,340.398c0,0-7.735,0-11.83,5.63c-4.095,5.631-5.119,12.285-5.119,12.285
		s3.071,18.428,5.631,23.034s1.023,4.095,5.119,3.583c4.095-0.512,7.166-2.047,12.284-4.606c5.119-2.56,5.631-4.095,5.631-4.095
		s-13.309-9.214-13.309-18.939c0-11.773,3.071-17.916,3.071-17.916L391.433,340.398z"/>
	<path fill="#FFAD6B" d="M241.909,476.556c0,0,13.309,56.306,23.034,80.364l-1.536,17.915l-2.559,14.845
		c0,0,7.678,6.143,22.01,4.606c14.333-1.535,18.428-4.095,18.428-4.095l-1.023-35.831l4.095-17.916c0,0,4.095,22.522,4.095,25.082
		s7.678,16.38,7.678,16.38l5.119,14.332c0,0,14.332-1.023,23.034-6.142c8.702-5.119,13.309-7.679,13.309-7.679l-8.189-14.332
		l-4.607-11.262l5.631-27.129l2.048-25.594l-4.096-1.023c0,0-55.282-3.583-93.672-15.868
		C254.706,483.21,246.004,480.65,241.909,476.556z"/>
	<path fill="#3D74BB" d="M195.329,98.795c0,0,2.047,24.57-4.096,35.319c-6.143,10.75-6.654,10.75-6.654,12.797
		s-1.023,5.63,2.56,5.63s28.665,0,31.225,2.048c2.559,2.047,8.701,2.047,11.772,3.583s6.143,4.095,6.143,4.095v-5.63l6.654-12.797
		c0,0,122.85-29.688,131.551-30.712c8.702-1.023,18.428-1.535,18.428-1.535s1.535,3.583,1.535,5.119s5.631,7.678,6.143,5.119
		c0.512-2.56,1.024-7.678,1.024-7.678s16.892-13.309,18.427-15.868c1.536-2.559,11.262-9.726,11.262-9.726s-0.513-3.583-2.048-6.142
		c-1.536-2.56-3.071-3.583-3.071-3.583s-15.356-6.655-20.986-19.963c-5.631-13.309-6.143-14.844-9.214-14.844
		s-8.702-1.023-21.499-3.583c-12.797-2.559-19.451-4.095-30.2-7.678c-10.749-3.583-12.285-5.119-14.332-4.095
		c-2.048,1.024-27.13,8.702-42.485,12.797c-15.356,4.095-31.736,7.166-31.736,7.166s-10.749,2.047-12.797,5.119
		s-31.224,30.201-42.997,39.414C199.936,93.164,192.77,97.771,195.329,98.795z"/>
	<path fill="#FFE800" d="M229.624,141.792c0,0-5.119-1.024-5.119,3.583s3.071,8.19,4.607,7.678c1.535-0.512,1.535-0.512,1.535-0.512
		l3.071-2.559c0,0,13.966-16.497,68.079-33.271c51.188-15.868,87.019-3.583,87.019-3.583s8.701,1.536,9.213-7.166
		c0.513-8.702-4.859-5.282-4.859-5.282s-1.023,0.512-1.535,2.047c-0.513,1.536-0.513,1.536-0.513,1.536l-1.794-0.86
		c0,0-31.736-6.655-67.056,0.512c-35.318,7.166-78.316,22.365-90.601,39.769C219.387,161.086,229.624,141.792,229.624,141.792z"/>
	<path fill="#545561" d="M233.719,149.982c0,0,18.428-19.451,61.937-30.712s75.245-12.797,75.245-12.797s19.451,3.071,19.451,4.607
		s-10.237,17.404-36.854,29.177c-23.123,10.228-63.473,17.916-80.364,18.939C256.241,160.219,231.16,156.636,233.719,149.982z"/>
	<path fill="#FFE800" d="M263.92,290.234l2.047,3.071l7.166,2.048c0,0,14.333-7.166,15.356-8.19
		c1.023-1.023-2.048-4.606-2.048-4.606l-1.535-6.654L263.92,290.234z"/>
	<polygon fill="#FFE800" points="381.649,303.031 379.603,303.031 374.483,302.52 382.162,313.78 388.816,315.828 	"/>
	<path fill="#C25C08" d="M395.982,325.554l-32.248-58.865c0,0-2.56-7.678,2.56-9.214c5.118-1.535,7.678,0.512,7.678,0.512
		l34.808,61.425l-5.631-1.023l-1.535,2.56l-1.024,3.583L395.982,325.554z"/>
	<path fill="#C25C08" d="M421.063,346.028c0,0-5.63-1.535-7.166,0c-1.535,1.536-3.583,1.536-3.583,3.071c0,1.536,0,1.536,0,1.536
		l18.428,36.343l2.047,5.118l2.048,5.119l1.536,2.048l3.07,4.606l9.214,16.38c0,0,3.071,4.606,8.19,3.071
		c5.118-1.536,4.606-6.654,4.606-6.654v-2.048l-8.189-16.892v-2.56l-2.56-3.071c0,0,1.535-5.118-1.536-6.143
		c-3.071-1.023-3.071-1.023-3.071-1.023s3.071-2.56,1.536-3.071c-1.536-0.512-6.143-3.071-6.143-3.071L421.063,346.028z"/>
	<path fill="#FFE800" d="M333.022,311.222c0,0-3.071,2.047-2.048,4.606s3.071,0.512,3.071,0.512S334.558,313.78,333.022,311.222z"/>
	<polygon fill="#FFE800" points="359.64,315.316 358.615,319.923 370.389,319.923 369.877,315.828 	"/>
	<path fill="#B9B9BE" d="M381.309,426.733c0,0,1.024-4.436,0.684-5.801c-0.342-1.364-2.39-3.071-4.096-3.413
		c-1.705-0.342-4.095,2.048-6.825,2.048s-11.261-0.341-11.261-0.341l-3.071-2.048l4.777-4.436l-1.365-4.096l-4.095-10.237
		c0,0,1.023-1.024,2.047-2.73c1.024-1.706-2.388-3.412-2.729-4.436c-0.341-1.024-0.342-1.706-1.023-5.46s-14.674,0.341-14.674,0.341
		l-5.119,3.413l1.707,2.047c0,0-2.389,1.024-5.802,2.73s-5.119,6.824-5.119,6.824s0,0-1.364,0.683
		c-1.365,0.684-2.389,3.412-2.389,3.412l-22.522-6.483l-2.047-3.753c0,0-0.343-1.024-5.119-3.071
		c-4.776-2.048-7.849,1.706-7.849,1.706s1.023-1.365,1.023-3.071s-3.071-5.119-3.071-5.119s-6.825-3.753-8.873-4.437
		c-2.047-0.683-3.412,1.707-3.412,1.707s1.706,1.023,5.802,3.071c4.095,2.048,4.436,3.754,2.729,4.095
		c-1.707,0.342-4.777-1.706-8.872-2.73c-4.096-1.023-0.683,0.684-0.683,2.39s8.189,7.848,8.189,7.848s0,0.684-2.389,1.707
		s-7.166-4.777-8.531-4.777s3.071,4.095,4.095,4.436c1.024,0.342,2.048,2.73,2.048,2.73l-2.729,0.682c0,0,1.365,2.39,2.729,2.39
		s6.825-1.365,6.825-1.365l-0.342,2.047c0,0,8.19,6.825,10.579,6.825s6.483-2.047,6.483-2.047l20.134,8.189l6.825-1.706
		c0,0-0.289-0.005,0-7.849c0.396-10.678,4.726-6.173,4.777-6.142l1.706,8.53l1.024,4.436c0,0,0,2.048,3.754,3.414
		c3.754,1.365,4.776,1.023,6.824,1.023s0,0,2.048,0.682c2.047,0.682,10.237-1.023,10.237-1.023s1.365,0.683,2.389,1.023
		c1.024,0.341,3.412,1.365,3.412,1.365l-4.777,3.754l-3.071,6.142l-0.682,2.048c0,0-1.023,1.023-1.023,3.413
		s4.776,4.095,4.776,4.095l2.73,7.508c0,0,5.118,7.849,15.015,6.483c9.896-1.366,15.356-8.19,15.015-15.356
		S381.309,426.733,381.309,426.733z M377.555,444.819c-2.73,8.531-8.872,5.46-10.919,5.119c-2.048-0.341-6.484-3.071-6.825-10.92
		c-0.341-7.85,9.214-7.849,9.214-7.849C371.754,431.512,380.285,436.289,377.555,444.819z"/>
	<path fill="#FFE800" d="M314.083,411.719l-1.024,1.707c0,0-9.896-1.707-10.919-2.048s-2.047-1.706-0.342-4.437
		c1.706-2.73,1.707-1.706,1.707-1.706l11.261,2.729L314.083,411.719z M316.13,402.164c-3.412-0.342-4.776-0.342-4.776-0.342
		l-6.143-1.105l-1.365-1.624c0,0-5.46-2.389-6.483,2.389c-1.024,4.778-1.365,6.143-1.365,6.143s-1.364,6.824,2.048,7.507
		c3.412,0.684,12.285,3.755,12.285,3.755s5.459,1.706,7.507-2.048s2.389-10.92,2.389-10.92S319.542,402.507,316.13,402.164z"/>
	<path fill="#FF6A82" d="M306.234,235.109l4.096-0.157l3.753-0.682c0,0,2.047-4.438,4.095-4.778s9.214-1.023,9.214-1.023
		s6.825-4.095,10.92-4.777s7.166,0,7.166,0s4.096-3.07,5.119-3.754c1.023-0.683,1.706-2.047,1.706-2.047s-1.023-0.683,0-1.024
		c1.024-0.341,2.729-0.341,2.729-0.341c0.684,1.706,0.685-0.683,0.342,2.389c-0.342,3.071-0.342,1.023-0.342,3.071
		s0.341-1.364,0,2.048s-0.34,5.8-0.682,8.53s-5.119,7.507-6.484,9.214c-1.364,1.707-7.848,5.802-10.578,7.508
		s-11.603,1.706-11.603,1.706s-6.143-3.413-7.849-4.095c-1.707-0.683-5.46-2.73-5.46-2.73l-2.047-3.071l-1.024-2.389l-4.437-2.573
		L306.234,235.109z"/>
	<path fill="#A9A9A9" d="M327.425,180.676c0,0,2.223-7.438,12.442-10.5c10.216-3.059,14.656,3.597,14.345,5.964
		c-0.309,2.374,1.861,7.313,6.263,4.817c4.406-2.493,11.272-7.91,13.326-5.225c2.063,2.681,6.07,7.614,9.722,5.771L327.425,180.676z
		"/>
	<path fill="#A9A9A9" d="M263.271,189.796c8.1-1.08,11.642,4.493,11.363,6.618c-0.308,2.37,1.861,7.314,6.267,4.817
		c4.402-2.495,11.267-7.912,13.324-5.229c2.062,2.683,6.068,7.616,9.718,5.769L263.271,189.796z"/>
	<path fill="#A6CFFF" d="M346.843,151.518c0,0-25.594,12.797-24.059,23.034c1.536,10.237,17.916,29.177,42.998,21.499
		c25.081-7.678,26.105-18.939,23.034-33.784S360.663,143.328,346.843,151.518z"/>
	<path fill="#A6CFFF" d="M244.98,198.047c0,0,5.63,16.942,19.963,19.502c14.332,2.56,24.058-1.023,32.76-7.166
		c8.701-6.143,13.82-16.38,13.82-20.475c0-4.095-1.023-12.285-1.023-12.285l-15.868,7.678l9.513-11.837c0,0-4.906-1.983-8.489,0.064
		c-3.583,2.048-26.617,12.797-26.617,12.797L244.98,198.047z"/>
	<g>
		<path fill="#FFFFFF" d="M302.438,167.963c1.57,0.646,3.075,1.452,4.453,2.451l-2.747,3.049c-1.569-1.094-3.379-1.894-5.265-2.469
			L302.438,167.963z M248.03,197.13c1.186,7.092,4.807,12.729,10.481,16.306c6.152,3.877,14.061,4.863,22.261,2.771
			c6.512-1.657,13.019-5.261,18.809-10.421c15.175-13.519,8.204-28.371,8.128-28.519l3.688-1.908
			c0.162,0.304,8.408,17.855-9.036,33.399c-6.298,5.609-13.414,9.54-20.586,11.365c-9.344,2.378-18.418,1.212-25.554-3.279
			c-6.433-4.055-10.756-10.617-12.201-18.509L248.03,197.13z"/>
		<path fill="#FFFFFF" d="M343.584,149.978c1.74-0.628,4.411-1.516,7.629-2.335c20.679-5.267,34.653-0.712,39.352,12.837
			c2.693,7.776,2.09,15.796-1.695,22.574c-4.119,7.36-11.525,12.727-20.871,15.106c-7.172,1.828-15.304,1.784-23.512-0.132
			c-22.761-5.303-23.914-24.66-23.92-25.002c0.04-1.277,0.229-2.505,0.546-3.679L343.584,149.978z M342.927,154.559
			c-0.176,0.068-17.876,6.977-18.212,18.377c0.011,0.162,0.992,16.538,20.789,21.151c7.552,1.761,14.986,1.815,21.499,0.158
			c8.197-2.091,14.672-6.738,18.219-13.086c3.277-5.854,3.76-12.539,1.406-19.335c-5.017-14.452-21.483-13.559-34.418-10.267
			C346.848,152.925,343.028,154.515,342.927,154.559z"/>
		<path fill="#FFFFFF" d="M312.547,174.552l0.478,8.942c0,0,3.247-5.719,9.715-2.697c0,0-5.585-9.316,1.069-14.435
			S312.547,174.552,312.547,174.552z"/>
	</g>
	<path fill="#7EA9D9" d="M383.522,181.504c-3.651,1.844-7.658-3.089-9.722-5.771c-2.054-2.685-8.92,2.731-13.326,5.225
		c-4.401,2.496-6.571-2.443-6.263-4.817c0.312-2.367-4.129-9.023-14.345-5.964c-10.22,3.062-12.442,10.5-12.442,10.5
		s3.038,6.501,9.863,9.914s24.91,7.507,35.148,2.047c10.237-5.459,12.785-11.479,12.785-11.479L383.522,181.504z"/>
	<path fill="#7EA9D9" d="M303.942,201.771c-3.649,1.848-7.656-3.085-9.718-5.769c-2.058-2.684-8.922,2.733-13.324,5.229
		c-4.405,2.498-6.574-2.447-6.267-4.817c0.278-2.125-3.264-7.698-11.363-6.618l-14.024,7.278c0,0-1.706,2.389-0.342,5.46
		c1.365,3.071,6.484,14.674,23.888,14.332c17.404-0.341,25.935-10.92,25.935-10.92L303.942,201.771z"/>
	<path fill="#94959C" d="M358.125,136.667c-13.329-19.963-28.207-24.422-28.207-24.422l12.423-2.476c0,0,21.47,5.269,30.096,20.249
		L358.125,136.667z"/>
	<path fill="#94959C" d="M261.975,158.412c28.833-16.276,11.06-18.617,5.885-20.051c-5.173-1.43,13.667-13.785,13.667-13.785
		l3.38-2.747l5.631-1.024l0.022,1.468c0,0-20.803,11.647-2.22,10.186c19.537-1.542,10.262,18.685-0.365,25.518L261.975,158.412z"/>
</g>
<g id="LINE">
	
		<path fill="none" stroke="#000000" stroke-width="1.7915" stroke-linecap="round" stroke-linejoin="round" stroke-miterlimit="10" d="
		M381.137,440.015c0,5.993-4.845,10.846-10.835,10.846c-5.996,0-10.85-4.853-10.85-10.846c0-5.99,4.854-10.845,10.85-10.845
		C376.292,429.17,381.137,434.024,381.137,440.015z"/>
	
		<path fill="none" stroke="#000000" stroke-width="1.7915" stroke-linecap="round" stroke-linejoin="round" stroke-miterlimit="10" d="
		M386.153,440.015c0,8.754-7.1,15.854-15.852,15.854c-8.76,0-15.853-7.101-15.853-15.854c0-8.756,7.093-15.854,15.853-15.854
		C379.054,424.161,386.153,431.259,386.153,440.015z"/>
	
		<path fill="none" stroke="#000000" stroke-width="1.7915" stroke-linecap="round" stroke-linejoin="round" stroke-miterlimit="10" d="
		M357.743,422.892c0,0-6.853,4.566-7.998,11.984c-1.136,7.423,4.704,5.139,4.704,5.139"/>
	
		<path fill="none" stroke="#000000" stroke-width="1.7915" stroke-linecap="round" stroke-linejoin="round" stroke-miterlimit="10" d="
		M361.172,421.174c0,0,6.278-3.423,10.266-1.71c3.997,1.71,6.86-5.706,9.705,1.142c2.852,6.853-1.142,6.853-1.142,6.853"/>
	
		<path fill="none" stroke="#000000" stroke-width="4.095" stroke-linecap="round" stroke-linejoin="round" stroke-miterlimit="10" d="
		M326.32,270.436c-7.323,7.32-20.641,7.988-20.641,7.988s-7.322-3.327-11.319-4.659c-3.996-1.331-13.316,5.325-13.316,5.325
		c-13.314,9.987-25.302,14.356-25.302,14.356l-1.995-3.703c0,0-9.324,5.326-13.986,5.326l1.335,7.99
		c-9.989,7.324-33.961,15.85-33.961,15.85c1.268,15.156,8.12,32.496,12.988,43.199"/>
	
		<path fill="none" stroke="#000000" stroke-width="1.7915" stroke-linecap="round" stroke-linejoin="round" stroke-miterlimit="10" d="
		M348.303,277.126l-7.226,18.989c0,0-2.77,4.283-1.439,6.278"/>
	
		<line fill="none" stroke="#000000" stroke-width="4.095" stroke-linecap="round" stroke-linejoin="round" stroke-miterlimit="10" x1="352.288" y1="266.658" x2="348.303" y2="277.126"/>
	
		<line fill="none" stroke="#000000" stroke-width="1.7915" stroke-linecap="round" stroke-linejoin="round" stroke-miterlimit="10" x1="327.433" y1="271.1" x2="320.19" y2="287.919"/>
	
		<path fill="none" stroke="#000000" stroke-width="1.7915" stroke-linecap="round" stroke-linejoin="round" stroke-miterlimit="10" d="
		M243.758,405.6c5.326-0.668,11.319-6.658,11.319-6.658s7.548,5.769,10.209,5.769c2.667,0,1.334-1.775,1.334-1.775
		s-7.104-5.771-10.212-11.539"/>
	
		<path fill="none" stroke="#000000" stroke-width="4.095" stroke-linecap="round" stroke-linejoin="round" stroke-miterlimit="10" d="
		M221.493,361.583c-2.762,1.955-5.583,4.383-8.364,7.394c0,0,16.2,21.973,22.858,29.965c0,0,2.443,7.324,7.771,6.658"/>
	
		<path fill="none" stroke="#000000" stroke-width="1.7915" stroke-linecap="round" stroke-linejoin="round" stroke-miterlimit="10" d="
		M239.667,354.013c-4.655,0.726-11.231,2.657-18.174,7.57"/>
	
		<path fill="none" stroke="#000000" stroke-width="4.095" stroke-linecap="round" stroke-linejoin="round" stroke-miterlimit="10" d="
		M252.411,387.4c-3.327-8.658-5.992-33.735-5.992-33.735s-2.615-0.303-6.752,0.348"/>
	
		<path fill="none" stroke="#000000" stroke-width="1.7915" stroke-linecap="round" stroke-linejoin="round" stroke-miterlimit="10" d="
		M259.878,396.064c0,0,7.546,5.771,10.207,5.771c2.667,0,1.336-1.776,1.336-1.776s-7.108-5.769-10.214-11.541"/>
	
		<path fill="none" stroke="#000000" stroke-width="4.095" stroke-linecap="round" stroke-linejoin="round" stroke-miterlimit="10" d="
		M240.429,352.999c0,0-3.995-13.982-3.995-19.308c0,0,7.604-0.93,16.493-4.929l2.901,1.976c4.18-1.875,8.996-4.081,13.693-6.322
		l0.987-3.775c4.489-2.137,12.797-5.756,16.728-7.796"/>
	
		<path fill="none" stroke="#000000" stroke-width="1.7915" stroke-linecap="round" stroke-linejoin="round" stroke-miterlimit="10" d="
		M312.559,309.196c2.129,0.751,4.133,1.757,5.984,2.982"/>
	
		<path fill="none" stroke="#000000" stroke-width="4.095" stroke-linecap="round" stroke-linejoin="round" stroke-miterlimit="10" d="
		M287.492,357.512c-7.006-4.979-11.577-13.161-11.577-22.41c0-9.124,4.451-17.212,11.296-22.209"/>
	
		<path fill="none" stroke="#000000" stroke-width="1.7915" stroke-linecap="round" stroke-linejoin="round" stroke-miterlimit="10" d="
		M309.715,361.841c-2.031,0.481-4.146,0.733-6.326,0.733c-5.925,0-11.409-1.875-15.896-5.063"/>
	
		<path fill="none" stroke="#000000" stroke-width="1.7915" stroke-linecap="round" stroke-linejoin="round" stroke-miterlimit="10" d="
		M326.035,319.535c3.045,4.425,4.83,9.788,4.83,15.566c0,8.344-3.721,15.817-9.596,20.856"/>
	
		<path fill="none" stroke="#000000" stroke-width="1.7915" stroke-linecap="round" stroke-linejoin="round" stroke-miterlimit="10" d="
		M328.86,357.88c-1.294-1.996-2.328-4.177-3.06-6.49"/>
	
		<path fill="none" stroke="#000000" stroke-width="1.7915" stroke-linecap="round" stroke-linejoin="round" stroke-miterlimit="10" d="
		M358.23,369.104c-2.231,0.606-4.578,0.928-7,0.928c-5.005,0-9.689-1.377-13.69-3.774"/>
	
		<path fill="none" stroke="#000000" stroke-width="4.095" stroke-linecap="round" stroke-linejoin="round" stroke-miterlimit="10" d="
		M373.721,357.695c-3.519,5.519-9.016,9.654-15.49,11.409"/>
	
		<path fill="none" stroke="#000000" stroke-width="1.7915" stroke-linecap="round" stroke-linejoin="round" stroke-miterlimit="10" d="
		M373.011,328.021c3.069,4.341,4.875,9.642,4.875,15.361c0,5.268-1.527,10.178-4.165,14.313"/>
	
		<path fill="none" stroke="#000000" stroke-width="1.7915" stroke-linecap="round" stroke-linejoin="round" stroke-miterlimit="10" d="
		M345.744,317.3c1.77-0.372,3.606-0.565,5.486-0.565"/>
	
		<path fill="none" stroke="#000000" stroke-width="1.7915" stroke-linecap="round" stroke-linejoin="round" stroke-miterlimit="10" d="
		M330.502,326.632c1.008-1.246,2.129-2.399,3.341-3.447"/>
	
		<path fill="none" stroke="#000000" stroke-width="1.7915" stroke-linecap="round" stroke-linejoin="round" stroke-miterlimit="10" d="
		M289.486,379.634c0.466,1.542,0.978,3.1,1.545,4.657"/>
	
		<path fill="none" stroke="#000000" stroke-width="4.095" stroke-linecap="round" stroke-linejoin="round" stroke-miterlimit="10" d="
		M285.349,358.749c0.462,4.474,1.574,12.413,4.138,20.885"/>
	
		<path fill="none" stroke="#000000" stroke-width="1.7915" stroke-linecap="round" stroke-linejoin="round" stroke-miterlimit="10" d="
		M285.041,354.994c0,0,0.063,1.396,0.308,3.755"/>
	
		<path fill="none" stroke="#000000" stroke-width="4.095" stroke-linecap="round" stroke-linejoin="round" stroke-miterlimit="10" d="
		M244.859,406.375c-7.98,13.427-16.53,51.516,20.482,150.039c0,0-3.075,13.187-3.075,32.275l-6.36,0.706
		c0,0,11.757,100.051,16.754,108.543c5.001,8.481,10.226,5.464,5.001,8.481c-5.245,3.018,0.796,4.883,0.796,4.883
		s4.541,5.698,3.604,8.722c-0.934,3.018-0.934,3.018-0.934,3.018s4.873,20.696,3.941,28.013c-0.938,7.328-0.472,10.121-0.472,10.121
		l11.501,8.836l16.737-2.777l4.189-9.302l-0.458-7.086c0,0-10.563-20.465-11.371-33.947l-1.394-8.37c0,0-0.347-2.092-0.692-4.187
		c-0.354-2.092,1.17-5.923-2.091-8.252c-3.252-2.332-0.58-3.485,1.281-5.23c1.863-1.746,3.839-2.79,3.839-2.79
		s-7.024-78.006-0.659-99.215l-4.247,0.706c-0.706-8.486-2.2-34.102-2.2-34.102s4.478-19.387,4.478-23.154"/>
	
		<path fill="none" stroke="#000000" stroke-width="4.095" stroke-linecap="round" stroke-linejoin="round" stroke-miterlimit="10" d="
		M289.032,378.967c0,0-5.889,1.579-13.194,4.139"/>
	
		<path fill="none" stroke="#000000" stroke-width="4.095" stroke-linecap="round" stroke-linejoin="round" stroke-miterlimit="10" d="
		M356.579,370.017c0,0-2.289,6.952-23.6,20.269l2.001,1.612"/>
	
		<path fill="none" stroke="#000000" stroke-width="1.7915" stroke-linecap="round" stroke-linejoin="round" stroke-miterlimit="10" d="
		M244.191,477.71c1.33,1.999,5.024,3.883,5.024,3.883s51.804,14.563,98.413,17.22c0,0,3.77,2.095,4.394,0.224"/>
	
		<path fill="none" stroke="#000000" stroke-width="4.095" stroke-linecap="round" stroke-linejoin="round" stroke-miterlimit="10" d="
		M352.057,439.562c1.611,6.488,2.739,13.221,2.739,19.356c0,31.958-10.206,95.834-10.206,95.834l1.106,2.905
		c0,0,4.238,6.99,7.529,14.391c1.185,2.665,9.778,0.292,10.642,2.359c0,0,12.957,101.36,14.36,111.188c0,0,2.875,9.734,5.467,12.134
		c0,0,8.702,9.661,7.712,15.397c-3.119,18.096,1.062,34.609,1.062,34.609l-3.633,1.502c-1.605-2.905-5.116-20.239-5.116-20.239
		c-2.412,2.909-1.124,16.496-9.234,27.104c-5.44,7.116-18.011,10.934-18.011,10.934s-3.827-1.428-4.821-4.329
		c-2.111-6.156-1.134-5.279,1.604-8.038c7.238-7.272,0-41.458,0-41.458l-2.409-0.731l0.552-5.645
		c0.614-3.257-2.277-7.502-2.277-7.502c-10.355-28.823-34.604-106.621-34.604-106.621l3.934-4.533c0,0-0.328-7.976-1.746-10.102
		c-1.413-2.115-7.466-17.134-7.466-17.134c-5.652-20.497-12.427-69.452-12.427-69.452"/>
	
		<path fill="none" stroke="#000000" stroke-width="1.7915" stroke-linecap="round" stroke-linejoin="round" stroke-miterlimit="10" d="
		M255.906,589.396c0,0,24.202,10.934,49.574-0.54"/>
	
		<path fill="none" stroke="#000000" stroke-width="4.095" stroke-linecap="round" stroke-linejoin="round" stroke-miterlimit="10" d="
		M348.726,277.735c0,0,6.894,14.005,20.874,16.005c0,0,5.329-3.997,11.321,4.658"/>
	
		<path fill="none" stroke="#000000" stroke-width="4.095" stroke-linecap="round" stroke-linejoin="round" stroke-miterlimit="10" d="
		M400.472,374.151c6.906,2.724,15.139-0.611,17.738-4.507"/>
	
		<path fill="none" stroke="#000000" stroke-width="1.7915" stroke-linecap="round" stroke-linejoin="round" stroke-miterlimit="10" d="
		M394.903,335.02c0,0-8.657,11.987-3.329,28.633c1.861,5.818,5.188,9.033,8.897,10.499"/>
	
		<path fill="none" stroke="#000000" stroke-width="4.095" stroke-linecap="round" stroke-linejoin="round" stroke-miterlimit="10" d="
		M374.263,358.991c0,0,0.666,13.982,7.986,25.968c0,0,7.991,3.993,19.977-9.324"/>
	
		<path fill="none" stroke="#000000" stroke-width="1.7915" stroke-linecap="round" stroke-linejoin="round" stroke-miterlimit="10" d="
		M383.717,321.537c2.427-0.836,5.284-1.354,8.521-1.164"/>
	
		<path fill="none" stroke="#000000" stroke-width="1.7915" stroke-linecap="round" stroke-linejoin="round" stroke-miterlimit="10" d="
		M377.59,350.113c0,0,3.997-8.438,13.316-9.766"/>
	<path fill="none" stroke="#000000" stroke-width="1.8718" stroke-linecap="round" stroke-linejoin="round" d="M411.102,353.772
		l18.867,34.733c0.09,1.27,0.432,2.521,1.092,3.653c0.397,0.676,0.993,1.142,1.665,1.417l0.103,0.19
		c0.01,1.447,0.366,2.869,1.111,4.146c0.416,0.71,1.052,1.19,1.762,1.46c-0.018,1.496,0.344,2.972,1.12,4.297
		c0.51,0.872,1.35,1.424,2.265,1.618l8.238,15.162c1.304,2.397,3.852,3.673,6.41,3.461c0.9-0.074,1.784-0.33,2.62-0.786
		c3.229-1.755,4.431-5.801,2.669-9.027l-8.102-14.916c0.93-1.088,1.151-2.662,0.39-3.968c-0.678-1.157-1.605-2.093-2.684-2.791
		c0.362-0.947,0.356-2.025-0.191-2.965c-0.679-1.154-1.608-2.094-2.691-2.792c0.365-0.947,0.361-2.023-0.19-2.965
		c-1.149-1.964-3.02-3.313-5.143-3.867l-18.235-33.563"/>
	<path fill="none" stroke="#000000" stroke-width="1.8718" stroke-linecap="round" stroke-linejoin="round" d="M407.374,319.025
		l-32.031-58.969c-1.75-3.229-5.801-4.421-9.028-2.668c-3.233,1.75-4.437,5.795-2.671,9.021l32.388,59.617"/>
	<path fill="none" stroke="#000000" stroke-width="1.7915" stroke-linecap="round" stroke-linejoin="round" d="M436.923,399.627
		c-1.18,0-2.337-0.611-2.983-1.714c-0.84-1.432-1.224-3.045-1.136-4.666"/>
	<path fill="none" stroke="#000000" stroke-width="1.7915" stroke-linecap="round" stroke-linejoin="round" d="M448.646,392.415
		c0.278,0.182,0.546,0.378,0.803,0.598"/>
	<path fill="none" stroke="#000000" stroke-width="1.7915" stroke-linecap="round" stroke-linejoin="round" d="M430.194,385.797
		c0.566-2.166,1.952-3.981,3.884-5.113c1.025-0.594,2.133-0.959,3.274-1.09c1.466-0.161,2.903,0.059,4.205,0.606"/>
	<path fill="none" stroke="#000000" stroke-width="1.7915" stroke-linecap="round" stroke-linejoin="round" d="M433.076,391.549
		c0.565-2.163,1.945-3.977,3.881-5.112c1.025-0.59,2.127-0.958,3.275-1.086c1.657-0.184,3.285,0.126,4.713,0.838"/>
	<path fill="none" stroke="#000000" stroke-width="1.7915" stroke-linecap="round" stroke-linejoin="round" d="M435.953,397.302
		c0.568-2.161,1.949-3.977,3.879-5.106c1.03-0.596,2.128-0.962,3.281-1.09c1.985-0.22,3.929,0.266,5.532,1.31"/>
	
		<path fill="none" stroke="#000000" stroke-width="1.7915" stroke-linecap="round" stroke-linejoin="round" stroke-miterlimit="10" d="
		M245.861,391.763c0,0,17.556-11.824,20.803-10.641c3.251,1.182,10.385,6.124,13.714,6.79c0,0,0,1.775-2.221,1.775
		c-2.216,0-11.619-4.274-11.619-4.274c3.101,5.769,10.207,11.541,10.207,11.541s1.334,1.775-1.332,1.775
		c-2.661,0-10.209-5.771-10.209-5.771"/>
	
		<path fill="none" stroke="#000000" stroke-width="1.7915" stroke-linecap="round" stroke-linejoin="round" stroke-miterlimit="10" d="
		M241.316,301.728c0,0,5.021,18.113,11.61,27.035"/>
	
		<path fill="none" stroke="#000000" stroke-width="1.7915" stroke-linecap="round" stroke-linejoin="round" stroke-miterlimit="10" d="
		M254.633,291.962c0,0,5.326,23.08,14.648,29.297"/>
	
		<path fill="none" stroke="#000000" stroke-width="1.7915" stroke-linecap="round" stroke-linejoin="round" stroke-miterlimit="10" d="
		M322.107,283.975c0,0-11.543,27.519-10.657,41.726c0.888,14.202,7.553,33.733,11.1,37.286c0,0,24.412-12.873,30.185-20.864
		c5.771-7.99-1.504-25.388-1.504-25.388s-6.931-21.221-6.042-32.318"/>
	
		<path fill="none" stroke="#000000" stroke-width="1.7915" stroke-linecap="round" stroke-linejoin="round" stroke-miterlimit="10" d="
		M307.014,278.204c0,0-18.195,21.748-31.072,23.523c0,0,16.87,7.992,19.531,8.88c2.661,0.886-7.103,7.544-7.103,7.544
		s23.968,18.646,27.077,31.074"/>
	
		<path fill="none" stroke="#000000" stroke-width="1.7915" stroke-linecap="round" stroke-linejoin="round" stroke-miterlimit="10" d="
		M361.815,293.102c0,0,11.222,26.046,23.051,31.429c0,0-18.449,2.833-21.257,2.923c-2.804,0.092,4.652,9.262,4.652,9.262
		s-28.299,11.016-34.831,22.034"/>
	
		<path fill="none" stroke="#000000" stroke-width="1.7915" stroke-linecap="round" stroke-linejoin="round" stroke-miterlimit="10" d="
		M297.992,399.755c0,0,0-2.215-0.444-3.547c-0.445-1.334-0.302-1.264-4.736-3.925c-4.441-2.663-9.026,1.403-9.026,1.403
		s2.664-0.89,0.89-4.885c-1.773-3.993-9.621-6.73-9.621-6.73s-2.224-2.219-4.441,0"/>
	
		<path fill="none" stroke="#000000" stroke-width="1.7915" stroke-linecap="round" stroke-linejoin="round" stroke-miterlimit="10" d="
		M327.059,402.047c0,0,5.772-1.33,10.657-4.439"/>
	
		<path fill="none" stroke="#000000" stroke-width="1.7915" stroke-linecap="round" stroke-linejoin="round" stroke-miterlimit="10" d="
		M329.4,415.159c0,0,9.689-2.169,15.294-6.391"/>
	
		<path fill="none" stroke="#000000" stroke-width="1.7915" stroke-linecap="round" stroke-linejoin="round" stroke-miterlimit="10" d="
		M330.932,400.683c1.531-2.129,4.029-3.517,6.854-3.519c4.656,0,8.436,3.774,8.436,8.436c0,4.659-3.779,8.434-8.436,8.434
		c-0.554-0.002-1.096-0.054-1.616-0.157"/>
	
		<path fill="none" stroke="#000000" stroke-width="1.7915" stroke-linecap="round" stroke-linejoin="round" stroke-miterlimit="10" d="
		M325.351,401.547c1.738-5.703,7.034-9.854,13.301-9.854c7.683,0,13.902,6.225,13.902,13.906c0,7.676-6.22,13.902-13.902,13.902
		c-3.247,0-6.232-1.115-8.6-2.981"/>
	
		<path fill="none" stroke="#000000" stroke-width="1.7915" stroke-linecap="round" stroke-linejoin="round" stroke-miterlimit="10" d="
		M271.942,401.161c0,0,5.329,3.103,7.992-0.444c0,0-2.936,0.484,1.646,6.591l6.822,3.11c0,0,2.077,2.036,5.826-2.035"/>
	
		<path fill="none" stroke="#000000" stroke-width="1.7915" stroke-linecap="round" stroke-linejoin="round" stroke-miterlimit="10" d="
		M315.451,418.918c-0.048,0-0.086-0.006-0.132-0.006c-0.401-0.018-9.957-0.516-18.77-4.692c-1.136-0.54-1.743-1.804-1.447-3.027
		l2.661-11.098c0.188-0.781,0.716-1.436,1.438-1.781c0.727-0.35,1.57-0.346,2.292-0.006c7.862,3.725,16.655,4.185,16.746,4.188
		c0.791,0.036,1.527,0.428,2.001,1.063c0.478,0.634,0.646,1.447,0.462,2.217l-2.665,11.1
		C317.749,418.074,316.675,418.918,315.451,418.918z M300.801,410.269c4.899,1.972,9.85,2.793,12.595,3.119l1.414-5.881
		c-3.001-0.39-7.746-1.247-12.601-3.104L300.801,410.269z"/>
	
		<path fill="none" stroke="#000000" stroke-width="1.7915" stroke-linecap="round" stroke-linejoin="round" stroke-miterlimit="10" d="
		M322.55,402.047l1.332,12.431c0,0,1.327,4.44,4.44,3.105c3.105-1.332,0-14.203,0-14.203S325.661,399.831,322.55,402.047z"/>
	
		<path fill="none" stroke="#000000" stroke-width="1.7915" stroke-linecap="round" stroke-linejoin="round" stroke-miterlimit="10" d="
		M318.108,415.812c0,0,3.105,0.886,6.217,0"/>
	
		<path fill="none" stroke="#000000" stroke-width="4.095" stroke-linecap="round" stroke-linejoin="round" stroke-miterlimit="10" d="
		M339.417,386.068c0,0,12.428-3.105,14.205-1.329c1.777,1.771,1.777,9.317,3.553,9.317c1.771,0,1.33,3.107,0,3.107
		c-1.331,0-3.111,0-3.111,0l6.66,12.874c0,0,1.774,3.107,0,4.439c0,0-1.331,1.329-3.998,2.218"/>
	
		<path fill="none" stroke="#000000" stroke-width="1.7915" stroke-linecap="round" stroke-linejoin="round" stroke-miterlimit="10" d="
		M353.178,410.036c0,1.229-0.697,2.224-1.556,2.224c-0.857,0-1.556-0.995-1.556-2.224c0-1.226,0.698-2.217,1.556-2.217
		C352.48,407.819,353.178,408.811,353.178,410.036z"/>
	
		<path fill="none" stroke="#000000" stroke-width="1.7915" stroke-linecap="round" stroke-linejoin="round" stroke-miterlimit="10" d="
		M353.646,414.302c0.838,0.899,1.008,2.102,0.38,2.685c-0.625,0.586-1.813,0.338-2.646-0.56c-0.838-0.897-1.013-2.096-0.385-2.682
		C351.622,413.158,352.811,413.409,353.646,414.302z"/>
	
		<path fill="none" stroke="#000000" stroke-width="1.7915" stroke-linecap="round" stroke-linejoin="round" stroke-miterlimit="10" d="
		M355.789,417.417c1.12,0.502,1.735,1.547,1.386,2.329c-0.355,0.779-1.546,1.004-2.661,0.502c-1.122-0.506-1.741-1.546-1.388-2.329
		C353.479,417.137,354.674,416.909,355.789,417.417z"/>
	
		<path fill="none" stroke="#000000" stroke-width="1.7915" stroke-linecap="round" stroke-linejoin="round" stroke-miterlimit="10" d="
		M361.542,420.676c0.834,0.897,0.989,2.104,0.355,2.684c-0.632,0.577-1.817,0.315-2.647-0.586c-0.827-0.906-0.983-2.107-0.355-2.686
		C359.528,419.508,360.714,419.766,361.542,420.676z"/>
	
		<line fill="none" stroke="#000000" stroke-width="1.7915" stroke-linecap="round" stroke-linejoin="round" stroke-miterlimit="10" x1="328.767" y1="362.542" x2="342.083" y2="363.874"/>
	
		<line fill="none" stroke="#000000" stroke-width="1.7915" stroke-linecap="round" stroke-linejoin="round" stroke-miterlimit="10" x1="300.354" y1="354.994" x2="318.108" y2="359.434"/>
	
		<path fill="none" stroke="#000000" stroke-width="1.7915" stroke-linecap="round" stroke-linejoin="round" stroke-miterlimit="10" d="
		M310.119,366.983c2.219,0,23.97,1.327,23.97,1.327"/>
	
		<path fill="none" stroke="#000000" stroke-width="1.7915" stroke-linecap="round" stroke-linejoin="round" stroke-miterlimit="10" d="
		M317.223,370.53c0,0,10.21,2.22,12.871,2.22"/>
	
		<path fill="none" stroke="#000000" stroke-width="1.7915" stroke-linecap="round" stroke-linejoin="round" stroke-miterlimit="10" d="
		M321.664,374.97c0,0-2.661,10.209-11.545,19.975"/>
	
		<path fill="none" stroke="#000000" stroke-width="1.7915" stroke-linecap="round" stroke-linejoin="round" stroke-miterlimit="10" d="
		M277.715,434.452c0,0,12.425,14.648,46.61,16.424"/>
	
		<path fill="none" stroke="#000000" stroke-width="1.7915" stroke-linecap="round" stroke-linejoin="round" stroke-miterlimit="10" d="
		M324.77,458.42c0,0-30.188-3.106-45.725-8.432"/>
	
		<path fill="none" stroke="#000000" stroke-width="1.7915" stroke-linecap="round" stroke-linejoin="round" stroke-miterlimit="10" d="
		M328.322,472.183c0,0-47.498,5.771-60.369,4.438"/>
	
		<path fill="none" stroke="#000000" stroke-width="1.7915" stroke-linecap="round" stroke-linejoin="round" stroke-miterlimit="10" d="
		M262.625,479.285c0,0,57.707,11.093,65.253,10.649"/>
	
		<path fill="none" stroke="#000000" stroke-width="1.7915" stroke-linecap="round" stroke-linejoin="round" stroke-miterlimit="10" d="
		M331.428,433.566c-1.334,0.442-3.105,7.544-14.65,10.649"/>
	
		<path fill="none" stroke="#000000" stroke-width="1.7915" stroke-linecap="round" stroke-linejoin="round" stroke-miterlimit="10" d="
		M240.872,393.614c0,0-4.44,4.438-4.885,6.659"/>
	
		<path fill="none" stroke="#000000" stroke-width="1.8718" stroke-linecap="round" stroke-linejoin="round" stroke-miterlimit="10" d="
		M412.633,357.058c-1.382,0.23-2.589,0.264-3.451,0.017c-4.662-1.332-6.956-6.738-8.949-10.733c-2-3.997-3.333-7.99-5.329-11.321
		c-1.997-3.329,0-6.658,0-8.654c0-1.999,5.329-1.333,5.329-1.333l1.329-3.995c0,0,2.662-1.998,5.327-1.998
		c2.661,0,11.321,0.668,11.321,0.668s2.629,4.573,2.629,6.673c0,0,3.207,2.097,2.674,4.725c0,0,2.319,2.1,2.137,4.721
		c0,0,1.605,1.577,1.605,4.201c0,2.625-1.837,6.3-1.837,6.3c0,0.57-0.082,1.38-1.397,2.231"/>
	
		<path fill="none" stroke="#000000" stroke-width="1.7915" stroke-linecap="round" stroke-linejoin="round" stroke-miterlimit="10" d="
		M400.232,325.032c0,0,0.89,3.331,2.217,4.219c1.334,0.886,0,3.547,0,3.547s-4.578,1.71-6.356-2.287"/>
	
		<path fill="none" stroke="#000000" stroke-width="1.7915" stroke-linecap="round" stroke-linejoin="round" stroke-miterlimit="10" d="
		M411.325,349.204c0,0,0.888-3.088,4.883-3.529c3.997-0.444,6.412,0.126,6.412,0.126"/>
	
		<path fill="none" stroke="#000000" stroke-width="1.7915" stroke-linecap="round" stroke-linejoin="round" stroke-miterlimit="10" d="
		M400.676,334.132c0,0-0.443,2.222,0.886,3.551l0.888,0.444c0,0-0.888,3.995,1.774,5.328c0,0,1.335,6.213,3.557,7.544"/>
	
		<path fill="none" stroke="#000000" stroke-width="1.7915" stroke-linecap="round" stroke-linejoin="round" stroke-miterlimit="10" d="
		M402.449,329.251l0.888-3.551c0,0,1.336-2.15,4.443-1.708l8.428,0.374"/>
	
		<path fill="none" stroke="#000000" stroke-width="1.7915" stroke-linecap="round" stroke-linejoin="round" stroke-miterlimit="10" d="
		M404.229,335.463l0.884-3.551c0,0,1.335-2.149,4.438-1.705l8.432,0.375"/>
	
		<path fill="none" stroke="#000000" stroke-width="1.7915" stroke-linecap="round" stroke-linejoin="round" stroke-miterlimit="10" d="
		M406.003,341.68l0.888-3.551c0,0,1.336-2.149,4.44-1.706l8.433,0.374"/>
	<path d="M325.655,273.765c0,0,2.219,4.881,10.207,4.881c7.992,0,18.201-11.987,18.201-13.759c0-1.777-12.868,9.764-27.963,6.658
		L325.655,273.765z"/>
	
		<path fill="none" stroke="#000000" stroke-width="1.7915" stroke-linecap="round" stroke-linejoin="round" stroke-miterlimit="10" d="
		M272.387,416.251c0,0,3.997,9.325,11.318,15.984"/>
	
		<path fill="none" stroke="#000000" stroke-width="1.7915" stroke-linecap="round" stroke-linejoin="round" stroke-miterlimit="10" d="
		M294.36,460.198c0,0-21.307-2.664-27.965-2.664"/>
	
		<path fill="none" stroke="#000000" stroke-width="1.7915" stroke-linecap="round" stroke-linejoin="round" stroke-miterlimit="10" d="
		M285.703,276.426c0,0,0,9.322,4.661,9.99c0,0-14.646,9.319-17.978,8.653c-3.327-0.666-7.614-2.289-7.614-5.618"/>
	
		<path fill="none" stroke="#000000" stroke-width="1.7915" stroke-linecap="round" stroke-linejoin="round" stroke-miterlimit="10" d="
		M345.7,298.066c0,0-6.133,11.313-13.123,13.201c0,0-11.197-11.871-11.837-25.072"/>
	
		<path fill="none" stroke="#000000" stroke-width="1.7915" stroke-linecap="round" stroke-linejoin="round" stroke-miterlimit="10" d="
		M331.218,314.582c0,1.766,0.894,3.197,2.001,3.197c1.108,0,2.01-1.432,2.01-3.197c0-1.765-0.901-3.198-2.01-3.198
		C332.111,311.384,331.218,312.817,331.218,314.582z"/>
	
		<path fill="none" stroke="#000000" stroke-width="1.7915" stroke-linecap="round" stroke-linejoin="round" stroke-miterlimit="10" d="
		M294.083,565.354c0,0-0.706,7.068-2.827,13.435"/>
	
		<path fill="none" stroke="#000000" stroke-width="1.7915" stroke-linecap="round" stroke-linejoin="round" stroke-miterlimit="10" d="
		M275.182,567.349c0,0,1.172,7.106,2.592,11.352"/>
	
		<path fill="none" stroke="#000000" stroke-width="1.7915" stroke-linecap="round" stroke-linejoin="round" stroke-miterlimit="10" d="
		M331.554,562.528c0,0,3.535,6.364,3.535,10.605"/>
	
		<path fill="none" stroke="#000000" stroke-width="1.7915" stroke-linecap="round" stroke-linejoin="round" stroke-miterlimit="10" d="
		M363.867,574.407c0,0-14.063,15.958-49.35,18.304"/>
	
		<path fill="none" stroke="#000000" stroke-width="1.7915" stroke-linecap="round" stroke-linejoin="round" stroke-miterlimit="10" d="
		M353.226,572.048c0,0,3.781,4.621,3.781,6.74"/>
	
		<line fill="none" stroke="#000000" stroke-width="1.7915" stroke-linecap="round" stroke-linejoin="round" stroke-miterlimit="10" x1="318.829" y1="581.615" x2="321.654" y2="592.931"/>
	
		<path fill="none" stroke="#000000" stroke-width="1.7915" stroke-linecap="round" stroke-linejoin="round" stroke-miterlimit="10" d="
		M353.622,418.918c0,0-5.327,3.105-8.437,1.33"/>
	
		<path fill="none" stroke="#000000" stroke-width="1.7915" stroke-linecap="round" stroke-linejoin="round" stroke-miterlimit="10" d="
		M389.575,354.994c0,1.334-4.881,7.103-5.327,9.322"/>
	
		<path fill="none" stroke="#000000" stroke-width="1.7915" stroke-linecap="round" stroke-linejoin="round" stroke-miterlimit="10" d="
		M416.208,346.118c-0.966,0.196-1.701-0.882-2.222-1.331"/>
	
		<path fill="none" stroke="#000000" stroke-width="1.7915" stroke-linecap="round" stroke-linejoin="round" stroke-miterlimit="10" d="
		M412.657,344.787c0.21,1.451,1.793,0.83,1.775,2.22"/>
	
		<path fill="none" stroke="#000000" stroke-width="1.7915" stroke-linecap="round" stroke-linejoin="round" stroke-miterlimit="10" d="
		M410.882,353.665c-1.806-1.308-3.514-1.928-3.993-4.439"/>
	
		<path fill="none" stroke="#000000" stroke-width="1.0237" stroke-linecap="round" stroke-linejoin="round" stroke-miterlimit="10" d="
		M238.648,394.057c0,0-4.435-7.099-5.767-9.317c-1.335-2.222-1.775-4.441-1.775-6.659c0-2.219-2.661-5.328-2.661-5.328l-0.89-3.107
		c0,0-2.667-0.441-2.667-2.222c0-1.773,1.777-0.439,0-1.773"/>
	
		<path fill="none" stroke="#000000" stroke-width="1.0237" stroke-linecap="round" stroke-linejoin="round" stroke-miterlimit="10" d="
		M412.213,358.546c0,1.331-2.663,3.996-2.663,6.66c0,2.663,0.446,3.993-0.886,4.438c-1.33,0.444-1.775,2.663-1.775,2.663
		l-0.886,1.332"/>
	
		<polygon fill="none" stroke="#000000" stroke-width="1.7915" stroke-linecap="round" stroke-linejoin="round" stroke-miterlimit="10" points="
		358.755,319.587 371.184,320.473 371.172,316.036 358.742,315.148 	"/>
	
		<path fill="none" stroke="#000000" stroke-width="1.7915" stroke-linecap="round" stroke-linejoin="round" stroke-miterlimit="10" d="
		M447.282,398.497c0,0-3.107-0.89-6.658,3.997"/>
	
		<path fill="none" stroke="#000000" stroke-width="1.7915" stroke-linecap="round" stroke-linejoin="round" stroke-miterlimit="10" d="
		M312.338,242.245c0,0-1.331-1.33-2.661-3.105"/>
	
		<path fill="none" stroke="#000000" stroke-width="4.095" stroke-linecap="round" stroke-linejoin="round" stroke-miterlimit="10" d="
		M345.878,420.116c1.483,3.927,3.117,8.577,4.575,13.536"/>
	
		<path fill="none" stroke="#000000" stroke-width="1.7915" stroke-linecap="round" stroke-linejoin="round" stroke-miterlimit="10" d="
		M303.979,686.219c0,0-11.855,6.241-14.975,10.607"/>
	
		<path fill="none" stroke="#000000" stroke-width="1.7915" stroke-linecap="round" stroke-linejoin="round" stroke-miterlimit="10" d="
		M278.457,711.303c2.436,1.122,13.666,2.369,16.785,6.114c3.122,3.743-3.119,2.495-5.614,3.119"/>
	
		<path fill="none" stroke="#000000" stroke-width="1.7915" stroke-linecap="round" stroke-linejoin="round" stroke-miterlimit="10" d="
		M288.38,738.006c0,0,9.36-5.614,16.846-3.743c7.488,1.872-7.485,3.743-16.222,9.36"/>
	
		<path fill="none" stroke="#000000" stroke-width="1.7915" stroke-linecap="round" stroke-linejoin="round" stroke-miterlimit="10" d="
		M353.256,713.21c0,0,3.134-0.785,8.75-1.409c5.614-0.624-0.624,0.624-3.745,3.119"/>
	
		<path fill="none" stroke="#000000" stroke-width="1.7915" stroke-linecap="round" stroke-linejoin="round" stroke-miterlimit="10" d="
		M381.347,695.579c0,0,0.624,1.247-6.238,4.99c-6.864,3.745,4.367,1.872,4.367,1.872h3.743"/>
	
		<path fill="none" stroke="#000000" stroke-width="1.7915" stroke-linecap="round" stroke-linejoin="round" stroke-miterlimit="10" d="
		M355.142,752.356c3.119-0.624,11.854-4.991,14.975-4.991"/>
	
		<path fill="none" stroke="#000000" stroke-width="1.7915" stroke-linecap="round" stroke-linejoin="round" stroke-miterlimit="10" d="
		M348.279,586.388c0,0,13.103,92.343,19.341,110.438c0,0,0,1.872,2.496,2.495c2.497,0.624,1.873,1.872,0.623,4.367
		c-1.247,2.497-7.485,4.993-0.623,4.993c6.864,0,6.864,0,6.864,0s-1.872,0.624-0.624,6.238c1.247,5.616,0,3.745,1.247,5.616
		c1.248,1.872,0.349,4.567,0.349,4.567"/>
	
		<path fill="none" stroke="#000000" stroke-width="1.7915" stroke-linecap="round" stroke-linejoin="round" stroke-miterlimit="10" d="
		M354.518,763.588c3.743,0,15.599-2.496,19.343-13.103c3.743-10.607,4.092-22.887,8.46-24.135c0,0,0.926-0.945,1.398,2.647"/>
	
		<path fill="none" stroke="#000000" stroke-width="1.7915" stroke-linecap="round" stroke-linejoin="round" stroke-miterlimit="10" d="
		M290.252,764.835c0,0,3.743,1.25,13.727-0.623c9.983-1.872,11.854-3.743,13.103-9.358"/>
	
		<path fill="none" stroke="#000000" stroke-width="1.7915" stroke-linecap="round" stroke-linejoin="round" stroke-miterlimit="10" d="
		M263.423,593.252c0,0,5.614,80.488,12.479,102.327"/>
	
		<path fill="none" stroke="#000000" stroke-width="1.7915" stroke-linecap="round" stroke-linejoin="round" stroke-miterlimit="10" d="
		M257.806,402.326c0,0-20.589,11.646-7.288,78.614"/>
	
		<path fill="none" stroke="#000000" stroke-width="1.7915" stroke-linecap="round" stroke-linejoin="round" stroke-miterlimit="10" d="
		M280.378,387.912c0,0,4.883-2.434,9.874-1.81"/>
	
		<path fill="none" stroke="#000000" stroke-width="1.7915" stroke-linecap="round" stroke-linejoin="round" stroke-miterlimit="10" d="
		M291.499,359.273c0,0,0.624,18.171,2.496,23.786"/>
	
		<path fill="none" stroke="#000000" stroke-width="1.7915" stroke-linecap="round" stroke-linejoin="round" stroke-miterlimit="10" d="
		M362.955,431.893c1.3-0.55,2.728-0.852,4.228-0.852c5.99,0,10.835,4.855,10.835,10.846c0,3.977-2.138,7.454-5.324,9.34"/>
	<path d="M299.882,102.55c2.197-4.723,12.771-6.17,16.797-14.83c4.037-8.658-5.956-11.501-7.332-16.65
		c-1.379-5.145,7.045-6.017,7.045-6.017l-2.926-10.937l-52.755,14.106l2.924,10.935c0,0,7.731-3.445,9.111,1.702
		c1.374,5.145-5.86,12.593,1.949,18.085c7.814,5.493,17.698,1.472,21.959,4.469L299.882,102.55z"/>
	
		<path fill="none" stroke="#000000" stroke-width="4.095" stroke-linecap="round" stroke-linejoin="round" stroke-miterlimit="10" d="
		M396.571,121.491c4.438-0.052,3.555-5.437,3.555-5.437c5.119-8.262,31.928-29.103,31.928-29.103l-1.371-5.145l-3.35-2.549
		c-16.256-5.993-31.08-36.489-31.08-36.489c-21.719,0.983-64.5-14.462-64.5-14.462c-10.839,3.737-30.462,10.025-37.097,11.559
		l-13.274,3.549c-6.514,1.986-26.661,6.331-37.918,8.504c0,0-29.363,34.733-48.676,44.723c0,0,2.379,33.824-8.718,47.128
		l-1.628,3.883l1.374,5.149c0,0,28.633-0.078,37.196,4.527l8.094,1.912l3.331,1.998h3.327"/>
	
		<path fill="none" stroke="#000000" stroke-width="4.095" stroke-linecap="round" stroke-linejoin="round" stroke-miterlimit="10" d="
		M390.404,112.641c0,0-3.791,20.205-67.816,38.575l-10.323,2.631c-65.016,14.5-78.005-1.432-78.005-1.432"/>
	
		<path fill="none" stroke="#000000" stroke-width="1.7915" stroke-linecap="round" stroke-linejoin="round" stroke-miterlimit="10" d="
		M390.391,109.898c0,0-21.683-9.596-82.167,6.502c-60.819,14.802-75.268,33.6-75.268,33.6"/>
	
		<path fill="none" stroke="#000000" stroke-width="1.7915" stroke-linecap="round" stroke-linejoin="round" stroke-miterlimit="10" d="
		M388.489,103.934c0,0-23.92-9.016-85.295,3.249l-1.293,0.33c-59.762,18.593-70.129,36.341-70.129,36.341"/>
	
		<ellipse transform="matrix(0.9691 -0.2468 0.2468 0.9691 -29.3693 61.0012)" fill="none" stroke="#000000" stroke-width="1.7915" stroke-linecap="round" stroke-linejoin="round" stroke-miterlimit="10" cx="228.661" cy="147.661" rx="3.662" ry="5.991"/>
	
		<path fill="none" stroke="#000000" stroke-width="1.7915" stroke-linecap="round" stroke-linejoin="round" stroke-miterlimit="10" d="
		M390.937,106.323c0.817,3.208,3.065,5.403,5.024,4.903c1.966-0.5,2.892-3.505,2.071-6.71c-0.813-3.209-3.064-5.402-5.028-4.902
		C391.042,100.112,390.119,103.118,390.937,106.323z"/>
	
		<path fill="none" stroke="#000000" stroke-width="1.7915" stroke-linecap="round" stroke-linejoin="round" stroke-miterlimit="10" d="
		M262.467,120.585c0,0-11.109,2.279-19.733-1.614c-8.621-3.897-16.556-5.223-17.581,1.256c-1.023,6.474,7.336,4.239,13.001,4.792
		c5.66,0.554,13.204-2.155,12.137,1.578c-1.072,3.733-7.847,4.167-9.26,6.614"/>
	
		<path fill="none" stroke="#000000" stroke-width="1.7915" stroke-linecap="round" stroke-linejoin="round" stroke-miterlimit="10" d="
		M230.183,141.622c0,0-8.5-5.997-16.817-1.016c-8.312,4.984,0.048,2.745,0.048,2.745"/>
	
		<path fill="none" stroke="#000000" stroke-width="1.7915" stroke-linecap="round" stroke-linejoin="round" stroke-miterlimit="10" d="
		M355.094,95.815c1.928-0.512,12.221-3.267,15.52-8.972c3.296-5.708,14.835-11.549,17.622-8.85
		c2.787,2.701,0.604,7.422-7.584,10.299c-8.192,2.881-13.293,7.002-15.055,8.16"/>
	
		<path fill="none" stroke="#000000" stroke-width="1.7915" stroke-linecap="round" stroke-linejoin="round" stroke-miterlimit="10" d="
		M388.249,98.669c0,0,8.532-1.594,16.16-9.148c7.634-7.554,6.135-0.26,1.678,3.689c-4.459,3.949-10.548,6.955-7.975,6.265"/>
	
		<path fill="#FFE800" stroke="#000000" stroke-width="1.7915" stroke-linecap="round" stroke-linejoin="round" stroke-miterlimit="10" d="
		M300.781,99.856c2.197-4.725,12.771-6.172,16.798-14.832c4.033-8.658-5.957-11.501-7.332-16.65
		c-1.38-5.145,7.044-6.015,7.044-6.015l-2.928-10.937l-52.754,14.106l2.925,10.935c0,0,7.73-3.445,9.109,1.702
		c1.374,5.143-5.858,12.593,1.95,18.085c7.813,5.493,17.699,1.47,21.96,4.467L300.781,99.856z"/>
	
		<path fill="none" stroke="#000000" stroke-width="1.8718" stroke-linecap="round" stroke-linejoin="round" stroke-miterlimit="44" d="
		M243.111,200.311c31.005-17.939,45.061-18.405,69.101-38.894c0,0-9.481,16.29-20.068,26.416c0,0,32.871-16.62,54.71-44.171"/>
	
		<path fill="none" stroke="#000000" stroke-width="4.095" stroke-linecap="round" stroke-linejoin="round" stroke-miterlimit="44" d="
		M211.012,221.382c12.585-9.128,23.063-15.842,32.1-21.071"/>
	
		<path fill="none" stroke="#000000" stroke-width="4.095" stroke-linecap="round" stroke-linejoin="round" stroke-miterlimit="44" d="
		M212.883,209.527c-41.805,29.95-50.179,68.992-50.179,68.992c0.002,0.128,5.244-23.024,41.447-53.488"/>
	
		<path fill="none" stroke="#000000" stroke-width="4.095" stroke-linecap="round" stroke-linejoin="round" stroke-miterlimit="44" d="
		M235.128,204.534c-3.443,17.027-11.921,42.489-31.433,67.665c-30.512,39.378-48.208,53.507-48.208,53.507
		s38.053-21.963,63.937-58.237c0,0-11.934,95.149-107.541,129.809c0,0,34.266-3.99,61.626-26.075c0,0-19.9,51.089,9.386,89.065
		c0,0-19.463-36.375,13.871-56.55c0,0-7.593,17.95-3.785,36.799c0,0,1.184-34.449,36.749-50.669"/>
	
		<path fill="none" stroke="#000000" stroke-width="1.7915" stroke-linecap="round" stroke-linejoin="round" stroke-miterlimit="10" d="
		M237.228,185.327c0.071,1.082-2.342,7.906-2.506,10.265"/>
	
		<path fill="none" stroke="#000000" stroke-width="4.095" stroke-linecap="round" stroke-linejoin="round" stroke-miterlimit="44" d="
		M237.105,157.878c0,0-0.45-3.091-0.305-2.217c0.674,4.021-2.793,20.305-17.679,42.635c-2.67,4.005-5.02,8.52-7.091,11.805"/>
	
		<path fill="none" stroke="#000000" stroke-width="1.7915" stroke-linecap="round" stroke-linejoin="round" stroke-miterlimit="10" d="
		M370.693,130.949c0,0,46.822,45.557,18.107,112.65"/>
	
		<path fill="none" stroke="#000000" stroke-width="4.095" stroke-linecap="round" stroke-linejoin="round" stroke-miterlimit="44" d="
		M392.124,111.226c9.592,22.712,44.539,59.497,35.228,121.867c-11.144,74.63,11.497,116.083,11.497,116.083
		s11.317,22.465,29.295,17.808c0,0-22.805,12.257-39.519-8.66"/>
	
		<path fill="none" stroke="#000000" stroke-width="1.7915" stroke-linecap="round" stroke-linejoin="round" stroke-miterlimit="10" d="
		M311.396,175.359c0.162,0.304,8.408,17.855-9.036,33.399c-6.298,5.609-13.414,9.54-20.586,11.365
		c-9.344,2.378-18.418,1.212-25.554-3.279c-6.433-4.055-10.756-10.617-12.201-18.509 M302.438,167.963
		c1.57,0.646,3.075,1.452,4.453,2.451 M304.145,173.464c-1.569-1.094-3.379-1.894-5.265-2.469 M248.03,197.13
		c1.186,7.092,4.807,12.729,10.481,16.306c6.152,3.877,14.061,4.863,22.261,2.771c6.512-1.657,13.019-5.261,18.809-10.421
		c15.175-13.519,8.204-28.371,8.128-28.519"/>
	
		<path fill="none" stroke="#000000" stroke-width="1.7915" stroke-linecap="round" stroke-linejoin="round" stroke-miterlimit="10" d="
		M343.584,149.978c1.74-0.628,4.411-1.516,7.629-2.335c20.679-5.267,34.653-0.712,39.352,12.837
		c2.693,7.776,2.09,15.796-1.695,22.574c-4.119,7.36-11.525,12.727-20.871,15.106c-7.172,1.828-15.304,1.784-23.512-0.132
		c-22.761-5.303-23.914-24.66-23.92-25.002c0.04-1.277,0.229-2.505,0.546-3.679 M342.927,154.559
		c-0.176,0.068-17.876,6.977-18.212,18.377c0.011,0.162,0.992,16.538,20.789,21.151c7.552,1.761,14.986,1.815,21.499,0.158
		c8.197-2.091,14.672-6.738,18.219-13.086c3.277-5.854,3.76-12.539,1.406-19.335c-5.017-14.452-21.483-13.559-34.418-10.267
		C346.848,152.925,343.028,154.515,342.927,154.559z"/>
	
		<path fill="none" stroke="#000000" stroke-width="1.7915" stroke-linecap="round" stroke-linejoin="round" stroke-miterlimit="10" d="
		M306.229,235.933c0,0,3.671,1.813,6.362,1.587"/>
	
		<path fill="none" stroke="#000000" stroke-width="1.7915" stroke-linecap="round" stroke-linejoin="round" stroke-miterlimit="10" d="
		M321.196,237.536c0,0,2.797-1.308,4.159-0.788c1.357,0.528,5.042,0.815,5.042,0.815l4.241-3.155"/>
	
		<path fill="none" stroke="#000000" stroke-width="1.7915" stroke-linecap="round" stroke-linejoin="round" stroke-miterlimit="10" d="
		M336.576,232.887c0,0,4.873-2.409,6.204-3.283"/>
	
		<path fill="none" stroke="#000000" stroke-width="1.7915" stroke-linecap="round" stroke-linejoin="round" stroke-miterlimit="10" d="
		M347.422,226.813c0,0,6.018-3.367,6.852-9.073"/>
	
		<path fill="none" stroke="#000000" stroke-width="1.7915" stroke-linecap="round" stroke-linejoin="round" stroke-miterlimit="10" d="
		M308.961,235.349l5.059-0.984c0,0,0.79-3.952,4.359-5.021c3.569-1.067,7.876-1.294,7.876-1.294"/>
	
		<path fill="none" stroke="#000000" stroke-width="1.7915" stroke-linecap="round" stroke-linejoin="round" stroke-miterlimit="10" d="
		M328.937,227.248c0,0,6.126-3.954,10.433-4.185c4.308-0.224,6.075,0.84,6.075,0.84s4.765-1.962,6.592-5.692"/>
	
		<path fill="none" stroke="#000000" stroke-width="1.7915" stroke-linecap="round" stroke-linejoin="round" stroke-miterlimit="10" d="
		M312.313,243.618c0,0,6.183,6.7,14.384,6.797c1.714,0.018,8.563-1.724,8.563-1.724s6.848-1.472,10.461-4.499
		c6.937-5.814,11.222-15.61,9.032-19.174"/>
	
		<path fill="none" stroke="#000000" stroke-width="1.7915" stroke-linecap="round" stroke-linejoin="round" stroke-miterlimit="10" d="
		M350.61,217.755c2.189-0.536,2.88-1.204,4.371-2.8c0.184,1.116,0.521,2.214,0.8,3.315"/>
	
		<path fill="none" stroke="#000000" stroke-width="1.7915" stroke-linecap="round" stroke-linejoin="round" stroke-miterlimit="10" d="
		M306.439,234.961c0.356-0.089,0.366-0.103,0.024-0.036c-0.506,0.346-0.462,0.863-0.126,1.438"/>
	
		<path fill="none" stroke="#000000" stroke-width="1.7915" stroke-linecap="round" stroke-linejoin="round" stroke-miterlimit="10" d="
		M321.731,235.648c0.378,0.224,0.704,0.418,1.078,0.642"/>
	<path d="M273.185,240.429c-19.439-7.642-25.015-26.081-25.242-26.863l2.396-0.701c0.052,0.182,6.389,19.856,24.66,27.037
		L273.185,240.429z"/>
	
		<path fill="none" stroke="#000000" stroke-width="1.7915" stroke-linecap="round" stroke-linejoin="round" stroke-miterlimit="10" d="
		M397.629,189.494c-0.946,6.224-3.403,13.668-9.14,20.517"/>
	<path d="M317.677,216.14c0,0-1.941-2.254-2.257,0.117C315.105,218.627,315.966,218.411,317.677,216.14z"/>
	<path d="M325.931,212.816c0,0-0.514-2.032,1.562-0.756C329.574,213.334,327.774,214.874,325.931,212.816z"/>
	
		<path fill="none" stroke="#000000" stroke-width="1.7915" stroke-linecap="round" stroke-linejoin="round" stroke-miterlimit="10" d="
		M316.257,214.955c0,0,0.444,0.664,2.826,2.806"/>
	
		<path fill="none" stroke="#000000" stroke-width="1.0237" stroke-linecap="round" stroke-linejoin="round" stroke-miterlimit="10" d="
		M314.991,210.225c0.65-1.163,0.454-0.823,2.277-3.973"/>
	<path d="M316.575,258.563c0.242,0.948-0.234,1.894-1.067,2.102c-0.834,0.214-1.702-0.382-1.946-1.334
		c-0.239-0.951,0.234-1.892,1.07-2.105C315.464,257.013,316.331,257.615,316.575,258.563z"/>
	
		<path fill="none" stroke="#000000" stroke-width="1.7915" stroke-linecap="round" stroke-linejoin="round" stroke-miterlimit="10" d="
		M313.024,183.494c0,0,3.247-5.719,9.715-2.697"/>
	<path fill="#FFFFFF" d="M361.2,153.219c0,0-5.683,1.065-7.5,4.73c-1.813,3.669,4.536,3.425,10.667,2.322
		c6.135-1.104,9.306,0.552,11.981,1.439c4.469,1.488,4.96-3.889,0.31-6.077C372.016,153.443,365.179,152.661,361.2,153.219z"/>
	<path d="M321.81,250.356c0,0,3.689,5.473,15.944,1.436c12.253-4.035,12.543-11.896,12.543-11.896s-3.43,5.303-15.038,8.796
		c-11.609,3.491-13.667,0.806-16.685-0.258L321.81,250.356z"/>
	
		<path fill="none" stroke="#000000" stroke-width="1.7915" stroke-linecap="round" stroke-linejoin="round" stroke-miterlimit="10" d="
		M390.906,251.79c0,0-3.327,27.3,3.331,43.945"/>
	
		<path fill="none" stroke="#000000" stroke-width="4.095" stroke-linecap="round" stroke-linejoin="round" stroke-miterlimit="44" d="
		M285.703,366.315c0,0-0.285,3.771-21.271,11.449c0,0,4.089-2.909,10.749-16.892c0,0-16.774,5.442-24.765,14.762"/>
	
		<path fill="none" stroke="#000000" stroke-width="1.0237" stroke-linecap="round" stroke-linejoin="round" stroke-miterlimit="10" d="
		M322.548,205.406c0.33,0.768,1.065,1.304,1.777,1.776"/>
	
		<path fill="none" stroke="#000000" stroke-width="1.7915" stroke-linecap="round" stroke-linejoin="round" stroke-miterlimit="10" d="
		M406.889,229.817c0,0-13.314,59.26,5.992,87.227"/>
	
		<path fill="none" stroke="#000000" stroke-width="1.7915" stroke-linecap="round" stroke-linejoin="round" stroke-miterlimit="10" d="
		M404.224,216.501c0,0,13.986-49.937-20.642-95.216"/>
	
		<path fill="none" stroke="#000000" stroke-width="1.7915" stroke-linecap="round" stroke-linejoin="round" stroke-miterlimit="10" d="
		M229.109,270.436c0,0-2.665,23.968-13.979,36.623"/>
	
		<path fill="none" stroke="#000000" stroke-width="1.7915" stroke-linecap="round" stroke-linejoin="round" stroke-miterlimit="10" d="
		M202.476,345.007c-3.329,3.329-27.297,33.292-22.638,68.583"/>
	
		<path fill="none" stroke="#000000" stroke-width="1.0237" stroke-linecap="round" stroke-linejoin="round" stroke-miterlimit="10" d="
		M308.346,155.245c0,0-5.327,14.65-52.604,32.626"/>
	
		<path fill="none" stroke="#000000" stroke-width="1.0237" stroke-linecap="round" stroke-linejoin="round" stroke-miterlimit="10" d="
		M335.645,148.586c0,0-5.997,9.319-25.968,23.97"/>
	
		<path fill="none" stroke="#000000" stroke-width="1.0237" stroke-linecap="round" stroke-linejoin="round" stroke-miterlimit="10" d="
		M393.574,157.242c0,0-9.326-21.307-17.983-28.631"/>
	
		<path fill="none" stroke="#000000" stroke-width="1.0237" stroke-linecap="round" stroke-linejoin="round" stroke-miterlimit="10" d="
		M380.255,125.946c0,0,8.652,12.651,10.651,17.981"/>
	
		<path fill="none" stroke="#000000" stroke-width="1.0237" stroke-linecap="round" stroke-linejoin="round" stroke-miterlimit="10" d="
		M251.08,159.905c0,0-2.662,15.314-7.986,23.306"/>
	
		<path fill="none" stroke="#000000" stroke-width="1.0237" stroke-linecap="round" stroke-linejoin="round" stroke-miterlimit="10" d="
		M247.087,158.572c0,0-1.332,9.324-3.329,13.984"/>
	
		<path fill="none" stroke="#000000" stroke-width="1.0237" stroke-linecap="round" stroke-linejoin="round" stroke-miterlimit="10" d="
		M243.758,157.242c0,0-0.664,4.661-1.996,7.322"/>
	
		<path fill="none" stroke="#000000" stroke-width="1.0237" stroke-linecap="round" stroke-linejoin="round" stroke-miterlimit="10" d="
		M412.213,187.871c0,0,0,19.311-3.329,32.627"/>
	
		<path fill="none" stroke="#000000" stroke-width="1.0237" stroke-linecap="round" stroke-linejoin="round" stroke-miterlimit="10" d="
		M415.542,192.531c0,0,0,19.31-3.329,32.626"/>
	
		<path fill="none" stroke="#000000" stroke-width="1.0237" stroke-linecap="round" stroke-linejoin="round" stroke-miterlimit="10" d="
		M418.871,197.192c0,0,0,19.309-3.329,32.625"/>
	
		<path fill="none" stroke="#000000" stroke-width="1.0237" stroke-linecap="round" stroke-linejoin="round" stroke-miterlimit="10" d="
		M421.757,206.188c0,0,0,14.18-2.441,23.959"/>
	
		<path fill="none" stroke="#000000" stroke-width="1.0237" stroke-linecap="round" stroke-linejoin="round" stroke-miterlimit="10" d="
		M419.539,275.097c0,0-1.997,27.297,5.991,49.27"/>
	
		<path fill="none" stroke="#000000" stroke-width="1.0237" stroke-linecap="round" stroke-linejoin="round" stroke-miterlimit="10" d="
		M415.542,283.084c0,0,0.96,23.307,4.957,33.96"/>
	
		<path fill="none" stroke="#000000" stroke-width="1.0237" stroke-linecap="round" stroke-linejoin="round" stroke-miterlimit="10" d="
		M411.549,286.416c0,0,1.332,20.643,3.993,25.965"/>
	
		<path fill="none" stroke="#000000" stroke-width="1.0237" stroke-linecap="round" stroke-linejoin="round" stroke-miterlimit="10" d="
		M408.884,294.403c0,0-4.66-17.312-1.331-41.947"/>
	
		<path fill="none" stroke="#000000" stroke-width="1.0237" stroke-linecap="round" stroke-linejoin="round" stroke-miterlimit="10" d="
		M406.223,148.586c0,0-9.323-24.634-17.978-32.626"/>
	
		<path fill="none" stroke="#000000" stroke-width="1.0237" stroke-linecap="round" stroke-linejoin="round" stroke-miterlimit="10" d="
		M397.564,134.604c0,0-5.99-13.319-9.985-15.314"/>
	
		<path fill="none" stroke="#000000" stroke-width="1.0237" stroke-linecap="round" stroke-linejoin="round" stroke-miterlimit="10" d="
		M279.045,160.571c0,0,1.999,7.99-17.31,19.309"/>
	
		<path fill="none" stroke="#000000" stroke-width="1.0237" stroke-linecap="round" stroke-linejoin="round" stroke-miterlimit="10" d="
		M282.374,162.569c0,0-0.662,7.326-11.983,15.312"/>
	
		<path fill="none" stroke="#000000" stroke-width="1.0237" stroke-linecap="round" stroke-linejoin="round" stroke-miterlimit="10" d="
		M238.431,207.182c0,0-5.994,30.626-19.311,49.27"/>
	
		<path fill="none" stroke="#000000" stroke-width="1.0237" stroke-linecap="round" stroke-linejoin="round" stroke-miterlimit="10" d="
		M241.096,213.838c0,0-4.662,17.31-8.659,24.636"/>
	
		<path fill="none" stroke="#000000" stroke-width="1.0237" stroke-linecap="round" stroke-linejoin="round" stroke-miterlimit="10" d="
		M243.094,218.497c0,0-1.998,9.323-3.333,11.986"/>
	<g>
		
			<path fill="none" stroke="#000000" stroke-width="1.0237" stroke-linecap="round" stroke-linejoin="round" stroke-miterlimit="10" d="
			M250.32,242.597c0,0-4.565,41.819-18.548,59.797"/>
	</g>
	
		<path fill="none" stroke="#000000" stroke-width="1.0237" stroke-linecap="round" stroke-linejoin="round" stroke-miterlimit="10" d="
		M239.761,276.426c0,0-2.955,13.984-11.611,27.302"/>
	
		<path fill="none" stroke="#000000" stroke-width="1.0237" stroke-linecap="round" stroke-linejoin="round" stroke-miterlimit="10" d="
		M234.438,281.753c0,0,0,9.321-11.321,24.638"/>
	
		<path fill="none" stroke="#000000" stroke-width="1.0237" stroke-linecap="round" stroke-linejoin="round" stroke-miterlimit="10" d="
		M209.802,343.01c0,0-25.302,20.643-26.635,61.922"/>
	
		<path fill="none" stroke="#000000" stroke-width="1.0237" stroke-linecap="round" stroke-linejoin="round" stroke-miterlimit="10" d="
		M210.468,347.668c0,0-21.311,22.643-23.308,49.275"/>
	
		<path fill="none" stroke="#000000" stroke-width="1.0237" stroke-linecap="round" stroke-linejoin="round" stroke-miterlimit="10" d="
		M209.802,354.326c0,0-6.658,7.992-10.655,17.981"/>
	
		<path fill="none" stroke="#000000" stroke-width="1.0237" stroke-linecap="round" stroke-linejoin="round" stroke-miterlimit="10" d="
		M195.153,336.354c0,0-3.997,15.312-21.974,27.299"/>
	
		<path fill="none" stroke="#000000" stroke-width="1.0237" stroke-linecap="round" stroke-linejoin="round" stroke-miterlimit="10" d="
		M272.696,250.479c0,0-0.974,21.955-9.63,34.604"/>
	
		<path fill="none" stroke="#000000" stroke-width="1.0237" stroke-linecap="round" stroke-linejoin="round" stroke-miterlimit="10" d="
		M275.718,257.781c0,0-1.33,14.652-6.658,21.974"/>
	
		<path fill="none" stroke="#000000" stroke-width="1.0237" stroke-linecap="round" stroke-linejoin="round" stroke-miterlimit="10" d="
		M279.045,261.78c0,0-0.958,6.658-3.621,13.316"/>
	
		<path fill="none" stroke="#000000" stroke-width="1.0237" stroke-linecap="round" stroke-linejoin="round" stroke-miterlimit="10" d="
		M256.408,268.438c0,0-0.666,3.327-3.997,11.984"/>
	
		<path fill="none" stroke="#000000" stroke-width="1.0237" stroke-linecap="round" stroke-linejoin="round" stroke-miterlimit="10" d="
		M261.069,258.448c0,0,0.076,11.319-6.583,24.636"/>
	
		<path fill="none" stroke="#000000" stroke-width="1.0237" stroke-linecap="round" stroke-linejoin="round" stroke-miterlimit="10" d="
		M407.553,139.265c0,0,4.66,18.641,0,14.648c-4.659-3.995-9.988-12.651-9.988-12.651s5.995,23.302,1.332,22.638
		c-4.659-0.664-8.656-5.329-8.656-5.329"/>
	
		<path fill="none" stroke="#000000" stroke-width="1.0237" stroke-linecap="round" stroke-linejoin="round" stroke-miterlimit="10" d="
		M253.079,168.561c0,0-0.668,13.983-13.318,23.302"/>
	
		<path fill="none" stroke="#000000" stroke-width="1.0237" stroke-linecap="round" stroke-linejoin="round" stroke-miterlimit="10" d="
		M257.738,165.23c0,0-0.612,9.326-5.273,17.316"/>
	
		<path fill="none" stroke="#000000" stroke-width="1.0237" stroke-linecap="round" stroke-linejoin="round" stroke-miterlimit="10" d="
		M424.868,209.843c0,0,0,18.644-1.336,26.634c-1.332,7.989-3.327,25.967-2.661,31.294"/>
	
		<path fill="none" stroke="#000000" stroke-width="1.0237" stroke-linecap="round" stroke-linejoin="round" stroke-miterlimit="10" d="
		M253.747,231.815c0,0-5.329-7.326-17.313,21.307c0,0,1.997-31.96-19.974,7.99"/>
	
		<path fill="none" stroke="#000000" stroke-width="1.0237" stroke-linecap="round" stroke-linejoin="round" stroke-miterlimit="10" d="
		M303.681,155.245c0,0-5.99,9.985-21.969,17.978"/>
	
		<path fill="none" stroke="#000000" stroke-width="1.0237" stroke-linecap="round" stroke-linejoin="round" stroke-miterlimit="10" d="
		M321.664,152.579c0,0,0,5.327-9.326,13.319"/>
	
		<path fill="none" stroke="#000000" stroke-width="1.0237" stroke-linecap="round" stroke-linejoin="round" stroke-miterlimit="10" d="
		M239.761,197.192c0,0-10.708,5.735-22.725,13.179"/>
	
		<path fill="none" stroke="#000000" stroke-width="1.0237" stroke-linecap="round" stroke-linejoin="round" stroke-miterlimit="10" d="
		M248.798,211.398c0,0-1.595,11.723-4.925,20.383"/>
	
		<path fill="none" stroke="#000000" stroke-width="1.0237" stroke-linecap="round" stroke-linejoin="round" stroke-miterlimit="10" d="
		M386.246,249.421c0,0-3.329,20.641,0,29.297"/>
	
		<path fill="none" stroke="#000000" stroke-width="1.0237" stroke-linecap="round" stroke-linejoin="round" stroke-miterlimit="10" d="
		M364.275,267.771c0,0-2.663,15.313-8.656,20.639"/>
	
		<path fill="none" stroke="#000000" stroke-width="1.0237" stroke-linecap="round" stroke-linejoin="round" stroke-miterlimit="10" d="
		M366.271,271.766c0,0,0,5.99-3.329,13.982"/>
	
		<path fill="none" stroke="#000000" stroke-width="1.0237" stroke-linecap="round" stroke-linejoin="round" stroke-miterlimit="10" d="
		M368.272,279.09c0,0,1.995,2.663-0.666,6.658"/>
	
		<path fill="none" stroke="#000000" stroke-width="1.0237" stroke-linecap="round" stroke-linejoin="round" stroke-miterlimit="10" d="
		M359.973,260.458c-0.36,2.651-0.36,13.307-3.689,19.965"/>
	
		<path fill="none" stroke="#000000" stroke-width="1.0237" stroke-linecap="round" stroke-linejoin="round" stroke-miterlimit="10" d="
		M293.695,262.443c0,0-0.664,4.663-2.664,7.324"/>
	
		<path fill="none" stroke="#000000" stroke-width="1.0237" stroke-linecap="round" stroke-linejoin="round" stroke-miterlimit="10" d="
		M298.357,264.441c0,0-1.997,6.658-3.997,9.323"/>
	
		<path fill="none" stroke="#000000" stroke-width="1.0237" stroke-linecap="round" stroke-linejoin="round" stroke-miterlimit="10" d="
		M302.351,266.44c0,0-1.997,3.995-2.661,6.658"/>
	
		<path fill="none" stroke="#000000" stroke-width="1.0237" stroke-linecap="round" stroke-linejoin="round" stroke-miterlimit="10" d="
		M307.678,267.771c0,0-0.664,6.658-2.662,7.99"/>
	
		<path fill="none" stroke="#000000" stroke-width="1.0237" stroke-linecap="round" stroke-linejoin="round" stroke-miterlimit="10" d="
		M313.67,269.768l-3.993,4.661c2.661-3.993,1.33-5.327,1.33-5.327"/>
	
		<path fill="none" stroke="#000000" stroke-width="4.095" stroke-linecap="round" stroke-linejoin="round" stroke-miterlimit="10" d="
		M258.544,229.148c3.995,7.306,10.237,18.027,14.152,21.33c8.752,7.391,29.41,17.162,50.575,19.327c0,0,6.391,2.327,18.008-0.63
		c11.612-2.959,18.693-8.718,18.693-8.718c17.553-12.029,31.016-30.492,35.171-41.17c1.987-5.116,2.251-18.975,2.22-27.209"/>
	
		<path fill="none" stroke="#000000" stroke-width="1.7915" stroke-linecap="round" stroke-linejoin="round" stroke-miterlimit="44" d="
		M269.661,161.483c0.768,7.92-18.212,24.11-56.57,48.044"/>
	
		<path fill="none" stroke="#000000" stroke-width="1.7915" stroke-linecap="round" stroke-linejoin="round" stroke-miterlimit="10" d="
		M381.697,302.569c0,0-4.993,1.25-8.112-0.624l9.359,13.104l6.862,0.625"/>
	
		<path fill="none" stroke="#000000" stroke-width="1.0237" stroke-linecap="round" stroke-linejoin="round" stroke-miterlimit="10" d="
		M261.551,328.077c0,0-2.497,22.462-13.103,36.813"/>
	
		<path fill="none" stroke="#000000" stroke-width="1.0237" stroke-linecap="round" stroke-linejoin="round" stroke-miterlimit="10" d="
		M252.815,348.666c0,0,2.495-8.11,4.367-19.341"/>
	
		<path fill="none" stroke="#000000" stroke-width="1.0237" stroke-linecap="round" stroke-linejoin="round" stroke-miterlimit="10" d="
		M264.67,336.811c0,0-6.24,24.334-14.974,35.565"/>
	
		<path fill="none" stroke="#000000" stroke-width="1.0237" stroke-linecap="round" stroke-linejoin="round" stroke-miterlimit="10" d="
		M246.575,341.804c0,0,1.873-8.112,3.121-13.103"/>
	
		<path fill="none" stroke="#000000" stroke-width="1.0237" stroke-linecap="round" stroke-linejoin="round" stroke-miterlimit="10" d="
		M262.799,358.649c0,0,6.862-14.351,9.983-31.82"/>
	
		<path fill="none" stroke="#000000" stroke-width="1.0237" stroke-linecap="round" stroke-linejoin="round" stroke-miterlimit="10" d="
		M277.149,343.052c0,0-4.993,13.727-8.736,18.093"/>
	
		<path fill="#FFE800" stroke="#000000" stroke-width="1.0237" stroke-linecap="round" stroke-linejoin="round" stroke-miterlimit="10" d="
		M291.775,398.233c0,1.032-0.84,1.872-1.871,1.872c-1.034,0-1.874-0.84-1.874-1.872c0-1.033,0.84-1.873,1.874-1.873
		C290.936,396.36,291.775,397.2,291.775,398.233z"/>
	
		<path fill="none" stroke="#000000" stroke-width="1.0237" stroke-linecap="round" stroke-linejoin="round" stroke-miterlimit="10" d="
		M328.313,400.455c0,0,12.479,0.624,12.479,5.612c0,4.993-6.24,9.359-10.607,7.488"/>
	<g>
		<path d="M386.106,335.683c-3.62,1.34-8.583,3.925-7.943,8.541c0.067,0.492,0.868,0.464,0.961,0
			c0.377-1.877,0.747-3.676,2.121-5.111c1.368-1.429,3.148-2.453,4.934-3.258C386.275,335.811,386.206,335.646,386.106,335.683
			L386.106,335.683z"/>
	</g>
	<g>
		<path d="M286.883,310.815c-0.017,1.423,0.484,2.68-0.021,4.085c-0.108,0.303,0.361,0.489,0.514,0.216
			c0.348-0.623,0.531-1.173,0.46-1.891c-0.081-0.818-0.396-1.583-0.453-2.41C287.36,310.497,286.887,310.49,286.883,310.815
			L286.883,310.815z"/>
	</g>
	<g>
		<path d="M262.696,303.508c3.206,5.045,6.383,10.207,10.695,14.393c0.565,0.548,1.395-0.287,0.86-0.861
			c-4.035-4.34-7.543-9.042-10.936-13.893C263.055,302.772,262.446,303.113,262.696,303.508L262.696,303.508z"/>
	</g>
	<g>
		<path d="M263.271,299.733c-0.519-0.66-0.565-1.423-0.566-2.23c0-0.684-1.062-0.684-1.061,0c0.001,1.109,0.235,2.002,1.098,2.76
			C263.112,300.589,263.565,300.107,263.271,299.733L263.271,299.733z"/>
	</g>
	<g>
		<path d="M255.323,308.372c0.894,5.436,3.132,10.745,7.33,14.441c0.485,0.428,1.2-0.302,0.706-0.706
			c-4.239-3.469-6.579-8.559-7.646-13.844C255.662,308.005,255.281,308.118,255.323,308.372L255.323,308.372z"/>
	</g>
	<g>
		<path d="M246.871,293.344c0.064,2.254,0.816,4.401,0.881,6.654c0.01,0.361,0.566,0.363,0.562,0
			c-0.033-2.251-0.754-4.404-0.787-6.654C247.521,292.922,246.858,292.922,246.871,293.344L246.871,293.344z"/>
	</g>
	<g>
		<path d="M248.789,306.676c1.871,4.608,4.379,8.923,6.595,13.368c0.09,0.18,0.361,0.021,0.27-0.158
			c-2.254-4.406-4.802-8.679-6.714-13.252C248.901,306.543,248.751,306.581,248.789,306.676L248.789,306.676z"/>
	</g>
	<g>
		<path d="M384.287,328.807c-3.787,1.803-7.106,5.13-7.588,9.462c-0.037,0.333,0.453,0.354,0.552,0.074
			c1.351-3.813,3.873-6.901,7.398-8.916C385.056,329.193,384.699,328.611,384.287,328.807L384.287,328.807z"/>
	</g>
	<g>
		<path d="M372.497,327.112c-1.646,0.603-3.358-0.063-5.08,0.211c-1.244,0.199-2.387,0.552-3.384,1.323
			c-1.352,1.048-0.14,3.108,1.302,3.143c1.174,0.027,2.267-0.496,3.4-0.742c0.452-0.099,1.49-0.027,2.156-0.393
			c0.842-0.463,1.704-0.822,2.543-1.318C374.592,328.651,373.824,326.627,372.497,327.112L372.497,327.112z"/>
	</g>
	<g>
		<path d="M342.102,351.686c7.26-4.38,14.64-7.359,22.747-9.658c1.418-0.401,1.146-2.59-0.348-2.573
			c-8.536,0.093-15.84,7.635-22.525,12.015C341.842,351.558,341.963,351.769,342.102,351.686L342.102,351.686z"/>
	</g>
	<g>
		<path d="M295.232,310.595c-5.05-2.725-10.924-3.626-15.672-6.884c-1.332-0.913-2.614,0.806-2.027,2.027
			c2.562,5.339,11.989,5.134,16.762,7.08C295.587,313.345,296.426,311.239,295.232,310.595L295.232,310.595z"/>
	</g>
	<g>
		<path d="M311.527,343.102c-2.353-3.905-4.187-8.347-7.489-11.555c-2.855-2.774-6.803-6.098-10.374-7.803
			c-1.248-0.597-2.626,0.625-1.922,1.921c1.729,3.172,5.66,5.057,8.587,6.972c4.236,2.771,7.328,7.113,10.708,10.843
			C311.278,343.745,311.709,343.402,311.527,343.102L311.527,343.102z"/>
	</g>
	<g>
		<path d="M399.745,344.091c0.074,4.191,6.423,22.121,13.137,17.449c1.365-0.949,1.172-2.938-0.455-3.478
			c-1.326-0.441-2.229-0.344-3.282-1.404c-0.805-0.812-1.416-1.789-2.212-2.608c-2.965-3.046-5.756-5.405-6.126-9.959
			C400.752,343.419,399.733,343.398,399.745,344.091L399.745,344.091z"/>
	</g>
	<g>
		<path d="M325.494,393.506c4.248-1.754,8.241-4.051,12.475-5.838c0.381-0.161,0.221-0.791-0.174-0.632
			c-4.262,1.719-8.236,4.054-12.483,5.808C324.909,393.011,325.085,393.675,325.494,393.506L325.494,393.506z"/>
	</g>
	<g>
		<path d="M310.388,483.991c9.222,2.82,18.916,0.651,28.324,0.139c1.418-0.078,1.436-2.188,0-2.216
			c-9.509-0.176-18.681,3.519-28.25,1.807C310.286,483.689,310.212,483.938,310.388,483.991L310.388,483.991z"/>
	</g>
	<g>
		<path d="M286.16,469.199c-7.512,1.313-14.681,0.415-21.861-1.987c-2.135-0.714-2.997,2.592-0.921,3.34
			c7.181,2.585,15.859,1.761,23.063-0.328C287.109,470.029,286.822,469.085,286.16,469.199L286.16,469.199z"/>
	</g>
	<g>
		<path d="M245.584,406.568c2.777-2.049,6.911-2.507,10.247-3.109c0.963-0.174,1.009-1.346,0.519-1.963
			c-0.706-0.888-1.11-1.558-2.214-1.853c-1-0.267-1.814,1.028-1.028,1.768c0.6,0.563,1.184,1.038,2.041,1.081
			c1.435,0.072,2.419,0.947,3.938,0.707c0.886-0.141,0.849-1.573,0-1.745c-0.912-0.185-1.403-0.365-2.219-0.844
			c-0.765-0.447-1.549,0.035-2.265-0.694c-0.343,0.589-0.686,1.177-1.028,1.766c0.166,0.052,0.984,1.318,1.113,1.476
			c0.173-0.655,0.346-1.309,0.519-1.964c-3.77,1.188-7.02,2.178-9.735,5.229C245.404,406.496,245.494,406.635,245.584,406.568
			L245.584,406.568z"/>
	</g>
	<g>
		<path d="M265.933,402.182c0.357,0.159,0.708,0.271,1.081,0.388c0.859,0.268,1.759,0.693,2.647,0.787
			c0.93,0.098,1.313-1.172,0.728-1.758c-0.997-1-3.152-1.344-4.456-0.791C265.404,401.032,265.418,401.952,265.933,402.182
			L265.933,402.182z"/>
	</g>
	<g>
		<path d="M283.548,395.521c-4.479,5.815,7.04,11.922,11.424,7.159c0.436-0.475-0.276-1.185-0.706-0.706
			c-3.762,4.19-14.15-0.919-10.206-6.154C284.29,395.513,283.776,395.224,283.548,395.521L283.548,395.521z"/>
	</g>
	<g>
		<path d="M287.258,406.487c0.02-0.713,0.184-1.358,0.448-2.016c0.175-0.43,0.373-0.843,0.396-1.313c0.01-0.181-0.273-0.181-0.28,0
			c-0.021,0.49-0.256,0.942-0.434,1.392c-0.246,0.626-0.368,1.266-0.381,1.938C287.005,406.648,287.253,406.648,287.258,406.487
			L287.258,406.487z"/>
	</g>
	<g>
		<path d="M342.483,392.603c1.125-1.777,2.853-3.229,5.006-3.451c2.813-0.291,3.352,2.604,3.768,4.623
			c0.491,2.392,2.601,3.521,4.927,3.26c0.549-0.062,0.774-0.913,0.141-1.042c-2.883-0.585-3.915-1.478-4.284-4.346
			c-0.205-1.59-1.101-2.614-2.491-3.38c-3.062-1.685-6.663,1.22-7.955,3.816C341.3,392.676,342.126,393.167,342.483,392.603
			L342.483,392.603z"/>
	</g>
	<g>
		<path d="M376.98,422.978c1.415,0.015,2.968,0.104,3.799-1.24c0.296-0.48-0.281-1.004-0.748-0.747
			c-0.995,0.546-1.932,0.603-3.051,0.615C376.096,421.614,376.096,422.968,376.98,422.978L376.98,422.978z"/>
	</g>
	<g>
		<path d="M345.366,419.936c0.555,0,1.11,0,1.665,0c0.182,0,0.182-0.279,0-0.279c-0.555,0-1.11,0-1.665,0
			C345.185,419.656,345.185,419.936,345.366,419.936L345.366,419.936z"/>
	</g>
	<g>
		<path d="M330.392,419.169c2.074,0.191,2.035,0.834,3.436,1.909c1.195,0.917,2.521,1.209,3.979,1.388
			c1.598,0.194,8.382,0.224,8.747-2.131c0.512-3.301-4.222-1.476-5.814-1.193c-1.799,0.316-3.607,0.218-5.412,0.382
			c-0.941,0.086-1.458-0.604-2.168-1.021c-0.71-0.415-1.963,0.187-2.767,0.261C330.131,418.787,330.131,419.146,330.392,419.169
			L330.392,419.169z"/>
	</g>
	<g>
		<path d="M267.166,404.335c1.426,0.004,2.714-0.381,4.158-0.229c-0.315-0.316-0.632-0.632-0.947-0.948
			c-0.027,1.285,0.895,1.721,1.752,2.522c0.671,0.627,1.773,0.361,2.035-0.537c-0.084,0.32,0.079,0.406,0.489,0.259
			c0.65,0.029,1.165-0.455,1.361-1.035c-0.249,0.734,0.662,0.245,1.258,0.215c0.506-0.025,0.814-0.255,1.235-0.521
			c0.672-0.425,0.68-1.382,0-1.805c-1.602-0.997-4.614-0.709-5.215,1.361c0.453-0.346,0.907-0.69,1.36-1.036
			c-1.314,0.093-2.589,0.456-2.837,1.915c0.596-0.242,1.192-0.485,1.788-0.727c-0.388-0.287-1.236-0.641-1.462-1.089
			c-0.191-0.384-0.677-0.534-1.07-0.437c-1.397,0.349-2.534,1.211-3.998,1.417C266.683,403.716,266.79,404.334,267.166,404.335
			L267.166,404.335z"/>
	</g>
	<g>
		<path d="M271.954,391.629c1.295,1.965,3.284,2.742,4.805,4.432c0.123,0.137,0.362,0.203,0.537,0.142
			c2.224-0.782,3.772-1.729,5.086-3.717c0.203-0.308-0.276-0.572-0.484-0.284c-1.271,1.754-2.386,2.214-4.382,2.781
			c-0.534,0.152-1.768-0.924-2.24-1.181c-1.175-0.639-2.119-1.404-2.953-2.456C272.156,391.137,271.81,391.409,271.954,391.629
			L271.954,391.629z"/>
	</g>
	<g>
		<path d="M284.41,408.211c0.793,2.281,2.87,3.423,4.859,4.577c1.927,1.116,3.831-0.493,5.668-0.985
			c1.284-0.344,1.055-2.455-0.318-2.356c-0.39,0.028-0.735,0.075-1.108,0.193c0.395,0.511,0.787,1.022,1.18,1.533
			c0.321-0.682,0.681-1.185,0.786-1.954c0.148-1.099-1.467-1.621-1.716-0.472c-0.028,0.413-0.194,0.745-0.499,0.997
			c-0.812,0.463-0.592,1.642,0.249,1.909c0.373,0.118,0.719,0.165,1.108,0.192c-0.106-0.785-0.213-1.57-0.319-2.356
			c-1.361,0.413-2.484,1.21-3.792,1.698c-0.602,0.224-2.474-0.952-2.979-1.196c-1.051-0.508-1.95-1.131-2.728-2.008
			C284.647,407.812,284.333,407.992,284.41,408.211L284.41,408.211z"/>
	</g>
	<g>
		<path d="M314.586,418.358c-5.597,0.579-10.843-3.528-16.192-4.346c-1.479-0.227-2.59,1.063-1.902,2.475
			c1.525,3.132,5.865,1.655,8.482,2.321c3.478,0.885,6.243,1.661,9.774,0.744C315.397,419.384,315.28,418.286,314.586,418.358
			L314.586,418.358z"/>
	</g>
	<g>
		<path d="M295.026,402.734c0.593-0.601,1.326-1.505,2.204-1.65c0.51-0.084,0.351-0.832-0.116-0.858
			c-1.217-0.067-2.107,0.91-2.903,1.693C293.679,402.44,294.504,403.266,295.026,402.734L295.026,402.734z"/>
	</g>
	<g>
		<path d="M391.64,88.984c-5.374,3.724-11.11,6.549-16.81,9.687c-1.014,0.558-0.285,1.958,0.745,1.768
			c6.214-1.145,12.235-6.369,16.82-10.475C392.92,89.494,392.225,88.579,391.64,88.984L391.64,88.984z"/>
	</g>
	<g>
		<path d="M222.194,132.863c3.079,1.515,6.47,1.971,9.741,2.908c2.653,0.759,5.503,1.566,7.607-0.664
			c0.744-0.789-0.191-1.953-1.135-1.47c-2.186,1.12-4.875,0.828-7.239,0.619c-3.054-0.271-6.023-0.403-8.903-1.564
			C222.167,132.652,222.1,132.817,222.194,132.863L222.194,132.863z"/>
	</g>
	<g>
		<path d="M254.687,112.94c7.62,0.27,15.582,2.143,23.178,0.998c6.956-1.049,13.627-3.212,20.234-5.557
			c0.697-0.247,0.425-1.281-0.306-1.113c-6.111,1.405-12.005,3.587-18.119,4.983c-8.119,1.854-16.74,0.298-24.987,0.439
			C254.525,112.693,254.526,112.934,254.687,112.94L254.687,112.94z"/>
	</g>
	<g>
		<path d="M241.916,142.268c-1.613,0.835-3.056,1.882-4.402,3.098c-1.147,1.036-2.089,3.064-3.448,3.767
			c-0.412,0.213-0.623,0.676-0.642,1.119c-0.021,0.468-0.004,0.82-0.185,1.257c0.63-0.358,1.259-0.715,1.889-1.072
			c-0.354-0.102-0.742-0.117-1.108-0.149c-2.101-0.184-2.101,3.444,0,3.259c0.366-0.032,0.755-0.047,1.108-0.149
			c0.729-0.211,1.395-1.106,1.072-1.889c-1.462-3.552,3.677-6.85,6.299-8.245C243.157,142.914,242.576,141.926,241.916,142.268
			L241.916,142.268z"/>
	</g>
	<g>
		<path d="M376.98,108.121c2.897,0.338,6.706,1.722,9.133,3.386c1.848,1.267,3.588,2.299,5.841,2.376
			c1.052,0.037,1.875-0.891,1.897-1.897c0-0.556,0.025-1.112,0.077-1.666c-1.227,0.333-2.453,0.665-3.68,0.997
			c0.97,1.804,2.559,2.613,4.587,2.068c0.918-0.247,1.32-1.318,0.866-2.131c-0.543-0.973-1.599-1.161-2.042-1.93
			c-0.944-1.632-3.822-1.014-3.681,0.997c0.052,0.554,0.077,1.109,0.077,1.666c0.633-0.632,1.265-1.265,1.897-1.897
			c-5.053,0.056-9.832-2.592-14.974-2.56C376.588,107.531,376.61,108.078,376.98,108.121L376.98,108.121z"/>
	</g>
	<g>
		<path d="M415.18,93.561c-5.723,3.266-10.219,8.069-15.169,12.335c-0.367,0.317,0.163,0.836,0.53,0.53
			c4.996-4.169,9.194-9.179,14.78-12.623C415.476,93.708,415.337,93.471,415.18,93.561L415.18,93.561z"/>
	</g>
	<g>
		<path d="M354.168,66.024c-5.959,10.796-14.956,18.47-23.714,26.886c-1.027,0.987,0.488,2.452,1.543,1.545
			c9.269-7.971,17.56-16.894,22.87-28.021C355.091,65.968,354.423,65.561,354.168,66.024L354.168,66.024z"/>
	</g>
	<g>
		<path d="M287.487,704.92c1.635-0.79,3.499-0.708,5.269-0.611c1.731,0.096,3.596,0.687,5.138-0.324
			c0.991-0.649,1.063-2.613-0.368-2.822c-1.902-0.278-3.804,0.622-5.698,0.912c-1.8,0.275-3.529,0.568-5.049,1.635
			C286.037,704.228,286.668,705.317,287.487,704.92L287.487,704.92z"/>
	</g>
	<g>
		<path d="M356.184,703.531c3.141-0.097,6.361-0.387,9.045-2.13c1.883-1.225,3.81-2.805,5.864-3.725
			c1.793-0.802,3.435-1.351,4.74-2.827c0.55-0.623-0.138-1.553-0.889-1.151c-1.558,0.831-3.206,1.169-4.931,1.422
			c-1.564,0.229-3.078,1.522-4.3,2.403c-2.999,2.162-5.654,5.515-9.53,5.914C356.124,703.443,356.122,703.534,356.184,703.531
			L356.184,703.531z"/>
	</g>
	<g>
		<path d="M380.794,707.883c-4.002,2.918-10.896,4.559-12.809,9.556c-0.262,0.685,0.703,1.146,1.173,0.683
			c1.933-1.903,3.869-3.564,6.188-4.996c2.147-1.325,4.313-2.572,6.28-4.165C382.23,708.472,381.423,707.425,380.794,707.883
			L380.794,707.883z"/>
	</g>
	<g>
		<path d="M287.329,726.284c2.654-1.202,5.112-0.447,7.83-0.04c2.122,0.317,3.911-0.146,5.794-1.089
			c1.02-0.511,0.297-2.262-0.782-1.854c-4.293,1.626-9.226-0.071-13.235,2.309C286.495,725.872,286.88,726.487,287.329,726.284
			L287.329,726.284z"/>
	</g>
	<g>
		<path d="M277.856,698.111c2.17,0.824,4.107,1.135,6.215,0.007c0.521-0.279,0.152-1.2-0.409-0.97
			c-1.807,0.744-3.707,0.548-5.557,0.061C277.511,697.053,277.303,697.901,277.856,698.111L277.856,698.111z"/>
	</g>
	<g>
		<path d="M372.717,688.336c-6.245,2.847-11.42,8.397-18.865,6.227c-0.773-0.226-1.109,1-0.332,1.204
			c7.586,1.985,13.024-4.092,19.401-7.081C373.159,688.574,372.952,688.229,372.717,688.336L372.717,688.336z"/>
	</g>
	<g>
		<path d="M363.582,743.101c-3.525,0.854-9.874,2.479-10.224,6.971c-0.024,0.313,0.48,0.464,0.61,0.165
			c1.783-4.102,5.717-5.438,9.787-6.504C364.165,743.626,363.992,743.002,363.582,743.101L363.582,743.101z"/>
	</g>
	<g>
		<path d="M293.888,751.832c4.431-3.518,12.242-0.333,17.371-0.194c0.944,0.026,0.944-1.451,0-1.466
			c-5.259-0.086-13.175-2.527-17.568,1.462C293.553,751.758,293.75,751.941,293.888,751.832L293.888,751.832z"/>
	</g>
	<g>
		<path d="M287.871,686.512c-3.521,0.674-6.987,0.166-9.416-2.638c-0.439-0.508-1.326,0.026-1.121,0.651
			c1.414,4.311,7.31,3.598,10.72,2.648C288.484,687.054,288.301,686.43,287.871,686.512L287.871,686.512z"/>
	</g>
	<g>
		<path d="M293.854,300.238c5.964-2.427,10.099-6.938,14.516-11.443c0.564-0.575-0.311-1.451-0.882-0.883
			c-4.331,4.308-8.26,9.106-13.825,11.871C293.412,299.907,293.593,300.346,293.854,300.238L293.854,300.238z"/>
	</g>
	<g>
		<path d="M361.482,304.682c-4.979-6.108-5.899-14.961-7.979-22.331c-0.237-0.839-1.467-0.484-1.294,0.356
			c1.589,7.742,2.655,16.838,8.656,22.593C361.28,305.697,361.832,305.111,361.482,304.682L361.482,304.682z"/>
	</g>
	<g>
		<path d="M408.204,349.082c0.038,0.787,0.344,1.438,0.837,2.051c0.139,0.174,0.48,0.219,0.66,0.085
			c0.816-0.608,1.854-0.846,2.102-1.939c0.164-0.73-0.683-1.224-1.236-0.72c-0.512,0.467-1.024,0.934-1.536,1.399
			c-0.504,0.459-0.464,0.973-0.503,1.619c-0.03,0.511,0.433,0.871,0.898,0.898c-0.148-0.053-0.298-0.106-0.447-0.159
			c0.132,0.13,0.285,0.22,0.462,0.27c0.26,0.07,0.552,0.039,0.817,0.043c-0.303-0.527-0.605-1.056-0.908-1.582
			c-0.939,1.975-1.12,4.545,1.236,5.553c1.185,0.507,2.049-0.947,1.008-1.724c-1.014-0.754-0.907-1.706-0.429-2.769
			c0.315-0.697-0.046-1.59-0.907-1.581c-0.18,0.002-0.359,0.003-0.539,0.005c-0.188,0.001-0.365,0.048-0.528,0.144
			c-0.35,0.235-0.271,0.236,0.235,0.004c0.3,0.3,0.599,0.599,0.898,0.898c-0.015-0.248-0.029-0.496-0.044-0.743
			c-0.287,0.489-0.343,0.629-0.165,0.418c0.125-0.137,0.249-0.274,0.374-0.411c0.374-0.412,0.749-0.824,1.123-1.236
			c-0.421-0.174-0.842-0.349-1.263-0.522c-0.034,0.385-1.043,1.004-1.309,1.28c0.257,0,0.513,0,0.77,0
			c-0.428-0.384-0.718-0.811-0.841-1.384C408.878,348.548,408.184,348.644,408.204,349.082L408.204,349.082z"/>
	</g>
	<g>
		<path d="M409.669,349.324c1.724-1.403,3.432-3.731,3.414-6.064c-0.002-0.26-0.375-0.47-0.56-0.231
			c-0.671,0.863-0.977,1.91-1.467,2.879c-0.513,1.012-1.182,2.038-1.874,2.933C408.914,349.188,409.32,349.608,409.669,349.324
			L409.669,349.324z"/>
	</g>
	<g>
		<path d="M411.635,343.546c2.647,2.357,6.161,1.202,9.355,1.678c0.4,0.06,0.538-0.447,0.166-0.602
			c-2.938-1.214-6.295,0.713-8.948-1.649C411.818,342.626,411.243,343.198,411.635,343.546L411.635,343.546z"/>
	</g>
	<g>
		<path d="M411.72,347.3c-1.62,3.23-0.462,6.178,0.629,9.382c0.176,0.517,0.918,0.309,0.813-0.224
			c-0.622-3.122-2.273-5.767-1.014-8.978C412.244,347.232,411.837,347.065,411.72,347.3L411.72,347.3z"/>
	</g>
	<g>
		<path d="M397.536,364.198c2.672,5.755,9.124,5.424,14.472,4.335c0.359-0.073,0.281-0.689-0.087-0.644
			c-5.095,0.633-11.177,1.503-13.899-3.976C397.858,363.588,397.386,363.874,397.536,364.198L397.536,364.198z"/>
	</g>
	<g>
		<path d="M396.296,354.024c-0.582-2.875-0.605-5.512,1.015-8.058c0.292-0.459-0.442-0.886-0.728-0.425
			c-1.694,2.743-1.478,5.572-0.648,8.583C395.999,354.359,396.343,354.26,396.296,354.024L396.296,354.024z"/>
	</g>
	<g>
		<path d="M404.244,364.38c3.595,1.753,7.657,1.937,11.234,0.066c0.448-0.234,0.131-1.021-0.348-0.826
			c-3.442,1.393-7.062,1.62-10.509,0.112C404.189,363.544,403.805,364.165,404.244,364.38L404.244,364.38z"/>
	</g>
	<g>
		<path d="M406.583,340.668c-0.556,1.426-1.137,2.861-1.233,4.403c-0.091,1.464,0.812,2.775,1.353,4.074
			c0.134,0.317,0.594,0.11,0.429-0.18c-1.628-2.843-1.015-5.22,0.144-8.106C407.446,340.431,406.748,340.241,406.583,340.668
			L406.583,340.668z"/>
	</g>
	<g>
		<path d="M406.099,349.255c0.828,0.021,1.404,0.265,2.162-0.073c0.954-0.427,1.601-1.628,2.053-2.494
			c0.576-1.103,0.954-3.025,2.563-2.688c1.047,0.219,2.123,0.557,3.204,0.514c0.457-0.02,0.596-0.73,0.112-0.827
			c-1.356-0.272-3.846-1.728-5.07-0.601c-1.888,1.738-1.896,5.722-5.023,5.827C405.878,348.92,405.877,349.25,406.099,349.255
			L406.099,349.255z"/>
	</g>
	<g>
		<path d="M229.544,325.978c3.864,3.297,6.344,7.397,7.191,12.424c0.106,0.629,1.091,0.368,0.963-0.266
			c-1.029-5.118-3.719-9.282-7.779-12.533C229.656,325.393,229.28,325.753,229.544,325.978L229.544,325.978z"/>
	</g>
	<g>
		<path d="M304.918,236.859c0.199-0.536,0.392-0.941,0.766-1.363c0.254-0.287,0.569-0.503,0.855-0.755
			c0.3-0.263,0.631-0.492,0.946-0.736c0.402-0.311,0.648-0.688,0.916-1.116c0.291-0.468-0.284-1.025-0.748-0.747
			c-0.821,0.494-1.51,1.068-2.164,1.773c-0.659,0.71-0.917,1.876-1.203,2.771C304.156,237.093,304.773,237.248,304.918,236.859
			L304.918,236.859z"/>
	</g>
	<g>
		<path d="M348.531,219.14c1.619-1.552,4.49-3.472,6.818-3.294c-0.234-0.234-0.469-0.468-0.702-0.703
			c-0.144,1.491,0.725,2.067,2.147,2.453c0.736,0.2,1.472-0.839,0.797-1.369c-0.229-0.18-1.51-0.835-1.54-1.084
			c-0.059-0.494-0.4-0.745-0.889-0.678c-1.743,0.242-3.038,0.112-4.667,0.884c-1.236,0.585-2.333,1.502-3.305,2.451
			C346.316,218.656,347.649,219.985,348.531,219.14L348.531,219.14z"/>
	</g>
	<g>
		<path d="M358.374,218.396c-0.114-0.084-0.22-0.174-0.325-0.27c0.014,0.012-0.284-0.333-0.172-0.173
			c-0.067-0.095-0.12-0.2-0.171-0.304c0.141,0.287,0.027,0.014,0.01-0.061c-0.021-0.091-0.044-0.183-0.065-0.274
			c-0.074-0.322,0.043,0.351,0.004,0.027c-0.04-0.325-0.09-0.512-0.234-0.806c-0.099-0.199,0.116,0.296-0.027-0.062
			c-0.475-1.187-1.944-1.19-2.418,0c-0.297,0.745-0.287,1.616,0.211,2.286c0.599,0.806,1.443,1.24,2.38,1.555
			c0.443,0.149,0.958-0.094,1.186-0.482C359.063,219.3,358.835,218.734,358.374,218.396L358.374,218.396z"/>
	</g>
	
		<path fill="none" stroke="#000000" stroke-width="1.7915" stroke-linecap="round" stroke-linejoin="round" stroke-miterlimit="44" d="
		M190.629,237.604c11.941-12.902,17.47-16.638,32.861-24.957"/>
	<path d="M203.939,226.375l-3.875,9.766c0,0,12.527-16.074,16.686-17.736c0,0-3.243,0.482-12.395,5.473L203.939,226.375z"/>
	
		<path fill="none" stroke="#000000" stroke-width="1.0237" stroke-linecap="round" stroke-linejoin="round" stroke-miterlimit="10" d="
		M229.313,191.434c0,0,7.487-14.977,8.735-22.462"/>
</g>
</svg>
