<?xml version="1.0" encoding="utf-8"?>
<!-- Generator: Adobe Illustrator 16.0.0, SVG Export Plug-In . SVG Version: 6.00 Build 0)  -->
<!DOCTYPE svg PUBLIC "-//W3C//DTD SVG 1.1//EN" "http://www.w3.org/Graphics/SVG/1.1/DTD/svg11.dtd">
<svg version="1.1" id="Layer_1" xmlns="http://www.w3.org/2000/svg" xmlns:xlink="http://www.w3.org/1999/xlink" x="0px" y="0px"
	 width="612px" height="792px" viewBox="0 0 612 792" enable-background="new 0 0 612 792" xml:space="preserve">
<g>
	<path fill="#C8C8C8" d="M567.36,725.544c0,17.475-116.238,31.645-259.624,31.645c-143.38,0-259.618-14.17-259.618-31.645
		c0-17.479,116.238-31.654,259.618-31.654C451.122,693.89,567.36,708.065,567.36,725.544z"/>
	<path d="M573.167,365.379c2.431-3.508,4.354-7.86,2.478-11.687c-2.085-4.255-6.191-5.506-10.473-5.376
		c-6.12-15.973-17.415-31.517-25.565-46.556c-9.374-17.299-19.949-33.995-34.485-47.439c-12.922-11.952-41.747-32.361-61.353-24.001
		c0.957-1.242,3.572-4.888,4.166-7.024c-9.446-4.437-26.7-5.336-34.769-3.155c0.566-2.836-0.205-5.328-3.199-6.471
		c2.109-1.422,3.825-3.352,4.735-5.971c1.351-3.892,0.456-9.333-3.161-11.376c0.725-0.813,1.371-1.713,1.893-2.751
		c0.968-1.919,1.11-4.196,0.153-6.129c-0.528-1.067-1.397-2.066-2.425-2.625c1.877-2.345,3.063-5.052,2.684-8.41
		c5.779-0.886,10.067-3.714,10.804-9.863c0.057-0.468,0.063-0.979,0.099-1.467c3.107,3.208,7.078,5.518,11.372,6.33
		c-2.681,17.861,6.001,38.685,18.905,50.337c9.184,8.294,22.148,12.27,33.798,15.55c13.346,3.759,29.877,6.197,42.402,11.89
		c7.667-9.093-21.403-39.143-37.912-52.353c8.593-5.142,33.568-6.939,47.304-9.127c-2.74-7.16-17.987-15.917-35.578-19.924
		c-17.59-4.01-35.581-0.57-51.893-2.639c5.283-6.533,7.247-16.981,4.287-24.089c-3.699-8.887-15.745-14.354-25.243-11.875
		c1.091-7.555,4.303-15.584,3.695-22.867c-0.938-11.272-5.194-21.733-11.161-31.205c-11.372-18.05-33.861-28.189-53.37-34.339
		c-21.169-6.672-42.171-3.939-60.966,7.628c-14.915,9.177-34.888,29.214-39.76,47.363c-3.75,0.601-6.479,2.565-5.509,6.877
		c-8.245-1.143-18.533,3.994-16.7,13.442c-7.443,4.126-12.575,10.526-15.115,18.656c-3.854,12.341,5.516,20.26,16.701,20.08
		c-0.1,0.279-0.205,0.562-0.29,0.844c-0.631,2.071-1.213,5.082-0.704,7.543c-5.567,4.803-7.74,17.093-2.645,21.458
		c-2.297,1.854-4.258,4.203-5.69,6.799c-6.276-2.531-12.734-4.228-18.296-8.345c-1.929-1.425-4.125,0.166-3.674,2.421
		c0.301,1.507,0.422,3.005,0.463,4.498c-23.39-21.236-67.541-15.476-92.219-0.624c-8.1,4.874-14.452,12.299-20.525,19.382
		c-6.54,7.625-13.871,13.427-22.055,19.179c-9.355,6.572-19.727,14.494-22.735,25.367c-2.409-1.535-5.017-2.1-8.404-1.425
		c-4.523,0.897-8.353,3.443-11.181,7.055c-4.643,5.932-4.161,16.557,3.178,19.139c-3.254,18.561,14.658,38.276,28.241,48.303
		c10.264,7.577,23.768,12.281,36.281,14.09c6.867,0.993,13.476,1.275,20.404,1.095c8.899-0.231,15.425,0.375,19.969,3.767
		c-2.559,8.065-5.754,15.68-9.477,23.336c-1.798,3.694-3.607,7.812-4.625,12.025c-2.718-2.771-9.248-6.533-10.628-7.03
		c-4.974-1.778-9.783-0.922-11.318,4.657c-3.082-0.808-7.352-0.407-9.627,1.261c-4.617,3.384-3.248,9.505,1.215,11.385
		c8.651,3.643,25.233,19.518,26.865,21.558c3.035,3.796,20.945,2.278,25.055,1.084c3.073,25.498,12.755,47.794,36.028,67.208
		c0.023,0.02-0.815,4.275-0.407,9.772c0.407,5.498,1.351,9.119,2.617,10.414c-10.148,11.779-20.317,26.872-27.796,41.151
		c-6.456,12.324-14.207,25.605-14.146,39.88c0.055,12.555,11.784,22.827,18.698,32.065c3.229,4.319,7.234,9.613,11.925,13.629
		c-7.626,5.404-12.25,15.747-18.688,22.189c-1.364,1.364-0.96,3.582,0.616,4.564c9.88,6.172,20.865,10.851,32.069,13.246
		c-0.251,2.385-0.834,4.965-1.331,7.58c-16.547,4.748-32.492,12.702-48.735,18.381c-20.765,7.259-41.687,9.326-62.909,14.113
		c-6.319,14.686,47.22,28.007,70.28,27.405c11.767-0.308,28.08-3.858,38.065-10.344c6.968-4.522,13.07-9.856,19.412-14.959
		c-0.002,0.022-0.004,0.048-0.005,0.073c-0.288,3.813,0.088,10.679-0.522,15.77c5.294,1.831,20.156,2.034,23.413-0.409
		c3.711-8.213,2.851-19.34,2.176-30.354c-0.588-9.615-3.636-18.867-7.32-27.547c9.155-2.413,24.18-12.363,28.145-17.026
		c-7.532-2.646-14.25-25.446-22.818-29.066c4.01-6.83,8.85-12.753,14.113-19.017c10.215-12.16,11.641-31.554,14.974-46.563
		c13.927,2.588,28.307,4.186,41.696,3.866c15.987-0.378,32.087-3.981,47.879-8.122c-0.998,8.128,1.355,19.105,8.264,22.422
		c5.391,2.585,12.496,2.355,19.298,1.044c-0.44,7.171,4.041,17.836,9.456,21.719c-0.73,2.021-1.138,6.907,0.897,8.74
		c2.035,1.831,6.107,4.072,10.835,4.507c0.77,8.74,5.824,20.909,15.834,24.619c-2.297,18.553-1.547,38.417-0.808,57.497
		c-11.612,8.87-19.145,29.028-20.367,39.614c12.012,15.064,55.378,14.046,64.336-5.497c-1.205-7.931-10.792-27.688-21.383-33.809
		c-0.564-8.522-3.35-49.613-5.449-61.415c9.429-6.022,14.211-20.426,15.027-31.373c2.896-1.843,6.726-4.687,7.529-6.564
		c0.804-1.877,1.426-7.938-1.166-10.839c5.035-10.129,4.041-21.256,2.592-25.458c10.325-3.639,17.968-15.272,21.326-25.12
		c8.215-24.072-15.657-30.239-25.936-53.749c1.439-0.351,25.441-5.173,28.887-7.605c2.473-1.745,8.58-19.487,6.835-26.175
		c-0.88-3.375-5.63-1.72-5.675-1.772c-1.106-1.332-4.066-3.024-7.123-1.571c-5.949,2.826-11.401,8.593-12.73,15.662
		c-0.188,0.023-1.744,0.26-2.33,0.358c-0.247-1.208-0.552-2.413-0.906-3.617c3.336-2.235,17.279-24.031,19.52-28.617
		c14.74-1.521,29.446-3.445,43.748-7.431c21.693-6.044,51.165-23.815,48.277-50.43C573.744,366.166,573.503,365.726,573.167,365.379
		z M173.377,327.312c-1.575-7.357-8.2-13.758-13.772-18.442c-10.473-8.802-19.452-16.95-26.694-26.984
		c9.113,3.68,21.449,2.548,29.893,0.428c8.807-2.212,17.049-7.603,21.947-15.112c6.563,2.698,14.325,4.256,20.653,2.235
		c1.84-0.59,3.547-1.625,5.136-2.938C196.181,284.371,183.076,305.262,173.377,327.312z M263.912,133.778
		c0.068,0.104,0.151,0.181,0.236,0.254c-0.364,0.64-0.628,1.317-0.837,2.012c-4.086-0.688-9.06,3.398-9.69,9.451
		c-2.297-0.657-4.49-1.196-6.314-3.262c-2.12-2.399-2.759-5.069-2.646-8.247c0.175-4.901,2.458-9.115,6.229-12.278
		c1.083,2.619,5.78,5.87,11.319,4.713C262.024,129.068,262.504,131.642,263.912,133.778z"/>
	<path fill="#4C6DB3" d="M442.237,226.027c-6.643,7.715-15.841,26.683-18.456,35.879c-2.295,8.074-4.148,18.195-4.916,27.832
		c-0.802-9.683-2.176-19.509-0.985-29.384c0.906-7.507,4.54-26.612,13.608-36.653C434.806,224.257,438.857,224.661,442.237,226.027z
		"/>
	<path fill="#4C6DB3" d="M408.713,421.422c-12.217,9.015-46.122,22.01-68.848,23.826c-27.016,2.159-54.346-0.829-80.43-8.03
		c-20.792-5.741-40.804-14.95-59.015-26.497c-13.939-8.84-30.324-21.755-34.709-38.674c1.591-10.84,4.366-21.468,8.074-31.842
		c2.635,16.182,20.168,30.721,31.696,39.538c23.507,17.974,52.353,28.402,81.02,34.749c34.526,7.64,70.368,4.232,103.516-7.666
		c15.651-5.618,31.584-13.201,44.352-23.99c10.741-9.072,19.105-20.719,30.111-29.459c5.907,1.662,16.465,2.407,24.772,1.323
		c-4.695,5.418-26.324,22.052-35.693,28.93c-9.355,6.866-19.455,9.524-30.408,12.693
		C409.439,400.29,407.082,410.851,408.713,421.422z"/>
	<path fill="#EDBB92" d="M415.548,441.781c-2.035,5.816-6.214,12.197-12.798,14.833c-7.998,3.201-12.03-6.296-7.904-7.729
		c4.126-1.435,7.862-5.023,10.185-8.808c1.946-3.17,4.026-7.067,5.421-11.06C411.945,433.644,415.563,441.755,415.548,441.781z"/>
	<path fill="#FFFFFF" d="M436.681,375.259c-11.738,11.348-26.094,18.775-41.031,25.072c-32.55,13.718-68.766,17.658-103.471,11.387
		c-26.942-4.87-54.617-14.565-77.593-29.629c-14.727-9.652-38.398-26.977-38.909-46.951c4.533-11.655,10.175-22.986,16.536-33.933
		c7.293,45.709,58.135,66.204,97.641,73.817c21.858,4.213,46.784,4.583,68.925,2.001c32.021-3.733,57.975-19.978,85.072-35.948
		c4.154,4.8,9.72,8.362,16.038,10.792C451.518,358.93,444.535,367.67,436.681,375.259z"/>
	<path fill="#4C6DB3" d="M360.533,373.198c-20.171,2.986-41.107,1.919-61.211-1.016c-43.359-6.324-95-25.08-106.396-72.189
		c2.808-4.783,5.736-9.501,8.778-14.133c12.186,34.913,48.722,57.924,82.127,64.265c55.011,10.441,110.024,3.214,150.095-23.209
		c1.669,2.808,3.924,6.844,7.569,11.046C415.619,353.322,390.974,368.689,360.533,373.198z"/>
	<path fill="#FFFFFF" d="M291.46,348.92c-34.08-4.081-75.769-28.751-89.039-64.171c4.26-6.438,8.708-12.72,13.251-18.835
		c6.746,39.546,42.708,60.904,80.336,66.819c36.734,5.776,76.22-0.556,108.94-18.462c2.185,1.913,4.301,3.381,7.407,4.041
		c3.497,0.743,9.266,0.762,11.253-2.351c0.833-1.304,1.069-3.203,1.157-5.032c1.143,2.489,5.909,11.221,7.097,13.154
		C392.566,347.594,358.517,356.949,291.46,348.92z"/>
	<path fill="#4C6DB3" d="M291.645,315.989c35.689,8.396,81.01,2.878,111.524-18.392c1.292,3.536,2.954,6.92,5.218,9.993
		c-32.62,18.14-68.583,26.2-106.032,22.398c-18.928-1.921-37.758-7.467-53.733-17.982c-17.017-11.201-27.238-28.681-31.242-48.343
		c3.476-4.628,8.64-11.567,12.062-14.649C226.358,282.999,261.801,308.971,291.645,315.989z"/>
	<path fill="#FFFFFF" d="M246.228,233.522c-3.11,2.46-5.996,5.212-9.32,7.473c-1.961,1.334-3.906,2.672-5.736,4.14
		c-0.029-0.04-0.029-0.096-0.064-0.132c7.876-9.748,15.589-20.302,20.227-31.887c0.554,0.432,1.135,0.813,1.75,1.101
		c-3.828,4.583-6.598,10.046-7,16.148C246.01,231.47,246.083,232.515,246.228,233.522z"/>
	<path fill="#FFFFFF" d="M239.711,242.237c2.5-1.603,5.237-3.321,7.438-5.458c0.752,1.665,1.914,3,3.377,3.962
		c-5.18,16.402,2.706,33.967,13.722,46.094c13.542,14.906,32.883,21.947,52.609,22.975c37.658,1.961,64.729-29.26,77.896-61.88
		c0.182,8.223,1.186,16.43,3.217,24.396c1.857,7.278,4.92,15.603,11.371,20.011c0.081,0.562,0.141,1.126,0.245,1.685
		c-0.257,0.015-2.774,1.775-3.638,2.647c-2.131-3.917-3.771-8.153-4.761-12.392c-0.184-0.785-1.53-0.519-1.383,0.273
		c0.584,3.172,1.27,6.355,2.178,9.46c-28.025,20.172-67.325,25.232-100.9,21.002c-34.51-4.343-69.9-29.965-70.165-67.013
		C233.817,246.036,236.753,244.133,239.711,242.237z"/>
	<path fill="#4C6DB3" d="M295.347,296.198c31.06,8.669,69.039-8.771,79.441-37.545c3.717-3.076,6.636-7.637,6.223-12.16
		c3.887-0.971,7.764-1.979,11.506-3.198c-11.886,30.177-33.933,60.023-68.32,63.251c-18.388,1.728-36.351-3.629-51.025-14.723
		c-7.817-5.909-14.065-13.705-18.242-22.546c-4.262-9.019-4.258-18.281-3.11-27.826c0.469,0.206,0.935,0.415,1.457,0.545
		C250.682,267.009,272.485,289.817,295.347,296.198z"/>
	<path fill="#EDBB92" d="M255.095,242.316c0.785,0.048,1.601,0.042,2.475-0.071c1.033,7.168,7.681,13.71,15.306,13.004
		c0.048,2.229,0.446,4.425,1.291,6.449c2.309,5.511,8.424,7.735,13.361,4.47c1.566,3.443,4.742,5.738,9.231,6.844
		c5.147,1.264,11.373,0.979,14.794-3.322c4.685,5.754,13.258,8.029,19.319,2.162c5.997-5.802,7.349-8.85,17.514-6.668
		c4.301,0.923,6.073-1.512,7.462-4.363c3.429,2.032,9.155,2.048,13.024,1.134c-12.465,25.188-42.712,36.532-69.528,30.399
		C273.06,286.343,259.037,267.187,255.095,242.316z"/>
	<path fill="#4C6DB3" d="M409.63,302.435c-0.878-1.128-1.673-2.339-2.438-3.573c0.932-0.714,1.88-1.399,2.994-1.817
		c0.039-0.014,0.057-0.042,0.094-0.059c0.968,3.824,2.364,7.438,4.448,10.441C412.712,306.157,411.047,304.255,409.63,302.435z"/>
	<path fill="#FFFFFF" d="M414.914,313.517c-0.999,0.276-2.026,0.46-3.135,0.438c-1.595-0.034-3.227-0.316-4.768-0.822
		c1.402-0.796,2.783-1.628,4.157-2.466C412.278,311.691,413.565,312.705,414.914,313.517z"/>
	<path fill="#FFFFFF" d="M416.54,222.468c3.629-0.24,8.494-0.24,11.651,0.771c-7.622,7.829-10.893,22.808-12.436,32.713
		c-2.247,14.401-0.216,36.281,3.233,49.104c-6.027-10.004-8.47-21.516-8.227-33.581c0.015-0.7-1.104-0.801-1.222-0.113
		c-0.348,2.049-0.607,4.346-0.765,6.762c-1.357-6.031-2.379-12.126-2.444-18.693c-0.068-7.089,0.844-14.179,2.645-21.027
		C410.544,232.425,413.048,226.024,416.54,222.468z"/>
	<path fill="#4C6DB3" d="M410.138,226.402c-5.034,8.971-6.109,21.996-6.315,30.744c-0.231,9.736,0.62,22.522,4.888,32.383
		c-10.058-13.775-12.017-32.513-11.136-49.161c2.187-1.973,3.773-4.591,4.278-7.405C404.81,232.026,407.9,229.422,410.138,226.402z"
		/>
	<path fill="#EDBB92" d="M416.97,168.679c-4.865,4.205-8.753,0.231-10.799-6.632s0.77-16.757,3.011-20.544
		c0.841-0.07,1.928-0.119,3.076-0.149c0.287,2.416,0.95,4.854,1.044,7.284c0.062,1.617-1.084,7.315-3.316,4.225
		c-0.406-0.562-1.304-0.192-1.116,0.502c0.81,3.003,3.656,4.155,5.536,1.098c2.176-3.544,2.283-8.844,1.132-13.15
		c0.865,0,1.673,0.008,2.313,0.025C422.169,149.52,420.512,165.617,416.97,168.679z"/>
	<path fill="#CF001E" d="M524.108,240.417c-15.727-9.096-38.947-10.061-54.844-16.585c-23.86-9.795-31.065-42.76-29.621-52.392
		c1.027-0.067,3.063-0.005,4.099-0.266c0.84,7.49,3.146,21.07,10.231,32.296c1.445,2.289,3.27,2.28,2.905,1.745
		c-4.504-6.647-6.446-13.49-7.366-20.709c8.248,15.163,21.691,26.421,38.313,32.209c3.113,1.084,5.489,0.85,4.196,0.24
		c-10.39-4.888-23.13-13.495-30.544-22.328c-5.231-6.234-8.731-13.515-12.731-20.506v-0.022c7.419,9.776,23.543,15.686,32.834,21.14
		C499.514,205.778,513.63,222.485,524.108,240.417z"/>
	<path fill="#CF001E" d="M492.134,170.341c9.036,0.632,17.433,3.361,25.579,7.188c3.781,1.775,7.143,4.148,10.501,6.468
		c-5.912,0.355-12.014,1.84-17.269,2.946c-7.063,1.484-14.818,3.341-20.92,7.419c-7.171-5.08-15.239-8.985-22.867-13.264
		c-1.786-1.001-3.472-2.103-5.113-3.246c8.065,1.595,21.223,1.637,28.049,2.495c0.566,0.074-1.211-1.437-3.975-1.806
		c-10.323-1.382-25.454-1.515-33.613-9.417C465.291,171.862,479.226,169.441,492.134,170.341z"/>
	<path fill="#CF001E" d="M431.86,134.021c6.099-2.918,14.271,1.168,18.324,7.738c4.115,6.666,2.464,22.334-7.241,22.475
		c4.407-5.438,3.36-9.765,2.24-14.709c-0.602-2.649-1.859-3.236-1.719-2.503c1.84,9.484-3.977,17.912-7.077,17.291
		c-10.108-2.027-12.717-14.472-10.309-20.034c0.307,0.206,4.642,0.788,6.1,0.911C433.085,145.27,431.18,137.179,431.86,134.021z"/>
	<path fill="#CF001E" d="M291.456,105.038c0.533,0.212,1.062,0.44,1.593,0.658c-0.501,0.951-1.006,1.896-1.528,2.822
		c-0.632,1.121,1.065,2.422,2.002,1.564c0.99-0.906,1.985-1.911,2.991-2.952c5.236,2.224,16.296,7.238,21.636,9.164
		c1.439,0.516-1.084-2.65-4.696-4.575c-4.597-2.45-9.409-5.339-14.04-7.606c5.145-5.309,10.835-10.405,18.268-8.872
		c8.048,1.656,9.432-10.662,1.066-11.303c-13.399-1.024-18.696,8.266-23.778,18.069c-4.507-2.063-9.109-3.931-13.942-5.379
		c-1.983-0.592-4.518-1.019-6.99-1.075c6.25-15.553,23.292-31.252,35.779-40.771c20.288-15.462,44.886-13.761,67.604-5.492
		c18.657,6.788,36.128,19.769,45.461,37.418c6.138,11.605,6.479,24.157,3.705,36.614c-0.99,4.439-1.749,8.303-1.222,12.256
		c-5.346-1.465-11.847-0.381-18.157-0.014c-10.665,0.621-21.46,0.833-32.192-0.629c-1.594-6.482-6.896-16.518-10.185-20.681
		c-4.789-6.064-16.935-16.145-22.122-5.071c-1.626,3.463,1.692,6.745,6.846,6.796c8.265,0.082,18.886,13.021,19.772,18.132
		c-2.325-0.412-11.56-1.925-16.546-3.203c-28.579-7.326-82.342-20.435-82.988-28.181C269.146,94.98,287.518,103.472,291.456,105.038
		z"/>
	<path fill="#A7001E" d="M445.327,180.958c-0.799-3.758-1.289-7.159-1.585-9.784c-1.036,0.26-3.071,0.198-4.099,0.266
		c-0.644,4.298,0.449,13.244,3.96,22.701C443.236,189.76,443.727,185.332,445.327,180.958z"/>
	<path fill="#A7001E" d="M454.854,201.87c-0.014-4.329-1.086-8.413-2.443-12.581c-1.016-1.555-2.001-3.135-2.898-4.784
		C450.28,190.519,451.778,196.273,454.854,201.87z"/>
	<path fill="#A7001E" d="M489.366,215.625c-6.838-14.173-21.704-23.283-35.036-31.537c2.122,3.671,4.392,7.252,7.147,10.538
		C468.276,202.725,479.531,210.596,489.366,215.625z"/>
	<path fill="#A7001E" d="M474.756,179.265c-4.572-0.305-9.136-0.706-12.711-1.411c1.642,1.143,3.327,2.244,5.113,3.246
		c7.628,4.278,15.696,8.184,22.867,13.264c5.469-3.654,12.265-5.523,18.705-6.942C496.839,185.725,484.641,184.621,474.756,179.265z
		"/>
	<path fill="#A7001E" d="M464.136,170.412c-3.939-0.122-7.834-0.474-11.63-1.287c4.544,4.402,11.251,6.375,18.088,7.513
		C468.248,174.921,466.083,172.864,464.136,170.412z"/>
	<path fill="#A7001E" d="M429.874,144.926c-1.704-0.223-3.595-0.514-3.795-0.646c-2.408,5.563,0.2,18.007,10.309,20.034
		c2.412,0.482,6.457-4.524,7.27-11.235C435.238,156.928,431.375,151.831,429.874,144.926z"/>
	<path fill="#A7001E" d="M451.028,157.526c-0.321-2.311-1.677-4.059-3.923-4.738c-0.542-0.045-0.985-0.231-1.341-0.505
		c0.729,3.866,0.75,7.546-2.821,11.952c4.083-0.06,6.726-2.881,8.128-6.612C451.064,157.585,451.034,157.563,451.028,157.526z"/>
	<path fill="#A7001E" d="M294.969,102.007c2.418-4.664,4.896-9.199,8.263-12.578c-7.216-2.565-14.561-4.735-22.116-6.302
		c-2.934,4.073-5.404,8.252-7.08,12.426c2.472,0.056,5.007,0.482,6.99,1.075C285.86,98.076,290.462,99.944,294.969,102.007z"/>
	<path fill="#A7001E" d="M318.526,116.143c8.895,3.795,18.249,6.609,27.689,7.899c5.831,0.799,11.528,0.799,17.167,0.381
		c-3.968-4.414-9.256-8.399-13.829-8.444c-5.153-0.051-8.472-3.333-6.846-6.796c0.482-1.03,1.041-1.823,1.635-2.505
		c-2.196-0.847-4.375-1.748-6.527-2.727c-6.52-2.96-13.021-5.89-19.572-8.653c-0.188-0.022-0.364-0.019-0.562-0.059
		c-7.433-1.533-13.123,3.563-18.268,8.872c4.631,2.267,9.443,5.156,14.04,7.606C316.298,113.234,318.434,115.491,318.526,116.143z"
		/>
	<path fill="#A7001E" d="M386.294,133.801c-1.992,0.703-3.96,1.225-5.923,1.668c8.962,0.785,17.942,0.612,26.835,0.096
		c4.434-0.257,8.951-0.853,13.105-0.686C410.672,127.073,397.685,129.777,386.294,133.801z"/>
	<path fill="#A7001E" d="M370.539,123.689c10.228-1.304,20.365-3.505,30.863-4.369c9.317-0.77,18.741-0.163,24.617,6.692
		c0.175-0.88,0.36-1.767,0.566-2.689c2.774-12.457,2.433-25.009-3.705-36.614c-1.162-2.198-2.453-4.323-3.855-6.375
		c1.675,3.55,2.8,7.235,3.032,10.992c0.908,14.847-13.598,21.067-26.305,22.41c-11.08,1.174-22.083,0.525-32.815-1.654
		c0.707,0.751,1.351,1.487,1.893,2.173C366.47,116.329,368.608,119.866,370.539,123.689z"/>
	<path fill="#EDBB92" d="M395.091,159.011c-3.194,1.699-5.783,4.007-7.456,7.484c-1.462,3.045-0.448,7.738,2.7,9.113
		c-2.528,3.641-3.519,8.187-0.832,11.935c-3.068,4.8-4.013,10.58-0.454,15.784c-1.646,2.021-2.881,4.924-3.35,6.313
		c-0.564,1.679-1.053,3.474-1.293,5.278c-2.145-1.426-6.135,1.329-7.379,3.976c-2.798-2.209-5.029-0.572-5.801,0.63
		c-0.744,1.157-0.908,2.709-0.977,4.12c-3.02-0.948-8.816,0.037-11.154,5.684c-2.098-2.831-5.146-4.358-9.051-4.188
		c-2.01,0.09-3.731,0.898-5.222,2.071c-0.118-3.093-4.383-7.904-11.74-5.554c-0.296-3.005-3.137-7.16-5.759-7.419
		c1.49-0.612,2.939-1.382,4.318-2.339c1.453-1.01,0.386-3-1.161-2.958c-5.354,0.152-10.565,0.92-15.911,0.124
		c-4.585-0.683-8.804-3.025-13.173-4.439c-0.919-0.296-1.625,0.688-1.094,1.476c2.579,3.821,6.107,6.562,10.041,8.167
		c-0.751,1.454-1.076,3.432-0.876,5.351c-2.102,0.477-3.64,2.39-4.512,4.479c-0.479,1.146-0.644,2.312-0.638,3.477
		c-2.585-3.231-7.172-3.717-10.627-1.722c-0.27-1.18-0.859-2.365-1.274-3.353c-0.869-2.071-1.936-4.112-3.291-5.907
		c-1.014-1.343-2.375-2.602-4.09-2.875c-0.841-0.136-1.526,0.028-2.102,0.364c-2.46-2.3-4.421-3.833-7.278-3.198
		c-0.968-3.604-1.892-7.255-3.743-10.515c-1.121-1.973-2.676-3.243-4.482-4.128c0.004-0.02,0.022-0.028,0.025-0.048
		c0.936-6.539-2.241-12.366-7.118-16.467c0.164-0.073,0.329-0.155,0.432-0.335c2.471-4.321,1.957-9.736,0.85-14.644
		c0.172-0.04,0.344-0.116,0.506-0.254c5.277-4.499,6.31-11.32,5.893-17.887c0.089-0.022,0.177-0.031,0.27-0.079
		c4.95-2.59,9.66-9.877,6.312-15.042c1.616-5.61,4.178-10.856,7.125-15.507c0.962,0.477,1.974,0.883,2.966,1.318
		c-6.312,5.227,0.79,15.759,6.721,19.156c7.841,4.493,19.333-2.65,19.795-11.348c5.017,1.053,9.157,2.052,13.761,3.06
		c-6.271,9.702-0.599,21.941,10.803,25.375c-1.096,0.641-2.055,1.428-2.704,2.447c-0.539,0.847,0.136,1.73,1.005,1.851
		c3.15,0.435,6.478-0.931,9.646-1.244c4.346-0.429,8.754-0.495,13.117-0.601c1.213-0.029,1.846-1.806,0.648-2.399
		c-2.195-1.086-4.48-1.772-6.818-2.136c5.334-3.096,9.273-8.531,9.545-15.048c3.545,0.804,7.105,1.558,10.69,2.235
		c3.482,6.305,6.253,5.825,5.042,0.886c7.21,1.197,14.373,2.035,21.706,2.452c-0.213,0.229-0.427,0.423-0.636,0.688
		c-1.674,2.111-2.972,4.462-3.963,6.962C391.852,152.669,392.117,157.342,395.091,159.011z"/>
	<path fill="#FFFFFF" d="M296.586,124.736c-2.836,1.823-3.487,5.577-2.506,8.571c0.217,0.663,0.633,1.349,1.17,1.964
		c-0.892-0.172-1.767-0.426-2.578-0.818c-5.922-2.864-10.465-10.868-6.231-16.382c6.681,2.729,13.885,4.631,21.024,6.214
		c-0.218,1.239-0.384,2.447-0.666,3.624C305.501,124.259,300.201,122.414,296.586,124.736z"/>
	<path fill="#FFFFFF" d="M303.147,130.725c-1.93,0-1.93-2.992,0-2.992C305.072,127.733,305.072,130.725,303.147,130.725z"/>
	<path fill="#FFFFFF" d="M349.196,137.518c-3.096-1.12-6.714-0.175-9.022,2.091c-2.65,2.596-3.135,6.578-1.095,9.69
		c0.599,0.915,1.507,1.708,2.534,2.3c-1.226,0.212-2.306,0.161-3.508,0.596c-11.345-2.836-16.845-15.962-9.829-23.511
		c9.211,2.097,18.321,4.476,27.487,6.663c0.013,2.475-0.447,4.859-1.282,7.035c-0.463-1.01-1.106-1.938-1.441-2.348
		C352.057,138.838,350.626,138.034,349.196,137.518z"/>
	<path fill="#FFFFFF" d="M349.441,146.277c-3.266,0-3.266-5.063,0-5.063C352.704,141.215,352.704,146.277,349.441,146.277z"/>
	<path fill="#EDBB92" d="M265.834,104.912c0.988,2.503,4.064,4.109,7.199,5.785c-4.269,1.625-7.956,5.943-9.738,10.771
		c-4.795,2.337-8.782,0.031-10.06-1.611c1.105-0.692,2.323-1.372,3.567-1.761c0.131,0.211,1.119,1.428,1.806,1.083
		c0.993-0.497-1.128-3.161-2.517-7.213c-0.24-0.7-1.321-0.238-0.893,1.515c-1.392,0.305-2.731,0.726-4.018,1.25
		C250.21,107.53,259.106,104.324,265.834,104.912z"/>
	<path fill="#E1C762" d="M236.576,132.951c3.71-10.058,13.601-16.915,18.873-18.422c0.316,0.903,0.596,1.708,0.903,2.528
		c-8.016,2.862-12.877,9.632-13.639,17.757c-0.63,6.719,3.64,13.769,10.779,13.735c-0.502,0.437-1.408,2.966-1.82,3.494
		C239.984,152.348,232.186,144.85,236.576,132.951z"/>
	<path fill="#EEDFA6" d="M240.76,137.171c0.087-3.116,0.165-7.202-0.453-11.063c-1.512,2.065-2.812,4.354-3.73,6.843
		c-2.134,5.783-1.372,10.513,1.299,13.826c0.872-1.504,1.664-3.045,2.313-4.648C240.493,140.529,240.712,138.889,240.76,137.171z"/>
	<path fill="#D6B32A" d="M255.449,114.529c-2.56,0.734-6.192,2.805-9.691,5.819c0.74,0.878,1.265,1.922,1.626,3.057
		c2.262-2.78,5.234-5.012,8.968-6.347C256.044,116.236,255.765,115.432,255.449,114.529z"/>
	<path fill="#D6B32A" d="M245.261,144.268c-0.904,1.987-2.009,3.926-3.304,5.727c2.67,1.397,5.97,2.148,9.715,2.049
		c0.412-0.527,1.318-3.057,1.82-3.494C249.956,148.566,247.142,146.827,245.261,144.268z"/>
	<path fill="#DC7C00" d="M241.805,196.223c0.456-4.098,9.018-12.75,9.736-13.29c0.539-0.403,0.178-1.453-0.525-1.146
		c-0.679,0.293-1.338,0.646-1.986,1.022c-3.886-4.657-3.278-14.069,6.887-20.065c0.56-0.331,0.307-1.104-0.244-1.259
		c-0.985-0.276-1.917-0.265-2.821-0.127c-1.181-2.029-0.271-7.343,2.244-10.117c0.937,1.428,2.276,2.492,4.013,2.709
		c0.73,0.09,1.823-1.095,1.189-1.434c-3.164-1.691-4.212-4.651-3.467-8.672c0.76-4.098,3.946-5.92,6.154-5.568
		c-0.007,0.829,0.073,1.682,0.363,2.577c0.257,0.796,1.46,0.711,1.73-0.02c1.527-4.123,2.037-8.229,5.331-11.5
		c0.461-0.46-0.174-1.27-0.72-0.897c-1.36,0.923-2.687,2.023-3.815,3.26c-2.365-6.677,2.493-15.784,9.471-19.366
		c1.218,0.85,3.027,1.88,4.612,2.727c-3.175,4.371-5.932,9.527-6.763,14.83c-0.508-0.302-2.029,0.81-1.64,1.354
		c3.037,4.25,0.044,10.701-3.745,13.035c-0.033-0.305-0.053-0.615-0.093-0.917c-0.1-0.776-1.274-0.762-1.233,0.045
		c0.326,6.612-0.219,14.218-5.477,18.846c-0.156-0.593-0.316-1.183-0.474-1.747c-0.248-0.881-1.484-0.415-1.315,0.435
		c1.41,7.047,1.41,13.27-0.395,17.607c-0.508-0.364-1.008-0.742-1.543-1.069c-0.538-0.333-1.243,0.429-0.848,0.934
		c3.986,5.091,7.104,10.605,8.63,16.907c-0.703-0.215-1.421-0.401-2.162-0.559c-0.707-0.149-1.142,0.96-0.43,1.225
		c7.358,2.749,8.315,11.283,9.937,17.917c0.308,1.259,1.677,1.857,2.829,1.304c2.098-1.008,4.102-0.051,6.167,0.559
		c-0.606,1.061-0.971,2.331-1.313,3.344c-0.655,1.942,0.096,3.364,0.329,2.599c0.764-2.515,2.734-6.011,5.576-4.591
		s4.591,7.543,5.017,11.159c-0.329,0.451-0.635,0.931-0.882,1.467c-0.392,0.846,0.646,1.47,1.335,1.041
		c1.916-1.191,3.667-2.664,5.979-2.791c4.956-0.271,5.938,1.479,7.281,3.059c0.517,3.011,2.61,3.57,2.225,2.545
		c-1.598-4.236-0.068-10.139,3.487-10.747c0.59,1.067,1.417,1.922,2.557,2.317c0.537,0.184,1.64-0.251,1.272-0.762
		c-1.698-2.371-1.916-6.415,0.009-8.949c3.736,0.767,7.665,0.575,11.391-0.618c1.213,1.047,4.504,4.359,5.277,8.071
		c-1.013,0.723-1.976,1.558-2.901,2.405c-0.534,0.485,0.226,1.377,0.807,0.968c2.185-1.532,12.36-5.006,13.73,3.138
		c-1.234,1.479-2.27,3.141-3.131,4.688c-0.392,0.702,0.621,1.32,1.141,0.762c2.156-2.32,4.825-4.569,7.766-5.793
		c3.836-1.594,7.374,1.673,10.272,3.813c0.029,1.053,0.153,2.117,0.339,3.155c0.136,0.739,1.248,0.477,1.245-0.214
		c-0.009-2.545,0.357-5.577,2.216-7.337c1.969-1.869,4.594-3.17,7.906-2.075c0.622,4.699,2.786,5.875,2.592,5.136
		c-0.988-3.717-1.265-6.31-0.661-8.966c0.548-2.404,2.407-3.934,4.109-0.522c-0.04,1.758,0.321,3.567,0.654,5.309
		c0.141,0.722,1.289,0.494,1.244-0.214c-0.148-2.388,0.115-10.369,5.997-9.291c0.094,1.642,0.497,3.251,1.369,4.741
		c0.353,0.604,1.442,0.347,1.482-0.355c0.214-3.59-0.226-6.912,1.021-10.395c1.317-3.688,4.55-7.789,9.607-8.511
		c1.995-0.286-3.012-3.251-5.696-2.131c-4.058-3.409-0.205-14.006,5.679-19.774c0.636-0.624-0.316-1.586-1.021-1.126
		c-1.693,1.106-3.302,2.48-4.719,4.021c-2.071-1.942-0.627-6.877,4.346-12.265c0.652-0.705-0.35-1.67-1.117-1.185
		c-1.067,0.677-2.1,1.521-3.037,2.484c-3.589-2.656-2.263-9.037,6.271-14.325c-2.755-2.058-4.442-8.678,3.381-16.983
		c1.526-0.062,3.16-0.195,4.862-0.347c-9.069,14.79-5.554,32.384,2.669,34.545c0.006,4.764-1.824,9.175-4.845,12.872
		c-0.514,0.632,1.053,1.089,3.558-1.106c6.404,4.484-3.719,11.218-6.228,13.32c-0.638,0.534-0.06,1.518,0.699,1.106
		c1.993-1.083,4.025-2.13,5.858-3.403c0.797,1.118,1.73,2.119,2.25,3.426c0.67,1.677,0.028,3.629-0.632,5.187
		c-1.211,2.845-3.745,6.04-6.599,7.307c-0.81,0.361-0.222,1.823,3.336,0.373c2.921,3.195,3.52,5.98,0.7,9.697
		c-1.529,2.015-3.497,3.372-5.536,4.682c-0.362-3.962-2.278-6.409-2.219-5.384c0.326,5.687-1.019,10.605-5.512,12.77
		c-2.859,1.375-6.037,1.981-9.093,2.744c-4.995,1.247-13.198,2.286-14.802,8.167c-0.184,0.674,0.602,1.049,1.135,0.906
		c1.74-0.471,3.501-0.917,5.274-1.36c-0.514,4.549-4.677,7.326-7.406,8.75c-5.745,3.003-13.878,1.044-18.69-3.657
		c-0.882-0.863-1.201,2.515,2.583,5.983c-0.509,1.125-1.163,3.64-3.46,3.202c-2.294-0.437-7.937-1.747-12.355-0.437
		c-3.263,0.971-6.778,3.635-8.805,6.206c-6.658,8.44-14.472-0.443-18.942-6.181c-0.451-0.582-1.479-0.302-1.394,0.5
		c0.175,1.665,0.669,3.231,1.366,4.688c-7.2,2.553-18.92,2.96-21.371-6.322c-0.242-0.915-1.782-1.12-1.816,0.014
		c-0.032,1.09,0.075,2.086,0.243,3.042c-4.278,1.476-7.617-0.968-9.279-6.468c-1.094-3.618-1.103-7.775-0.801-11.511
		c0.073-0.906-1.172-1.338-1.566-0.454c-1.007,2.263-1.696,4.795-1.985,7.365c-7.616-0.271-13.654-8.932-12.343-17.748
		c0.112-0.75-0.996-1.366-1.451-0.641c-1.091,1.739-1.653,3.618-1.791,5.514c-7.096-2.311-8.127-7.083-6.121-14.006
		c1.38-4.763,3.824-10.476,7.004-14.322c0.563-0.68-0.398-1.787-1.084-1.168c-0.659,0.596-1.299,1.219-1.926,1.857
		c-6.075-2.492-6.053-10.84-4.956-14.068c0.235-0.691-0.814-0.996-1.15-0.42c-0.998,1.707-1.693,3.321-2.028,5.028
		C243.02,202.75,241.349,200.32,241.805,196.223z"/>
	<path fill="#E39430" d="M258.999,151.617c0.13-0.125,0.255-0.257,0.387-0.378c0.065-0.06,0.137-0.094,0.205-0.144
		c-1.08-4.411-0.777-8.988,1.757-12.703c-1.907,0.503-3.931,2.297-4.516,5.453C256.204,147.24,256.875,149.862,258.999,151.617z"/>
	<path fill="#E39430" d="M253.024,161.348c0.666-2.955,2.303-5.695,4.321-8.001c-0.9-0.491-1.662-1.211-2.249-2.105
		c-2.515,2.774-3.425,8.088-2.244,10.117C252.909,161.35,252.968,161.355,253.024,161.348z"/>
	<path fill="#E39430" d="M258.382,185.298c0.001,0.201-0.069,0.35-0.102,0.528c0.326,2.026,1.044,3.92,2.651,5.162
		c1.055,0.815,2.238,1.405,3.428,1.984c-1.267-4.016-3.153-7.724-5.508-11.207c-0.2,0.155-0.423,0.268-0.655,0.353
		C258.313,183.148,258.377,184.195,258.382,185.298z"/>
	<path fill="#E39430" d="M272.041,212.345c-1.018-4.453-2.002-9.44-4.833-12.908c-0.205,0.068-0.417,0.116-0.632,0.144
		C266.805,204.751,268.114,209.303,272.041,212.345z"/>
	<path fill="#E39430" d="M292.114,230.835c4.391-0.353,8.728-0.488,12.727,0.674c-0.04-0.155-0.09-0.288-0.119-0.459
		c-1.343-1.581-2.325-3.33-7.281-3.059c-2.112,0.115-3.761,1.351-5.49,2.475C292.007,230.59,292.06,230.711,292.114,230.835z"/>
	<path fill="#E39430" d="M290.944,228.38c0.024-0.034,0.042-0.074,0.066-0.107c-0.425-3.616-2.175-9.739-5.017-11.159
		c-1.637-0.818-2.973,0.014-3.966,1.329C286.006,220.272,288.85,224.266,290.944,228.38z"/>
	<path fill="#E39430" d="M309.025,233.358c0.201-1.761,0.602-3.488,1.006-5.221c0.313-1.346,0.953-3.203,0.757-4.741
		c-0.122-0.178-0.246-0.355-0.354-0.548c-3.152,0.539-4.699,5.233-3.9,9.246C307.386,232.436,308.213,232.87,309.025,233.358z"/>
	<path fill="#E39430" d="M333.716,226.642c2.8,1.834,4.605,4.732,5.678,7.874c-0.021-0.13-0.03-0.265,0.051-0.409
		c0.861-1.546,1.896-3.208,3.131-4.688c-1.118-6.646-8.097-5.554-11.817-4.095C331.747,225.598,332.737,225.999,333.716,226.642z"/>
	<path fill="#E39430" d="M392.048,201.217c0.863-0.361,1.971-0.296,3.007-0.033c-0.718-2.639-1.637-5.642-1.729-6.302
		c-0.408-2.975-0.098-5.963,0.723-8.802C390.491,191.738,388.93,198.599,392.048,201.217z"/>
	<path fill="#E39430" d="M387.762,213.345c0.302-0.376,0.569-0.7,0.751-0.895c2.387-2.58,4.571-4.843,7.331-6.993
		c0.134-0.104,0.062-0.717-0.124-1.598c-3.897,1.378-6.451,4.834-7.583,8C387.96,212.359,387.877,212.85,387.762,213.345z"/>
	<path fill="#E39430" d="M358.856,235.052c-0.099-0.723-0.212-1.442-0.232-2.165c-2.898-2.139-6.437-5.407-10.272-3.813
		c-2.206,0.92-4.258,2.413-6.055,4.083C347.537,231.338,353.335,232.487,358.856,235.052z"/>
	<path fill="#E39430" d="M361.204,236.22c2.507-3.093,5.915-6.494,9.798-6.993c-0.275-0.748-0.522-1.671-0.672-2.811
		c-3.313-1.095-5.938,0.206-7.906,2.075c-1.829,1.735-2.208,4.698-2.21,7.222C360.543,235.881,360.876,236.042,361.204,236.22z"/>
	<path fill="#E39430" d="M372.806,229.205c0.889,0.102,2.367-1.025,4.063-2.712c-0.275-1.467-0.533-2.963-0.499-4.428
		c-1.702-3.412-3.562-1.882-4.109,0.522c-0.469,2.055-0.395,4.089,0.113,6.618C372.52,229.213,372.659,229.188,372.806,229.205z"/>
	<path fill="#C76D00" d="M393,163.574c2.965,0.57,6.775,1.617,6.727,1.597c0.752,0.277,1.485,0.618,2.216,0.962
		c-1.477-6.852-0.364-16.077,4.75-24.417c-1.702,0.152-3.336,0.285-4.862,0.347c-7.823,8.305-6.136,14.926-3.381,16.983
		C396.093,160.506,394.307,162.05,393,163.574z"/>
	<path fill="#C76D00" d="M244.893,190.367c-1.608,2.148-2.917,4.321-3.088,5.856c-0.456,4.098,1.215,6.527,5.379,6.087
		c0.305-1.552,0.942-3.036,1.799-4.574C246.693,195.923,245.185,193.229,244.893,190.367z"/>
	<path fill="#C76D00" d="M330.603,221.756c-1.119-3.228-3.854-5.982-4.94-6.919c-3.726,1.193-7.654,1.385-11.391,0.618
		c-1.642,2.161-1.713,5.415-0.648,7.8C319.228,222.4,324.985,221.711,330.603,221.756z"/>
	<path fill="#C76D00" d="M400.744,221.13c-5.703,4.572-12.302,7.533-17.753,12.474c-3.041,2.754-6.477,6.238-10.448,7.611
		c-3.157,1.092-10.936-0.305-12.719,1.609c-2.952,3.166-6.375,6.273-10.586,7.682c-8.324,2.783-15.214,1.151-20.361-4.947
		c-6.592,8.385-17.164,20.071-28.291,14.029c-4.251-2.309-3.502-5.712-8.247-5.709c-4.734,0.005-10.72,0.02-14.876-2.642
		c-0.344-0.22-0.679-0.455-1.012-0.688c0.072,2.17,0.326,4.335,0.932,6.335c1.662,5.5,5,7.944,9.279,6.468
		c-0.167-0.957-0.275-1.953-0.243-3.042c0.034-1.134,1.575-0.928,1.816-0.014c2.451,9.282,14.171,8.875,21.371,6.322
		c-0.697-1.457-1.191-3.023-1.366-4.688c-0.085-0.802,0.942-1.082,1.394-0.5c4.471,5.737,12.284,14.621,18.942,6.181
		c2.026-2.571,5.542-5.235,8.805-6.206c4.419-1.31,10.062,0,12.355,0.437c2.297,0.438,2.951-2.077,3.46-3.202
		c-3.784-3.469-3.465-6.847-2.583-5.983c4.813,4.702,12.945,6.66,18.69,3.657c2.729-1.425,6.893-4.202,7.406-8.75
		c-1.773,0.442-3.534,0.889-5.274,1.36c-0.533,0.144-1.318-0.231-1.135-0.906c1.604-5.881,9.807-6.92,14.802-8.167
		c3.056-0.763,6.233-1.369,9.093-2.744c4.493-2.164,5.838-7.083,5.512-12.77c-0.06-1.024,1.856,1.422,2.219,5.384
		c2.039-1.31,4.007-2.667,5.536-4.682c2.805-3.697,2.224-6.474-0.658-9.648C405.073,217.385,403.043,219.288,400.744,221.13z"/>
	<path fill="#C76D00" d="M270.208,241.339c-0.732-6.257-3.056-2.805-6.951-6.88c-6.035-6.315-6.186-14.776-1.573-21.425
		c-1.207-0.626-2.301-1.385-3.275-2.229c-0.027,0.093-0.012,0.192-0.082,0.277c-3.18,3.846-5.625,9.559-7.004,14.322
		c-2.006,6.923-0.975,11.695,6.121,14.006c0.138-1.896,0.7-3.775,1.791-5.514c0.455-0.725,1.563-0.11,1.451,0.641
		c-1.312,8.816,4.727,17.477,12.343,17.748c0.149-1.332,0.417-2.647,0.769-3.928C271.918,246.484,270.544,244.209,270.208,241.339z"
		/>
	<path fill="#C76D00" d="M255.317,211.77c0.627-0.638,1.267-1.261,1.926-1.857c0.06-0.054,0.125-0.031,0.187-0.059
		c-2.599-2.704-3.957-6.178-3.129-9.897c-1.514-0.167-2.908-0.675-4.146-1.412C249.31,202.18,249.691,209.461,255.317,211.77z"/>
	<path fill="#C76D00" d="M276.307,120.924c1.073-2.061,2.318-4.036,3.649-5.867c-1.585-0.847-3.394-1.876-4.612-2.727
		c-3.008,1.544-5.617,4.118-7.429,7.078C270.825,119.487,273.661,119.979,276.307,120.924z"/>
	<path fill="#4C6DB3" d="M243.207,205.064c1.181,0.271,2.485,0.293,3.834,0.02c0.032,0.458,0.022,0.892,0.114,1.374
		c0.291,1.524,1.004,3.059,1.988,4.4c-5.971,17.714-28.25,43.443-31.455,47.112c5.905-9.206,13.237-22.433,16.602-29.979
		c2.119-4.752,3.99-9.615,5.796-14.492C241.076,210.827,242.375,207.959,243.207,205.064z"/>
	<path fill="#FFFFFF" d="M239.449,194.106c-0.353,0.917-0.655,1.852-0.861,2.799c-0.653,3.009,0.134,5.266,1.696,6.68
		c-0.875,2.356-1.5,4.856-2.291,7.174c-1.639,4.809-3.454,9.556-5.366,14.26c-3.162,7.778-8.216,16.47-11.313,22.069
		c-3.188,5.763-6.625,10.306-12.294,15.027c-3.644,3.034-7.286,4.4-9.807,3.393c8.369-9.276,12.786-22.134,17.699-33.346
		c5.768-13.162,11.221-25.994,15.634-39.27C234.99,193.601,236.856,193.818,239.449,194.106z"/>
	<path fill="#4C6DB3" d="M223.226,188.975c2.033,1.152,4.16,2.063,6.337,2.839c-3.694,11.704-7.641,22.783-13.917,37.139
		c-5.566,12.733-10.987,24.665-17.979,36.515c-3.134-0.187-6.644-0.897-9.937-1.51c6.479-7.995,10.342-18.595,14.735-27.524
		C209.048,223.058,223.751,202.626,223.226,188.975z"/>
	<path fill="#EDBB92" d="M135.259,384.924c-0.087,1.143-0.102,2.732-0.014,3.866c-3.251-2.992-14.252-9.181-19.808-10.049
		C119.773,371.156,130.227,378.405,135.259,384.924z"/>
	<path fill="#EDBB92" d="M157.041,407.902c-7.515,2.83-21.479,2.221-22.844,1.008c-2.062-1.832-8.804-9.714-13.357-12.9
		c-4.554-3.186-11.407-6.877-13.11-7.732c-3.101-1.553-3.737-5.774,1.424-6.838c9.617-1.984,22.535,9.97,25.65,12.439
		c4.402,3.491,5.554,5.565,6.354,4.947c1.69-1.307-0.969-5.675-1.863-6.191c-0.089-6.195,2.726-16.365,6.893-24.104
		c4.25-7.894,8.26-23.83,7.892-24.741c-2.699-6.683-9.126-8.447-15.849-9.361c-12.328-1.679-23.81,0.133-36.286-2.858
		c-29.739-7.129-49.25-30.36-52.53-60.232c-0.119-1.078-1.461-1.044-2.827,1.894c-4.414-3.9-1.781-9.7-0.202-11.836
		c3.368-4.555,9.231-6.237,14.656-5.252c-0.334,2.241-0.395,4.589-0.037,7.084c0.284,1.978,3.089,1.899,3.704,0.204
		c5.494-15.18,14.249-23.269,27.161-32.313c12.589-8.816,21.955-20.432,33.454-30.51c25.011-21.914,66.284-20.296,93.227-3.592
		c-2.511,12.386-11.767,24.143-18.027,34.311c-4.495,7.295-7.745,16.526-12.553,24.255c-8.531,12.064-19.368,18.807-32.137,21.245
		c-9.424,1.8-18.306-2.139-27.359-1.73c-2.268-3.838-4.326-7.961-6.142-12.508c-0.347-0.869-1.585-0.449-1.38,0.474
		c3.34,14.938,14.566,33.222,22.421,41.175c5.197,5.26,11.266,9.612,16.624,14.711c4.75,4.521,8.954,10.267,10.228,15.877
		C160.638,358.848,155.33,383.976,157.041,407.902z"/>
	<path fill="#FFFFFF" d="M164.734,380.144c0.112-1.253,0.258-2.5,0.404-3.75c4.218,13.399,15.661,23.951,27.085,32.553
		c18.929,14.254,41.3,24.366,63.867,31.224c27.141,8.246,55.914,10.933,84.157,9.059c21.463-1.422,45.404-8.088,64.268-19.573
		c0.274,5.726-7.871,13.58-14.512,16.655c-4.636,2.147-1.664,10.504,1.844,13.066c3.778,2.764,7.944,3.09,11.708,1.536
		c6.24-2.577,12.491-8.906,13.51-15.873c0.957,2.558,2.229,6.48,2.921,10.166c-19.523,16.515-45.472,24.54-70.172,29.251
		c-27.797,5.299-56.993,4.845-84.439-2.083c-22.404-5.658-43.724-16.264-63.269-28.46c-12.93-8.068-27.388-18.462-35.052-32.203
		C164.152,408.535,163.451,394.514,164.734,380.144z"/>
	<path fill="#4C6DB3" d="M168.966,429.168c6.107,8.182,14.538,15.161,21.977,20.751c17.89,13.448,38.745,24.29,59.75,31.87
		c29.643,10.696,62.2,12.435,93.225,7.888c26.756-3.922,55.397-12.363,76.978-29.42c1.019,5.661,2.207,11.494,4.572,15.656
		c-13.41,8.605-35.028,21.892-54.71,29.109c-16.531,6.065-37.282,6.153-54.624,6.323c-36.73,0.36-74.958-7.979-106.2-27.729
		C188.472,470.053,175.389,451.002,168.966,429.168z"/>
	<path fill="#5E7EC5" d="M196.504,372.516c-10.059-8.616-20.71-19.983-22.718-32.31c-3.708,10.374-6.483,21.002-8.074,31.842
		c0.259,1.002,0.567,1.986,0.909,2.96C176.114,375.941,186.385,374.889,196.504,372.516z"/>
	<path fill="#5E7EC5" d="M239.368,354.212c2.445-1.628,4.723-3.28,6.752-4.934c3.355-2.737,6.486-5.528,9.448-8.378
		c-23.73-11.023-45.101-29.931-53.865-55.04c-3.042,4.631-5.97,9.35-8.778,14.133C199.117,325.59,217.198,342.802,239.368,354.212z"
		/>
	<path fill="#5E7EC5" d="M248.622,312.007c7.009,4.614,14.586,8.218,22.461,11.031c2.599-3.626,5-7.396,7.229-11.328
		c-26.065-10.529-51.502-33.69-48.871-62.695c-3.421,3.082-8.585,10.021-12.062,14.649
		C221.383,283.327,231.604,300.806,248.622,312.007z"/>
	<path fill="#5E7EC5" d="M273.171,291.824c3.647,2.757,7.499,5.158,11.508,7.188c0.843-1.908,1.659-3.855,2.447-5.842
		c-19.564-8.923-36.13-29.191-33.851-51.172c-0.522-0.13-0.988-0.339-1.457-0.545c-1.147,9.544-1.151,18.807,3.11,27.826
		C259.106,278.119,265.354,285.915,273.171,291.824z"/>
	<path fill="#6F4400" d="M429.218,480.743c4.011,2.545,13.69-0.096,13.784-0.102c-14.049,12.011-33.005,22.915-50.866,31.204
		c-22.009,10.216-46.229,14.409-70.301,15.386c-24.146,0.979-49.621-0.841-72.888-7.416c-15.957-4.507-38.601-8.861-49.778-21.905
		c-1.284-4.036-1.407-8.419-0.47-12.587c29.135,22.769,67.789,31.469,103.955,33.719c18.547,1.151,37.269-0.021,55.539-3.358
		C384.44,510.888,419.474,488.591,429.218,480.743z"/>
	<path fill="#88602B" d="M313.255,524.99c16.442,1.386,33.158-0.481,48.106-7.915c2.606-1.298,5.136-2.704,7.631-4.154
		c-3.7,1.173-7.328,2.128-10.8,2.763c-18.271,3.338-36.992,4.51-55.539,3.358c-6.447-0.4-12.975-1.031-19.512-1.888
		C291.89,522.569,304.892,524.285,313.255,524.99z"/>
	<path fill="#792C1D" d="M232.704,688.134c1.889,10.017,1.428,23.387-0.405,31.735c-3.259,2.037-10.587,1.019-14.063-0.48
		c0.262-2.697,0.338-11.67,0.118-13.422c2.88-2.158,5.859-4.224,9.039-6.095c1.575-0.929,1.26-3.139-0.597-3.448
		c-6.731-1.127-12.45,3.199-17.435,7.47c-13.072,11.203-23.545,18.552-40.643,22.822c-25.684,6.411-75.062-8.676-75.776-14.373
		c18.224-2.45,36.542-5.726,53.024-10.998c16.752-5.359,35-11.684,50.458-20.736c0.244,3.429,0.041,6.278,0.041,9.739
		c0,1.159,2.24,1.019,4.479-3.054c2.057-3.74,2.685-16.399,0.989-18.88c8.861,1.513,17.797,1.526,26.387-0.316
		C229.855,672.638,231.409,681.263,232.704,688.134z"/>
	<path fill="#652319" d="M202.813,677.905c3.395,0.984,7.085,1.468,11.379,1.437c5.759-0.039,11.196-0.811,16.321-2.512
		c-0.716-3.418-1.457-6.55-2.193-8.731c-8.589,1.843-17.525,1.829-26.387,0.316C202.82,669.709,203.068,673.779,202.813,677.905z"/>
	<path fill="#652319" d="M196.732,709.215c-9.253,1.956-18.515,4.456-27.623,7.003c-10.2,2.85-20.35,6.272-29.58,11.104
		c10.575,1.296,21.067,1.423,29.19-0.605c14.936-3.731,24.817-9.813,35.793-18.759C201.498,708.505,198.517,708.84,196.732,709.215z
		"/>
	<path fill="#92473A" d="M250.445,650.489c-24.055,20.922-58.569,11.793-78.362,0.569c4.798-6.926,9.734-13.731,14.764-20.484
		c12.503,9.984,32.557,13.663,47.083,6.871c3.412-1.595,0.604-5.528-3.266-5.938c0.816-2.238,2.241-4.683,3.184-5.507
		C239.827,627.434,245.323,645.555,250.445,650.489z"/>
	<path fill="#81392C" d="M233.93,637.445c-14.498,6.778-34.501,3.124-47.009-6.815c6.488,14.404,32.253,16.465,42.562,14.404
		c5.925-1.186,9.619-3.782,13.374-7.344c-2.881-5.609-5.879-10.938-9.008-11.689c-0.943,0.824-2.368,3.269-3.184,5.507
		C234.535,631.917,237.342,635.85,233.93,637.445z"/>
	<path fill="#81392C" d="M205.742,657.69c-10.322-3.693-20.49-4.771-31.157-5.274c11.582,6.085,27.343,11.185,43.041,10.569
		C213.768,660.972,209.824,659.152,205.742,657.69z"/>
	<path fill="#A77955" d="M439.186,696.41c7.078,5.564,15.836,22.464,15.296,26.177c-11.881,15.018-40.08,10.349-48.667,5.202
		c0.751-5.658,8.486-26.629,15.409-30.092C426.72,700.953,435.068,699.934,439.186,696.41z"/>
	<path fill="#A77955" d="M424.074,634.987c2.639-0.217,6.109-1.223,9.24-2.604c0.735,16.244,2.161,47.598,1.907,59.769
		c-3.003,1.876-8.906,1.264-10.332-0.364C422.04,672.701,422.854,652.292,424.074,634.987z"/>
	<path fill="#A77955" d="M432.707,625.637c-6.392,4.879-20.643,4.879-25.938-15.288c12.061,2.938,25.595-0.665,37.374-6.81
		C441.842,611.666,439.618,620.359,432.707,625.637z"/>
	<path fill="#A77955" d="M454.002,592.432c-10.18,9.569-37.052,17.508-57.24,10.62c-2.314-0.791-1.394-6.345,0.847-6.954
		c18.484,4.865,39.334,0.345,55.8-9.101C454.818,587.75,455.659,590.875,454.002,592.432z"/>
	<path fill="#A77955" d="M452.987,580.826c-11.145,8.79-38.209,12.434-58.635,11.404c-4.849-3.717-7.738-12.83-7.47-18.209
		c3.696-0.954,7.876-2.56,10.788-3.814c5.221,0.584,10.704-0.088,15.109-2.016c6.813,1.634,18.516-2.842,22.343-5.256
		c4.625,0.986,11.57-1.709,14.833-5.313c1.896,0.331,3.734,0.373,5.509,0.178C456.446,565.963,455.484,575.162,452.987,580.826z"/>
	<path fill="#8B5B36" d="M443.958,702.519c0.184-0.121,0.353-0.257,0.533-0.381c-1.765-2.343-3.584-4.374-5.306-5.729
		c-4.118,3.524-12.466,4.543-17.962,1.287c-1.741,0.869-3.531,2.847-5.249,5.409C424.375,708.377,434.115,709.03,443.958,702.519z"
		/>
	<path fill="#8B5B36" d="M433.61,638.934c-0.106-2.363-0.206-4.573-0.296-6.552c-3.131,1.382-6.602,2.388-9.24,2.604
		c-0.152,2.15-0.297,4.349-0.429,6.584C427.083,641.02,430.392,640.109,433.61,638.934z"/>
	<path fill="#8B5B36" d="M409.58,614.78c9.644,5.88,23.188,2.255,32.563-4.569c0.731-2.208,1.369-4.454,1.999-6.671
		c-11.779,6.145-25.313,9.748-37.374,6.81c0.413,1.575,0.897,2.978,1.42,4.299C408.597,614.479,409.081,614.475,409.58,614.78z"/>
	<path fill="#8B5B36" d="M396.483,598.48c19.972,7.087,41.185,3.037,58.377-8.492c-0.036-1.28-0.624-2.548-1.451-2.99
		c-16.466,9.445-37.315,13.966-55.8,9.101c-0.851,0.231-1.494,1.172-1.854,2.289C395.974,598.365,396.217,598.387,396.483,598.48z"
		/>
	<path fill="#8B5B36" d="M398.678,580.292c13.699-4.87,28.878-5.884,43.23-7.532c4.324-0.496,8.836-0.739,13.369-0.663
		c0.652-4.529,0.754-9.578,0.187-14.297c-1.774,0.195-3.612,0.153-5.509-0.178c-3.263,3.604-10.208,6.3-14.833,5.313
		c-3.827,2.414-15.529,6.89-22.343,5.256c-4.405,1.928-9.889,2.6-15.109,2.016c-2.912,1.255-7.092,2.86-10.788,3.814
		c-0.145,2.888,0.646,6.835,2.133,10.458C392.153,582.888,395.379,581.465,398.678,580.292z"/>
	<path fill="#72477E" d="M465.618,503.972c10.244,9.771,11.43,22.463,4.546,34.751c-3.789,6.764-9.98,9.66-16.312,12.774
		c5.238-13.229-1.398-23.09-7.979-29.353c-0.844-0.804-1.83,0.52-1.319,1.353c3.724,6.063,6.769,15.313,5.171,22.306
		c-1.629,7.126-5.701,10.789-8.958,10.383c4.12-7.106,1.741-15.096-2.418-21.342c-0.604-0.908-2.076-0.005-1.626,0.963
		c2.834,6.072,3.508,14.063-1.699,19.002c-8.103,7.687-18.074,9.725-26.045,7.216c-3.778-1.191-7.421-3.229-9.332-6.743
		c-0.381-0.702-1.326-0.166-1.236,0.597c0.42,3.563,2.235,5.816,4.154,7.943c-10.521,1.148-20.651,0.229-19.155-13.808
		c0.083-0.8-1.006-1.226-1.379-0.446c-3.758,7.952-0.849,13.724,4.765,17.154c-5.96,0.331-13.151,3.094-18.909,1.477
		c-7.94-2.229-6.822-10.963-7.887-17.984c6.759-1.815,13.453-3.677,20.045-5.377c1.722-0.443,2.063-3.395-0.039-3.403
		c-26.409-0.096-51.232,9.788-77.551,10.998c-11.503,0.531-22.909-1.666-34.259-3.158c-8.019-1.059-17.68-3.322-25.479-0.177
		c-0.841,0.337-0.6,1.411,0.179,1.616c6.075,1.606,12.442,3.076,18.925,4.368c-8.953,11.645-7.062,31.139-16.827,43.322
		c-8.441,10.532-18.195,25.165-22.448,34.184c-4.447,0.813-9.069,0.825-13.702,0.356c1-7.466-2.111-16.589-5.773-22.685
		c-0.407-0.678-1.345-0.06-1.024,0.621c1.754,3.725,5.613,19.61,2.285,21.304c-5.43-10.284-15.724-16.842-21.456-26.72
		c10.577,4.804,25.098,3.805,34.235-2.195c1.286-0.844,3.373-4.95-0.872-3.093c-11.964,5.234-36.257,4.504-44.799-11.279
		c-0.396-0.733-1.61-0.212-1.487,0.564c1.105,6.925,5.298,11.826,10.882,14.941c4.266,9.388,11.98,16.499,17.233,25.144
		c-16.02-12.333-41.878-35.339-36.933-57.437c5.596-25.009,31.964-60.953,36.955-67.851c7.33,8.345,24.575,12.892,36.607,16.554
		c24.427,7.431,44.662,11.563,70.274,12.152c26.465,0.609,49.365-0.715,76.343-10.382c38.072-13.643,55.759-30.36,68.387-39.959
		C453.593,490.222,459.307,497.955,465.618,503.972z"/>
	<path fill="#66386D" d="M207.843,520.32c14.429,6.869,32.6,12.583,46.381,15.46c28.248,5.893,52.68,5.878,81.423,3.778
		c28.655-2.095,55.549-9.485,80.734-24.05c12.866-7.442,29.202-18.552,37.354-25.953c-1.49-2.288-2.846-4.613-4.034-6.931
		c-12.628,9.599-30.314,26.316-68.387,39.959c-26.979,9.667-49.878,10.991-76.343,10.382c-25.612-0.589-45.847-4.722-70.274-12.152
		c-12.032-3.662-29.277-8.209-36.607-16.554c-0.92,1.272-2.571,3.536-4.679,6.53C197.582,515.708,202.032,517.554,207.843,520.32z"
		/>
	<path fill="#66386D" d="M173.886,598.562c-0.91,1.828-0.765,5.067-0.146,7.591c0.1,0.409,0.216,0.793,0.326,1.186
		c7.51,8.869,16.757,16.631,24.001,22.208c-5.253-8.645-12.968-15.756-17.233-25.144
		C178.122,602.891,175.747,600.947,173.886,598.562z"/>
	<path fill="#66386D" d="M219.66,610.575c0.308-4.068-0.539-6.389-2.401-7.438c-0.049,0.038-0.102,0.101-0.148,0.132
		c-9.137,6-23.658,6.999-34.235,2.195c5.732,9.878,16.025,16.436,21.456,26.72c3.329-1.693-0.531-17.579-2.285-21.304
		c-0.321-0.681,0.617-1.299,1.024-0.621c3.662,6.096,6.773,15.219,5.773,22.685c4.189,0.424,8.364,0.42,12.416-0.178
		C219.611,625.51,219.096,618.059,219.66,610.575z"/>
	<path fill="#66386D" d="M377.806,545.43c-5.873,1.541-11.808,3.173-17.808,4.784c0.821,5.426,0.357,11.864,3.765,15.544
		c0.661-0.793,1.313-1.57,1.959-2.31C370.174,558.342,375.311,552.141,377.806,545.43z"/>
	<path fill="#66386D" d="M450.263,527.036c4.605,6.087,7.625,14.272,3.589,24.462c3.09-1.521,6.145-2.997,8.907-4.89
		C461.106,538.75,456.528,531.185,450.263,527.036z"/>
	<path fill="#66386D" d="M449.973,541.779c-2.197-3.465-6.63-3.991-10.468-5.029c3.393,5.918,4.976,13.03,1.261,19.437
		c3.257,0.406,7.329-3.257,8.958-10.383c0.279-1.228,0.375-2.541,0.392-3.875C450.071,541.873,450.014,541.843,449.973,541.779z"/>
	<path fill="#66386D" d="M380.557,554.317c-2.924,3.875-3.945,9.004-3.212,13.86c3.235-0.528,6.494-1.291,9.449-1.455
		C382.375,564.02,379.688,559.845,380.557,554.317z"/>
	<path fill="#EDBB92" d="M481.718,444.767c-3.703,3.062-6.966,7.809-7.275,12.561c-1.332-0.782-2.792-1.404-4.818-1.317
		C470.514,448.311,480.112,442.495,481.718,444.767z"/>
	<path fill="#EDBB92" d="M476.788,460.821c0.858-5.094,5.458-14.767,10.31-14.545c3.2,0.147-3.557,17.988-5.413,19.828
		c-1.857,1.841-17.11,4.635-25.422,6.604c-5.158,1.222-12.617,4.177-16.845,3.674c-8.599-1.021-11.381-14.167-12.899-22.831
		c-1.431-8.175-5.757-15.093-9.218-22.552c-12.583-27.121,10.527-27.684,28.123-35.377c-0.491,3.508,0.047,7.27,0.694,10.702
		c0.813,4.337,2.943,11.83,6.617,16.046c-4.758,1.087-9.265,2.689-10.428,3.996s1.891,1.453,4.154,1.255
		c0.566,4.393,2.65,8.315,4.71,12.358c2.973,5.842,5.969,13.859,7.154,18.085c-2.055,0.832-3.979,1.97-5.87,3.432
		c-0.696,0.539-0.245,1.817,0.681,1.634C457.05,462.357,467.901,459.509,476.788,460.821z"/>
	<path fill="#FFFFFF" d="M459.508,427.134c-3.581,0.187-6.92,0.454-9.254,1.157c0.895,1.614,1.814,3.251,2.74,4.905
		C455.209,431.198,457.428,429.226,459.508,427.134z"/>
	<path fill="#4C6DB3" d="M464.303,426.906c-2.947,3.327-6.313,6.268-9.644,9.311c1.888,3.451,3.719,6.965,5.238,10.528
		c4.222-4.679,10.331-14.13,13.528-20.675C470.762,426.553,467.553,426.753,464.303,426.906z"/>
	<path fill="#274F98" d="M419.071,253.119c-0.581,2.893-0.971,5.413-1.191,7.236c-1.19,9.875,0.184,19.701,0.985,29.384
		c0.768-9.637,2.621-19.758,4.916-27.832c0.23-0.812,0.53-1.721,0.861-2.672C422.816,257.163,420.961,255.123,419.071,253.119z"/>
	<path fill="#274F98" d="M464.48,353.376c-11.006,8.74-19.37,20.387-30.111,29.459c-12.699,10.732-28.531,18.287-44.101,23.898
		c-3.895,10.698-8.979,20.954-15.265,30.414c14.113-4.81,27.095-10.846,33.71-15.726c-1.632-10.571,0.726-21.133,14.438-25.1
		c10.953-3.169,21.053-5.828,30.408-12.693c9.369-6.878,30.998-23.511,35.693-28.93C480.945,355.784,470.387,355.039,464.48,353.376
		z"/>
	<path fill="#274F98" d="M399.082,361.337c14.531-6.621,28.291-14.994,42.413-23.375c-3.646-4.202-5.9-8.238-7.569-11.046
		c-10.918,7.199-22.974,12.922-35.81,17.303C398.896,349.862,399.234,355.575,399.082,361.337z"/>
	<path fill="#274F98" d="M390.644,316.3c6.01-2.582,11.932-5.478,17.742-8.709c-2.264-3.073-3.926-6.458-5.218-9.993
		c-5.15,3.59-10.753,6.694-16.629,9.397C388.025,310.049,389.391,313.153,390.644,316.3z"/>
	<path fill="#274F98" d="M370.479,280.976c9.471-10.967,16.762-24.284,22.038-37.681c-3.742,1.219-7.619,2.227-11.506,3.198
		c0.413,4.523-2.506,9.084-6.223,12.16c-2.1,5.805-5.362,11.119-9.423,15.88C367.119,276.635,368.821,278.786,370.479,280.976z"/>
	<path fill="#274F98" d="M409.63,302.435c-0.878-1.128-1.673-2.339-2.438-3.573c0.932-0.714,1.88-1.399,2.994-1.817
		c0.039-0.014,0.057-0.042,0.094-0.059c0.968,3.824,2.364,7.438,4.448,10.441C412.712,306.157,411.047,304.255,409.63,302.435z"/>
	<path fill="#274F98" d="M403.823,257.146c0.115-4.936,0.53-11.224,1.756-17.381c-1.511-1.405-3.023-2.808-4.561-4.191
		c-0.779,1.798-1.956,3.452-3.443,4.795c-0.881,16.647,1.078,35.386,11.136,49.161C404.443,279.668,403.591,266.882,403.823,257.146
		z"/>
	<path fill="#274F98" d="M230.858,235.038c-3.739,7.256-8.834,16.17-13.17,22.933c1.982-2.269,11.242-12.982,19.437-25.013
		C235.052,233.692,232.962,234.383,230.858,235.038z"/>
	<path fill="#274F98" d="M200.071,241.523c-3.512,7.667-7.055,15.914-12.341,22.436c3.293,0.612,6.802,1.323,9.937,1.51
		c4.944-8.378,9.095-16.814,13.075-25.534C207.218,240.571,203.665,241.11,200.071,241.523z"/>
	<path fill="#274F98" d="M420.896,460.257c-21.58,17.057-50.222,25.498-76.978,29.42c-16.583,2.43-33.6,3.043-50.378,1.474
		c-23.288,3.805-47.708,0.81-70.131-8.652c-15.415-6.502-28.672-15.104-41.273-25.396c6.986,10.165,16.148,19.153,27.798,26.516
		c31.242,19.75,69.47,28.089,106.2,27.729c17.342-0.17,38.093-0.258,54.624-6.323c19.682-7.218,41.3-20.504,54.71-29.109
		C423.103,471.751,421.915,465.918,420.896,460.257z"/>
	<path fill="#274F98" d="M464.303,426.906c-2.947,3.327-6.313,6.268-9.644,9.311c1.888,3.451,3.719,6.965,5.238,10.528
		c4.222-4.679,10.331-14.13,13.528-20.675C470.762,426.553,467.553,426.753,464.303,426.906z"/>
	<path fill="#6F4400" d="M457.815,421.482c-8.298-7.54-8.229-22.261-7.637-28.229c10.385-5.808,20.663-15.699,31.415-24.533
		c-0.813,14.22,6.347,41.053,19.419,47.924C491.75,418.219,467.579,421.527,457.815,421.482z"/>
	<path fill="#5D3800" d="M243.047,518.211c10.676,0.594,21.507,0.033,31.741-0.811c2.091-0.171,4.19-0.341,6.293-0.51
		c-29.454-4.087-58.987-13.283-82.382-31.568c-0.937,4.168-0.814,8.551,0.47,12.587
		C209.029,509.416,227.803,514.159,243.047,518.211z"/>
	<path fill="#5D3800" d="M398.252,508.917c15.987-7.857,32.295-17.628,44.75-28.275c-0.094,0.006-9.773,2.646-13.784,0.102
		c-4.67,3.759-15.157,10.822-27.687,17.694C400.506,502.001,399.375,505.515,398.252,508.917z"/>
	<path fill="#5D3800" d="M492.814,408.884c-12.813,3.719-26.036,6.093-39.113,7.154c1.065,2.022,2.404,3.892,4.114,5.443
		c9.764,0.045,33.936-3.263,43.197-4.838C497.939,415.031,495.208,412.284,492.814,408.884z"/>
	<path fill="#EDBB92" d="M570.024,359.997c-2.122,5.235-7.313,9.928-11.291,13.749c-8.951,8.599-19.558,18.166-30.871,23.458
		c-0.575,0.269-0.152,1.255,0.438,1.024c14.079-5.577,27.964-14.675,38.683-25.684c-3.838,10.712-7.188,19.515-17.697,27.336
		c-10.772,8.02-26.076,11.894-37.416,14.616c-22.616-4.529-25.037-41.109-25.156-49.891c12.946-10.078,25.707-16.944,41.194-13.479
		c1.868,0.418,2.458-2.294,0.897-3.09c-3.735-1.907-10.193-1.91-14.087-1.826c9.375-6.287,9.546-12.07,7.713-11.152
		c-14.952,7.475-33.617,15.008-52.968,13.219c-23.39-2.159-28.758-22.247-29.957-42.244c-0.057-0.926-1.589-1.118-1.831-0.203
		c-1.392,5.266-1.911,10.089-1.745,14.512c-1.128-1.674-2.39-3.266-3.417-4.764c-2.806-4.092-6.037-8.034-8.714-12.234
		c-0.851-10.004-0.058-19.771,1.907-29.895c1.526-7.879,3.889-15.973,7.018-23.296c0.684-1.6,4.342-9.02,7.736-14.766
		c29.033-10.947,58.941,17.762,75.138,39.052c9.106,11.974,16.153,25.475,23.158,38.736c6.124,11.597,11.726,26.079,20.815,35.981
		c-1.041,0.269-2.047,0.576-2.975,0.906c-1.353,0.482-1.306,2.515,0.156,2.811C561.27,353.794,572.6,353.636,570.024,359.997z"/>
	<path fill="#E3A77E" d="M407.641,453.645c3.818-3.167,6.435-7.653,7.907-11.864c0.015-0.025-3.604-8.137-5.097-12.764
		c-1.395,3.992-3.475,7.89-5.421,11.06c-0.525,0.854-1.129,1.693-1.787,2.506C404.872,446.206,406.312,449.903,407.641,453.645z"/>
	<path fill="#E3A77E" d="M317.45,275.851c15.194-0.835,33.735-3.688,49.581-10.591c0.635-1.083,1.276-2.165,1.841-3.305
		c-3.869,0.914-9.596,0.898-13.024-1.134c-1.389,2.851-3.161,5.286-7.462,4.363c-10.165-2.182-11.517,0.866-17.514,6.668
		c-6.062,5.867-14.635,3.593-19.319-2.162c-3.421,4.301-9.646,4.586-14.794,3.322c-4.49-1.106-7.665-3.4-9.231-6.844
		c-4.937,3.266-11.052,1.042-13.361-4.47c-0.845-2.024-1.243-4.219-1.291-6.449c-7.625,0.706-14.273-5.836-15.306-13.004
		c-0.874,0.113-1.69,0.119-2.475,0.071c0.92,5.799,2.412,11.274,4.455,16.356C273.289,273.159,297.323,276.957,317.45,275.851z"/>
	<path fill="#E3A77E" d="M415.602,151.69c1.535-0.534,3.064-1.084,4.601-1.626c-0.343-3.237-1.084-6.327-2.352-8.729
		c-0.641-0.017-1.448-0.025-2.313-0.025C416.417,144.601,416.552,148.467,415.602,151.69z"/>
	<path fill="#E3A77E" d="M407.85,153.979c0.384-0.085,0.762-0.192,1.143-0.288c-0.036-0.112-0.093-0.208-0.123-0.328
		c-0.188-0.694,0.71-1.063,1.116-0.502c0.142,0.195,0.277,0.353,0.407,0.479c0.668-0.183,1.332-0.389,1.992-0.595
		c0.638-1.23,0.951-3.246,0.917-4.109c-0.094-2.43-0.757-4.868-1.044-7.284c-1.148,0.031-2.235,0.079-3.076,0.149
		c-1.524,2.574-3.277,7.966-3.624,13.314C406.229,154.458,406.984,154.171,407.85,153.979z"/>
	<path fill="#E3A77E" d="M322.454,138.11c-0.29-3.324,0.46-6.771,2.515-9.948c-4.604-1.008-8.744-2.007-13.761-3.06
		c-0.164,3.048-1.696,5.893-3.935,8.122C312.384,134.65,317.447,136.318,322.454,138.11z"/>
	<path fill="#E3A77E" d="M387.517,166.822c0.045-0.104,0.066-0.223,0.118-0.327c1.673-3.477,4.262-5.785,7.456-7.484
		c-2.975-1.668-3.239-6.341-2.041-9.378c0.991-2.5,2.289-4.852,3.963-6.962c0.209-0.265,0.423-0.459,0.636-0.688
		c-7.333-0.417-14.496-1.255-21.706-2.452c1.211,4.938-1.56,5.418-5.042-0.886c-3.585-0.678-7.146-1.431-10.69-2.235
		c-0.231,5.577-3.164,10.349-7.344,13.555C364.765,154.952,376.344,160.475,387.517,166.822z"/>
	<path fill="#E3A77E" d="M284.178,128.938c-2.342-4.083-3.037-8.704,0.514-11.644c-0.992-0.435-2.004-0.841-2.966-1.318
		c-2.448,3.866-4.597,8.159-6.191,12.713C278.422,128.631,281.305,128.712,284.178,128.938z"/>
	<path fill="#E3A77E" d="M280.698,164.683c-2.32,7.75-1.566,15.812,5.595,22.413c6.112,5.636,13.863,7.941,21.798,4.715
		c6.435-2.616,12.358-7.456,16.071-13.362c1.718-2.732,5.831-9.782,2.741-12.835C325.561,189.721,289.125,180.87,280.698,164.683z"
		/>
	<path fill="#E3A77E" d="M266.467,113.194c0.301,0.527,0.545,1.103,0.741,1.715c1.684-1.899,3.68-3.398,5.825-4.213
		c-3.135-1.676-6.211-3.282-7.199-5.785c-0.845-0.074-1.724-0.087-2.614-0.042C264.595,107.415,265.659,110.226,266.467,113.194z"/>
	<path fill="#E3A77E" d="M51.265,281.625c6.202,24.843,24.453,43.661,50.679,49.946c5.746,1.377,11.28,1.724,16.783,1.876
		C104.405,309.38,77.854,289.75,51.265,281.625z"/>
	<path fill="#E3A77E" d="M162.628,357.412c-5.731,8.608-11.29,17.313-16.032,26.48c-1.592,3.076-3.006,6.168-4.303,9.279
		c-0.31,0.945-0.592,1.899-0.893,2.847c0.388,1.135,0.477,2.252-0.244,2.808c-0.181,0.139-0.387,0.124-0.636,0.004
		c-1.091,3.589-2.089,7.21-3.009,10.853c4.909,0.521,13.974,0.311,19.529-1.78C155.86,391.39,158.024,374.308,162.628,357.412z"/>
	<path fill="#E3A77E" d="M197.004,187.714c0.404,1.394,0.721,2.796,0.872,4.131c1.318,11.593-0.695,23.471-3.563,34.714
		c-2.946,11.556-6.784,25.396-13.224,37.139c2.436-2.379,4.732-5.077,6.882-8.117c4.808-7.729,8.058-16.96,12.553-24.255
		c6.261-10.168,15.517-21.925,18.027-34.311C212.062,192.991,204.73,189.87,197.004,187.714z"/>
	<path fill="#E3A77E" d="M478.554,444.752c-3.321,3.407-6.121,7.51-8.9,11.113c-0.009,0.049-0.022,0.096-0.029,0.145
		c2.026-0.087,3.486,0.535,4.818,1.317c0.31-4.752,3.572-9.499,7.275-12.561C481.235,444.084,480.027,444.143,478.554,444.752z"/>
	<path fill="#E3A77E" d="M439.389,470.109c-4.247-3.157-6.513-7.379-9.163-11.773c-1.183-1.962-2.511-3.793-3.886-5.592
		c0.054,0.272,0.13,0.535,0.178,0.808c1.519,8.664,4.301,21.811,12.899,22.831c2.309,0.274,5.579-0.488,8.912-1.431
		C445.195,473.653,442.156,472.163,439.389,470.109z"/>
	<path fill="#E3A77E" d="M504.015,404.183c-2.006,0.476-4.026,0.854-6.042,1.26c3.472,4.49,7.989,7.872,13.896,9.054
		c11.34-2.723,26.644-6.597,37.416-14.616c2.729-2.031,4.966-4.13,6.866-6.309C538.712,395.16,521.39,400.057,504.015,404.183z"/>
	<path fill="#E3A77E" d="M500.912,303.552c-4.126-1.535-7.375-3.265-10.329-6.576c-0.463-0.516-0.627-1.081-0.654-1.637
		c-4.723-4.803-3.334-11.887-3.56-18.736c-0.345-10.577-13.262-15.49-18.024-5.074c-3.898,8.523,1.819,14.743,7.766,20.158
		c4.611,4.2,8.861,8.294,12.152,13.623c3.015,4.876,2.463,16.557,9.917,17.793c5.486,0.912,16.278-1.817,15.213-9.947
		C512.442,305.867,505.739,305.353,500.912,303.552z"/>
	<path fill="#E3A77E" d="M444.49,279.79c1.094-12.826,1.943-34.006,10.489-46.768c-4.818-0.161-9.68,0.54-14.52,2.365
		c-3.395,5.746-7.053,13.166-7.736,14.766c-3.129,7.323-5.491,15.417-7.018,23.296c-1.965,10.123-2.758,19.89-1.907,29.895
		c2.677,4.2,5.908,8.142,8.714,12.234c1.027,1.499,2.289,3.09,3.417,4.764c-0.166-4.423,0.354-9.246,1.745-14.512
		c0.242-0.915,1.774-0.723,1.831,0.203c0.684,11.365,2.721,22.746,8.635,30.862C443.961,318.19,442.875,298.687,444.49,279.79z"/>
	<path d="M511.759,309.05c-11.274-11.116-28.356-15.005-29.158-33.744c-0.034-0.771-1.304-0.887-1.371-0.093
		c-0.282,3.367-0.037,6.525,0.626,9.479c-6.16-5.884-13.695-8.525-21.56-3.217c-0.633,0.425-0.258,1.402,0.479,1.363
		c18.479-0.985,26.578,18.589,33.483,32.654c0.567,1.157,2.551,0.638,2.441-0.658c-0.285-3.397-1.44-7.743-3.265-12.236
		c4.867,3.942,10.79,6.886,17.056,8.754C511.821,311.748,512.684,309.961,511.759,309.05z"/>
	<path d="M139.904,305.274c-5.534-4.673-11.724-8.458-16.887-13.572c-5.227-5.176-9.377-11.81-12.117-18.603
		c-0.436-1.083-1.905-0.412-1.631,0.649c3.916,15.197,13.895,28.805,29.384,33.67C139.826,307.788,140.888,306.104,139.904,305.274z
		"/>
	<path d="M185.176,204.562c0.47-3.006-0.797-7.039-4.563-7.789c-2.57-0.514-5.352,0.082-7.003,1.979
		c-1.775,2.043-2.726,4.834-2.046,7.521c0.117,0.462,0.295,0.917,0.522,1.351c-10.51,12.141-24.282,22.061-37.316,31.963
		c-4.61-2.687-5.194-10.205-4.289-15.595c1.079-6.443,4.47-9.728,7.299-11.495c2.648-0.24,5.298-0.24,8.567,1.366
		c1.232,0.604,2.029-1.369,0.973-2.12c-9.844-6.999-23.809-2.461-28.337,8.37c-0.409,0.982,0.95,1.521,1.47,0.655
		c2.12-3.531,6.049-5.786,10.44-6.971c-2.274,2.122-4.192,6.166-4.915,9.056c-1.67,6.682-1.887,12.891,4.095,19.263
		c-0.605,0.48-3.852,5.058-3.612,5.78c0.24,0.723,5.321-2.165,6.02-2.647c8.511,9.119,23.214,11.052,31.028,0.607
		c1,3.726,1.604,7.216,2.164,10.555c0.211,1.259,3.533-2.977,1.727-11.407c-1.664-7.766-5.563-5.946-5.241-4.896
		c0.199,0.646,0.333,1.307,0.499,1.961c-4.612,3.017-8.966,6.169-14.841,5.748c-4.453-0.318-8.417-3.036-11.406-6.347
		c13.395-9.533,25.946-19.796,37.41-31.691c4.552,1.961,7.368-2.075,6.055-1.934s-3.349-0.875-3.758-2.667
		c-0.382-1.671,0.588-3.336,2.27-3.7c3.009-0.658,4.584,2.847,3.458,5.426C181.651,207.35,184.706,207.567,185.176,204.562z"/>
	<path d="M346.523,168.507c-2.624-1.648-5.526-2.165-8.482-1.307c-2.693,0.785-3.853,4.036-5.023,6.24
		c-0.322,0.604,0.559,1.258,0.998,0.706c2.546-3.175,6.632-2.591,9.72-0.748c-1.84,24.563-47.325,30.67-60.967,13.033
		c-0.448-0.579-1.424-0.032-0.997,0.598c14.319,21.073,60.734,16.134,65.725-10.092c1.803,2.568,2.843,5.625,4.384,8.359
		c0.505,0.9,1.979,0.875,2.426-0.073C357.275,178.895,351.693,171.75,346.523,168.507z"/>
	<path d="M326.334,155.189c-6.718-3.827-13.708,1.208-17.704,6.33c-0.788,1.008,0.692,2.401,1.711,1.755
		c4.037-2.57,19.193-8.66,16.206,2.114c-0.795,2.87-3.386,5.195-5.44,7.137c-6.426,6.062-15.73,7.987-23.854,4.806
		c-10.17-3.982-20.46-14.04-15.659-25.54c3.79-9.076,18.63-8.946,23.986-1.851c1.21,1.6,3.389,1.062,4.255-0.525
		c2.845-5.209,3.285-9.555,2.746-15.468c-0.06-0.649-1.042-0.937-1.313-0.263c-1.504,3.706-2.861,7.461-4.594,11.048
		c-9.917-6.544-22.819-6.169-29.58,5.091c-8.886,14.799,9.246,31.198,23.264,34.897c0,1.719,0.279,3.576,0.266,4.6
		c-0.012,0.765-0.048,1.465-0.289,2.199c-0.519,1.603-1.779,1.021-2.967,0.28c-0.561-0.351-1.026,0.514-0.5,0.88
		c2.311,1.611,4.844,1.481,6.139-1.242c0.799-1.691,1.053-3.48,1.222-5.32c0.022-0.226,0.04-0.462,0.063-0.697
		c11.426,0.954,24.812-9.372,26.557-20.804C331.49,160.405,330.037,157.297,326.334,155.189z"/>
	<path fill="#B89776" d="M419.717,729.485c5.37,1.792,19.219,1.374,27.11-4.118c7.894-5.491-9.607-5.836-14.07-5.836
		C428.295,719.531,413.539,727.424,419.717,729.485z"/>
	<path fill="#B89776" d="M432.072,658.445c0,6.177,0.345,25.052,0.686,28.482c0.342,3.432-6.519-8.921-5.833-15.099
		C427.611,665.652,432.072,649.865,432.072,658.445z"/>
	<path fill="#B89776" d="M429.327,620.348c3.849-2.994,10.636-7.894,8.578-4.117c-2.057,3.776-5.833,9.265-9.265,10.295
		S426.239,622.75,429.327,620.348z"/>
	<path fill="#B89776" d="M427.266,581.568c10.289-1.761,29.171-3.091,20.248,0.686c-8.924,3.775-26.079,7.552-34.661,7.552
		S415.252,583.625,427.266,581.568z"/>
	<path fill="#965D4E" d="M129.85,708.589c8.438-1.608,25.767-3.438,32.294-4.122c6.528-0.687-11.681,11.338-18.895,12.712
		C136.035,718.554,108.206,712.712,129.85,708.589z"/>
	<path fill="#A46156" d="M231.887,652.59c-6.622,2.157-12.393,7.558-8.932,7.558c6.564,0,16.146-4.465,20.613-7.213
		C245.783,651.57,238.413,650.463,231.887,652.59z"/>
	<path fill="#885E8E" d="M175.893,586.968c5.153,6.975,21.642,14.089,31.263,10.651c9.62-3.438-7.215-20.271-13.055-21.301
		C188.261,575.288,170.052,579.068,175.893,586.968z"/>
	<path fill="#885E8E" d="M434.933,539.558c1.741,4.933-1.719,13.056-11.681,16.834C413.292,560.17,428.75,522.036,434.933,539.558z"
		/>
	<path fill="#885E8E" d="M464.136,507.606c4.962,4.654,8.591,15.805,4.123,25.425S453.144,497.299,464.136,507.606z"/>
	<path fill="#885E8E" d="M169.708,557.081c3.42-9.283,13.743-25.771,16.835-29.892c3.091-4.121,6.871,12.024,1.717,18.896
		C183.107,552.957,164.898,570.134,169.708,557.081z"/>
	<path fill="#66386D" d="M251.406,570.592c-0.283,7.363-2.507,21.092-10.114,28.898C222.989,618.275,252.37,545.546,251.406,570.592
		z"/>
	<path fill="#88602B" d="M458.508,391.906c4.205-2.627,14.449-11.556,17.34-13.966c2.89-2.41-3.85,14.449-7.705,16.856
		C464.289,397.204,450.802,396.723,458.508,391.906z"/>
	<path fill="#FFD4AE" d="M289.375,147.544c3.658-1.925,10.996,0.547,13.197,6.415C304.767,159.826,275.444,154.876,289.375,147.544z
		"/>
	<path fill="#FFD4AE" d="M342.343,164.59c7.879,0.358,15.031,8.615,16.495,17.962c1.465,9.346,10.447-15.031,2.016-20.345
		C346.004,152.85,334.281,164.223,342.343,164.59z"/>
	<path fill="#FFD4AE" d="M320.714,201.063c7.149-0.164,7.881,6.962-1.1,6.048C310.634,206.196,312.65,201.246,320.714,201.063z"/>
	<path fill="#FFD4AE" d="M137.065,197.581c8.359-6.87,24.743-11.732,37.39-10.631S118.553,212.791,137.065,197.581z"/>
	<path fill="#FFD4AE" d="M103.708,269.608c2.878,12.183,8.25,24.927,16.864,31.708c8.614,6.782-17.779,2.199-21.628-12.098
		C95.093,274.922,100.591,256.412,103.708,269.608z"/>
	<path fill="#FFD4AE" d="M118.372,257.33c1.584,10.038,2.566,18.512,5.499,23.643c2.933,5.131-7.697-0.002-8.431-9.35
		C114.706,262.276,117.272,250.367,118.372,257.33z"/>
	<path fill="#FFD4AE" d="M71.267,260.812c2.647-9.011,12.281-22.91,24.744-27.31C108.473,229.103,63.568,287.021,71.267,260.812z"/>
	<path fill="#FFD4AE" d="M491.722,274.739c0,8.813,4.036,20.161,14.663,23.644C517.013,301.864,491.722,257.877,491.722,274.739z"/>
	<path fill="#FFD4AE" d="M464.78,333.757c-7.851-7.662-7.831-20.054,3.116-18.696c10.475,1.298,29.877,22.36,17.229,24.377
		C480.265,340.214,469.679,338.541,464.78,333.757z"/>
	<path fill="#FFD4AE" d="M496.302,365.282c7.476-7.953,21.629-13.563,35.009-10.63C544.69,357.583,479.074,383.612,496.302,365.282z
		"/>
	<path fill="#FFD4AE" d="M418.043,412.022c2.66-5.833,9.897-8.612,16.495-9.714C441.137,401.208,410.347,428.883,418.043,412.022z"
		/>
	<path fill="#FFD4AE" d="M543.961,368.396c5.865-5.865,20.896-9.527,17.413-4.214c-3.482,5.314-15.397,17.963-21.079,21.079
		C534.616,388.375,540.663,371.695,543.961,368.396z"/>
	<path fill="#E39430" d="M290.486,234.49c7.353-1.383,13.688-2.96,18.494,3.328C313.787,244.105,284.569,235.602,290.486,234.49z"/>
	<path fill="#E39430" d="M270.145,220.433c4.077-0.24,9.246,3.703,9.616,8.509C280.131,233.748,263.857,220.803,270.145,220.433z"/>
	<path fill="#EB645D" d="M340.048,48.08c11.486-2.503,44.756,4.809,60.659,23.302C416.61,89.875,311.199,54.368,340.048,48.08z"/>
	<path fill="#EB645D" d="M342.64,98.011c9.313,5.432,29.957,10.727,42.162,11.097C397.007,109.478,316.011,82.478,342.64,98.011z"/>
	<path fill="#EB645D" d="M355.584,94.681c13.631,3.895,33.657,10.724,39.205,12.945c5.547,2.221-6.291-12.206-15.905-14.054
		C369.269,91.724,334.874,88.763,355.584,94.681z"/>
	<path fill="#EB645D" d="M387.762,127.601c10.275-1.471,22.93-0.37,28.478,2.218c5.549,2.588,2.591-8.875-7.767-8.136
		C398.116,122.422,377.408,129.082,387.762,127.601z"/>
	<path fill="#EB645D" d="M286.867,110.256c-9.954-3.206-18.566-6.973-9.323-7.067C284.212,103.122,296.881,113.482,286.867,110.256z
		"/>
	<path fill="#EB645D" d="M438.365,134.924c3.009-0.855,8.906,3.347,9.733,7.417C449.49,149.179,428.979,137.591,438.365,134.924z"/>
	<path fill="#EB645D" d="M491.791,172.472c6.377-0.384,19.238,2.664,23.641,6.025C519.833,181.858,472.555,173.632,491.791,172.472z
		"/>
	<path fill="#EB645D" d="M503.496,224.274c-4.864-4.984-11.164-17.41-5.563-14.139c5.253,3.068,16.228,16.806,19.007,21.208
		C518.21,233.356,508.361,229.258,503.496,224.274z"/>
</g>
</svg>
